<svg width="1920" height="1080" viewBox="0 0 1920 1080" fill="none" xmlns="http://www.w3.org/2000/svg">
<g clip-path="url(#clip0_110_5)">
<rect width="1920" height="1080" fill="url(#paint0_linear_110_5)"/>
<mask id="path-1-outside-1_110_5" maskUnits="userSpaceOnUse" x="-11" y="167" width="643" height="186" fill="black">
<rect fill="white" x="-11" y="167" width="643" height="186"/>
<path d="M110.5 202.25C110.5 203.083 110.167 203.833 109.5 204.5C109 205 108.333 205.25 107.5 205.25H25.75C24.9167 205.25 24.5 205.667 24.5 206.5V245.25C24.5 246.083 24.9167 246.5 25.75 246.5H79.5C80.3333 246.5 81 246.833 81.5 247.5C82.1667 248 82.5 248.667 82.5 249.5V273.75C82.5 274.583 82.1667 275.333 81.5 276C81 276.5 80.3333 276.75 79.5 276.75H25.75C24.9167 276.75 24.5 277.167 24.5 278V347C24.5 347.833 24.1667 348.583 23.5 349.25C23 349.75 22.3333 350 21.5 350H-7.75C-8.58333 350 -9.33333 349.75 -10 349.25C-10.5 348.583 -10.75 347.833 -10.75 347V178C-10.75 177.167 -10.5 176.5 -10 176C-9.33333 175.333 -8.58333 175 -7.75 175H107.5C108.333 175 109 175.333 109.5 176C110.167 176.5 110.5 177.167 110.5 178V202.25ZM165.936 219.5C176.769 219.5 186.436 221.417 194.936 225.25C203.436 228.917 210.019 234 214.686 240.5C219.519 247 221.936 254.25 221.936 262.25V347C221.936 347.833 221.602 348.583 220.936 349.25C220.436 349.75 219.769 350 218.936 350H189.686C188.852 350 188.102 349.75 187.436 349.25C186.936 348.583 186.686 347.833 186.686 347V338.75C186.686 338.25 186.519 337.917 186.186 337.75C185.852 337.583 185.519 337.75 185.186 338.25C178.186 347.417 166.936 352 151.436 352C138.436 352 127.936 348.833 119.936 342.5C111.936 336.167 107.936 326.833 107.936 314.5C107.936 301.667 112.436 291.75 121.436 284.75C130.436 277.583 143.269 274 159.936 274H185.436C186.269 274 186.686 273.583 186.686 272.75V267.25C186.686 261.75 185.019 257.5 181.686 254.5C178.352 251.333 173.352 249.75 166.686 249.75C161.519 249.75 157.186 250.667 153.686 252.5C150.352 254.333 148.186 256.917 147.186 260.25C146.686 262.083 145.602 262.917 143.936 262.75L113.686 258.75C111.686 258.417 110.769 257.667 110.936 256.5C111.602 249.5 114.352 243.167 119.186 237.5C124.186 231.833 130.686 227.417 138.686 224.25C146.852 221.083 155.936 219.5 165.936 219.5ZM160.936 325.75C168.102 325.75 174.186 323.833 179.186 320C184.186 316.167 186.686 311.25 186.686 305.25V296.25C186.686 295.417 186.269 295 185.436 295H167.436C159.936 295 154.019 296.417 149.686 299.25C145.519 302.083 143.436 306.083 143.436 311.25C143.436 315.75 145.019 319.333 148.186 322C151.352 324.5 155.602 325.75 160.936 325.75ZM313.766 219.5C327.099 219.5 337.849 223.583 346.016 231.75C354.182 239.917 358.266 251 358.266 265V347C358.266 347.833 357.932 348.583 357.266 349.25C356.766 349.75 356.099 350 355.266 350H326.016C325.182 350 324.432 349.75 323.766 349.25C323.266 348.583 323.016 347.833 323.016 347V272.25C323.016 265.583 321.099 260.167 317.266 256C313.599 251.833 308.682 249.75 302.516 249.75C296.349 249.75 291.349 251.833 287.516 256C283.849 260.167 282.016 265.583 282.016 272.25V347C282.016 347.833 281.682 348.583 281.016 349.25C280.516 349.75 279.849 350 279.016 350H249.766C248.932 350 248.182 349.75 247.516 349.25C247.016 348.583 246.766 347.833 246.766 347V178C246.766 177.167 247.016 176.5 247.516 176C248.182 175.333 248.932 175 249.766 175H279.016C279.849 175 280.516 175.333 281.016 176C281.682 176.5 282.016 177.167 282.016 178V233.25C282.016 233.75 282.182 234.083 282.516 234.25C282.849 234.417 283.099 234.333 283.266 234C290.099 224.333 300.266 219.5 313.766 219.5ZM525.984 219.5C538.984 219.5 549.151 223.417 556.484 231.25C563.818 239.083 567.484 250.083 567.484 264.25V347C567.484 347.833 567.151 348.583 566.484 349.25C565.984 349.75 565.318 350 564.484 350H535.234C534.401 350 533.651 349.75 532.984 349.25C532.484 348.583 532.234 347.833 532.234 347V272C532.234 265.167 530.484 259.75 526.984 255.75C523.484 251.75 518.818 249.75 512.984 249.75C507.151 249.75 502.401 251.75 498.734 255.75C495.068 259.75 493.234 265.083 493.234 271.75V347C493.234 347.833 492.901 348.583 492.234 349.25C491.734 349.75 491.068 350 490.234 350H461.234C460.401 350 459.651 349.75 458.984 349.25C458.484 348.583 458.234 347.833 458.234 347V272C458.234 265.333 456.401 260 452.734 256C449.068 251.833 444.318 249.75 438.484 249.75C433.151 249.75 428.651 251.333 424.984 254.5C421.484 257.667 419.401 262.083 418.734 267.75V347C418.734 347.833 418.401 348.583 417.734 349.25C417.234 349.75 416.568 350 415.734 350H386.484C385.651 350 384.901 349.75 384.234 349.25C383.734 348.583 383.484 347.833 383.484 347V224.5C383.484 223.667 383.734 223 384.234 222.5C384.901 221.833 385.651 221.5 386.484 221.5H415.734C416.568 221.5 417.234 221.833 417.734 222.5C418.401 223 418.734 223.667 418.734 224.5V234.25C418.734 234.75 418.901 235.083 419.234 235.25C419.568 235.417 419.901 235.25 420.234 234.75C427.068 224.583 437.651 219.5 451.984 219.5C460.318 219.5 467.568 221.25 473.734 224.75C480.068 228.25 484.901 233.25 488.234 239.75C488.734 240.75 489.318 240.75 489.984 239.75C493.651 232.917 498.568 227.833 504.734 224.5C511.068 221.167 518.151 219.5 525.984 219.5ZM611.225 207C605.558 207 600.808 205.167 596.975 201.5C593.308 197.667 591.475 192.917 591.475 187.25C591.475 181.417 593.308 176.667 596.975 173C600.641 169.333 605.391 167.5 611.225 167.5C617.058 167.5 621.808 169.333 625.475 173C629.141 176.667 630.975 181.417 630.975 187.25C630.975 192.917 629.058 197.667 625.225 201.5C621.558 205.167 616.891 207 611.225 207ZM596.225 350C595.391 350 594.641 349.75 593.975 349.25C593.475 348.583 593.225 347.833 593.225 347V224.25C593.225 223.417 593.475 222.75 593.975 222.25C594.641 221.583 595.391 221.25 596.225 221.25H625.475C626.308 221.25 626.975 221.583 627.475 222.25C628.141 222.75 628.475 223.417 628.475 224.25V347C628.475 347.833 628.141 348.583 627.475 349.25C626.975 349.75 626.308 350 625.475 350H596.225Z"/>
</mask>
<path d="M109.5 204.5L109.641 204.641L109.641 204.641L109.5 204.5ZM81.5 247.5L81.34 247.62L81.3571 247.643L81.38 247.66L81.5 247.5ZM23.5 349.25L23.6414 349.391L23.6414 349.391L23.5 349.25ZM-10 349.25L-10.16 349.37L-10.1429 349.393L-10.12 349.41L-10 349.25ZM-10 176L-10.1414 175.859L-10.1414 175.859L-10 176ZM109.5 176L109.34 176.12L109.357 176.143L109.38 176.16L109.5 176ZM110.3 202.25C110.3 203.023 109.993 203.724 109.359 204.359L109.641 204.641C110.34 203.943 110.7 203.144 110.7 202.25H110.3ZM109.359 204.359C108.903 204.814 108.29 205.05 107.5 205.05V205.45C108.376 205.45 109.097 205.186 109.641 204.641L109.359 204.359ZM107.5 205.05H25.75V205.45H107.5V205.05ZM25.75 205.05C25.3025 205.05 24.9302 205.162 24.6711 205.421C24.412 205.68 24.3 206.053 24.3 206.5H24.7C24.7 206.114 24.7963 205.862 24.9539 205.704C25.1115 205.546 25.3642 205.45 25.75 205.45V205.05ZM24.3 206.5V245.25H24.7V206.5H24.3ZM24.3 245.25C24.3 245.697 24.412 246.07 24.6711 246.329C24.9302 246.588 25.3025 246.7 25.75 246.7V246.3C25.3642 246.3 25.1115 246.204 24.9539 246.046C24.7963 245.888 24.7 245.636 24.7 245.25H24.3ZM25.75 246.7H79.5V246.3H25.75V246.7ZM79.5 246.7C80.2704 246.7 80.8778 247.004 81.34 247.62L81.66 247.38C81.1222 246.663 80.3963 246.3 79.5 246.3V246.7ZM81.38 247.66C81.9963 248.122 82.3 248.73 82.3 249.5H82.7C82.7 248.604 82.337 247.878 81.62 247.34L81.38 247.66ZM82.3 249.5V273.75H82.7V249.5H82.3ZM82.3 273.75C82.3 274.523 81.9931 275.224 81.3586 275.859L81.6414 276.141C82.3402 275.443 82.7 274.644 82.7 273.75H82.3ZM81.3586 275.859C80.9027 276.314 80.2905 276.55 79.5 276.55V276.95C80.3762 276.95 81.0973 276.686 81.6414 276.141L81.3586 275.859ZM79.5 276.55H25.75V276.95H79.5V276.55ZM25.75 276.55C25.3025 276.55 24.9302 276.662 24.6711 276.921C24.412 277.18 24.3 277.553 24.3 278H24.7C24.7 277.614 24.7963 277.362 24.9539 277.204C25.1115 277.046 25.3642 276.95 25.75 276.95V276.55ZM24.3 278V347H24.7V278H24.3ZM24.3 347C24.3 347.773 23.9931 348.474 23.3586 349.109L23.6414 349.391C24.3402 348.693 24.7 347.894 24.7 347H24.3ZM23.3586 349.109C22.9027 349.564 22.2905 349.8 21.5 349.8V350.2C22.3762 350.2 23.0973 349.936 23.6414 349.391L23.3586 349.109ZM21.5 349.8H-7.75V350.2H21.5V349.8ZM-7.75 349.8C-8.54006 349.8 -9.24795 349.564 -9.88 349.09L-10.12 349.41C-9.41871 349.936 -8.62661 350.2 -7.75 350.2V349.8ZM-9.84 349.13C-10.314 348.498 -10.55 347.79 -10.55 347H-10.95C-10.95 347.877 -10.686 348.669 -10.16 349.37L-9.84 349.13ZM-10.55 347V178H-10.95V347H-10.55ZM-10.55 178C-10.55 177.21 -10.3144 176.597 -9.85858 176.141L-10.1414 175.859C-10.6856 176.403 -10.95 177.124 -10.95 178H-10.55ZM-9.85858 176.141C-9.22405 175.507 -8.52315 175.2 -7.75 175.2V174.8C-8.64352 174.8 -9.44262 175.16 -10.1414 175.859L-9.85858 176.141ZM-7.75 175.2H107.5V174.8H-7.75V175.2ZM107.5 175.2C108.27 175.2 108.878 175.504 109.34 176.12L109.66 175.88C109.122 175.163 108.396 174.8 107.5 174.8V175.2ZM109.38 176.16C109.996 176.622 110.3 177.23 110.3 178H110.7C110.7 177.104 110.337 176.378 109.62 175.84L109.38 176.16ZM110.3 178V202.25H110.7V178H110.3ZM194.936 225.25L194.853 225.432L194.856 225.434L194.936 225.25ZM214.686 240.5L214.523 240.617L214.525 240.619L214.686 240.5ZM220.936 349.25L220.794 349.109L220.794 349.109L220.936 349.25ZM187.436 349.25L187.276 349.37L187.293 349.393L187.316 349.41L187.436 349.25ZM186.186 337.75L186.275 337.571L186.275 337.571L186.186 337.75ZM185.186 338.25L185.345 338.372L185.352 338.361L185.186 338.25ZM119.936 342.5L120.06 342.343L120.06 342.343L119.936 342.5ZM121.436 284.75L121.558 284.908L121.56 284.906L121.436 284.75ZM181.686 254.5L181.548 254.645L181.552 254.649L181.686 254.5ZM153.686 252.5L153.593 252.323L153.589 252.325L153.686 252.5ZM147.186 260.25L146.994 260.193L146.993 260.197L147.186 260.25ZM143.936 262.75L143.909 262.948L143.916 262.949L143.936 262.75ZM113.686 258.75L113.653 258.947L113.659 258.948L113.686 258.75ZM110.936 256.5L111.134 256.528L111.135 256.519L110.936 256.5ZM119.186 237.5L119.036 237.368L119.033 237.37L119.186 237.5ZM138.686 224.25L138.613 224.064L138.612 224.064L138.686 224.25ZM179.186 320L179.064 319.841L179.186 320ZM149.686 299.25L149.576 299.083L149.573 299.085L149.686 299.25ZM148.186 322L148.057 322.153L148.062 322.157L148.186 322ZM165.936 219.7C176.745 219.7 186.383 221.612 194.853 225.432L195.018 225.068C186.488 221.221 176.793 219.3 165.936 219.3V219.7ZM194.856 225.434C203.328 229.088 209.881 234.15 214.523 240.617L214.848 240.383C210.157 233.85 203.543 228.745 195.015 225.066L194.856 225.434ZM214.525 240.619C219.333 247.085 221.736 254.294 221.736 262.25H222.136C222.136 254.206 219.705 246.915 214.846 240.381L214.525 240.619ZM221.736 262.25V347H222.136V262.25H221.736ZM221.736 347C221.736 347.773 221.429 348.474 220.794 349.109L221.077 349.391C221.776 348.693 222.136 347.894 222.136 347H221.736ZM220.794 349.109C220.338 349.564 219.726 349.8 218.936 349.8V350.2C219.812 350.2 220.533 349.936 221.077 349.391L220.794 349.109ZM218.936 349.8H189.686V350.2H218.936V349.8ZM189.686 349.8C188.895 349.8 188.188 349.564 187.556 349.09L187.316 349.41C188.017 349.936 188.809 350.2 189.686 350.2V349.8ZM187.596 349.13C187.122 348.498 186.886 347.79 186.886 347H186.486C186.486 347.877 186.75 348.669 187.276 349.37L187.596 349.13ZM186.886 347V338.75H186.486V347H186.886ZM186.886 338.75C186.886 338.204 186.699 337.783 186.275 337.571L186.096 337.929C186.338 338.05 186.486 338.296 186.486 338.75H186.886ZM186.275 337.571C186.052 337.46 185.819 337.46 185.596 337.571C185.385 337.677 185.194 337.876 185.019 338.139L185.352 338.361C185.51 338.124 185.653 337.99 185.775 337.929C185.885 337.874 185.986 337.874 186.096 337.929L186.275 337.571ZM185.027 338.129C178.077 347.23 166.896 351.8 151.436 351.8V352.2C166.975 352.2 178.295 347.603 185.345 338.371L185.027 338.129ZM151.436 351.8C138.468 351.8 128.016 348.642 120.06 342.343L119.811 342.657C127.855 349.025 138.403 352.2 151.436 352.2V351.8ZM120.06 342.343C112.118 336.056 108.136 326.786 108.136 314.5H107.736C107.736 326.88 111.753 336.278 119.811 342.657L120.06 342.343ZM108.136 314.5C108.136 301.72 112.614 291.865 121.558 284.908L121.313 284.592C112.257 291.635 107.736 301.614 107.736 314.5H108.136ZM121.56 284.906C130.512 277.778 143.294 274.2 159.936 274.2V273.8C143.243 273.8 130.359 277.388 121.311 284.594L121.56 284.906ZM159.936 274.2H185.436V273.8H159.936V274.2ZM185.436 274.2C185.883 274.2 186.255 274.088 186.514 273.829C186.774 273.57 186.886 273.197 186.886 272.75H186.486C186.486 273.136 186.389 273.388 186.232 273.546C186.074 273.704 185.821 273.8 185.436 273.8V274.2ZM186.886 272.75V267.25H186.486V272.75H186.886ZM186.886 267.25C186.886 261.707 185.204 257.398 181.819 254.351L181.552 254.649C184.834 257.602 186.486 261.793 186.486 267.25H186.886ZM181.823 254.355C178.439 251.14 173.381 249.55 166.686 249.55V249.95C173.324 249.95 178.265 251.527 181.548 254.645L181.823 254.355ZM166.686 249.55C161.496 249.55 157.129 250.471 153.593 252.323L153.778 252.677C157.242 250.863 161.542 249.95 166.686 249.95V249.55ZM153.589 252.325C150.215 254.181 148.011 256.804 146.994 260.193L147.377 260.307C148.361 257.029 150.49 254.486 153.782 252.675L153.589 252.325ZM146.993 260.197C146.75 261.088 146.372 261.71 145.876 262.091C145.384 262.47 144.75 262.63 143.955 262.551L143.916 262.949C144.788 263.036 145.529 262.863 146.12 262.409C146.707 261.957 147.121 261.245 147.379 260.303L146.993 260.197ZM143.962 262.552L113.712 258.552L113.659 258.948L143.909 262.948L143.962 262.552ZM113.718 258.553C112.731 258.388 112.043 258.125 111.625 257.783C111.22 257.452 111.06 257.042 111.134 256.528L110.738 256.472C110.644 257.125 110.859 257.673 111.371 258.092C111.87 258.5 112.64 258.778 113.653 258.947L113.718 258.553ZM111.135 256.519C111.797 249.562 114.529 243.267 119.338 237.63L119.033 237.37C114.175 243.066 111.407 249.438 110.736 256.481L111.135 256.519ZM119.336 237.632C124.312 231.992 130.784 227.593 138.759 224.436L138.612 224.064C130.587 227.241 124.059 231.674 119.036 237.368L119.336 237.632ZM138.758 224.436C146.898 221.28 155.957 219.7 165.936 219.7V219.3C155.914 219.3 146.806 220.887 138.613 224.064L138.758 224.436ZM160.936 325.95C168.14 325.95 174.268 324.022 179.307 320.159L179.064 319.841C174.103 323.644 168.065 325.55 160.936 325.55V325.95ZM179.307 320.159C184.354 316.29 186.886 311.316 186.886 305.25H186.486C186.486 311.184 184.017 316.044 179.064 319.841L179.307 320.159ZM186.886 305.25V296.25H186.486V305.25H186.886ZM186.886 296.25C186.886 295.803 186.774 295.43 186.514 295.171C186.255 294.912 185.883 294.8 185.436 294.8V295.2C185.821 295.2 186.074 295.296 186.232 295.454C186.389 295.612 186.486 295.864 186.486 296.25H186.886ZM185.436 294.8H167.436V295.2H185.436V294.8ZM167.436 294.8C159.913 294.8 153.954 296.22 149.576 299.083L149.795 299.417C154.084 296.613 159.958 295.2 167.436 295.2V294.8ZM149.573 299.085C145.35 301.956 143.236 306.019 143.236 311.25H143.636C143.636 306.148 145.688 302.21 149.798 299.415L149.573 299.085ZM143.236 311.25C143.236 315.803 144.841 319.445 148.057 322.153L148.314 321.847C145.197 319.222 143.636 315.697 143.636 311.25H143.236ZM148.062 322.157C151.273 324.693 155.572 325.95 160.936 325.95V325.55C155.633 325.55 151.431 324.307 148.309 321.843L148.062 322.157ZM346.016 231.75L346.157 231.609L346.157 231.609L346.016 231.75ZM357.266 349.25L357.124 349.109L357.124 349.109L357.266 349.25ZM323.766 349.25L323.606 349.37L323.623 349.393L323.646 349.41L323.766 349.25ZM317.266 256L317.115 256.132L317.118 256.135L317.266 256ZM287.516 256L287.368 255.865L287.365 255.868L287.516 256ZM281.016 349.25L281.157 349.391L281.157 349.391L281.016 349.25ZM247.516 349.25L247.356 349.37L247.373 349.393L247.396 349.41L247.516 349.25ZM247.516 176L247.374 175.859L247.374 175.859L247.516 176ZM281.016 176L280.856 176.12L280.873 176.143L280.896 176.16L281.016 176ZM282.516 234.25L282.605 234.071L282.605 234.071L282.516 234.25ZM283.266 234L283.102 233.885L283.094 233.897L283.087 233.911L283.266 234ZM313.766 219.7C327.055 219.7 337.751 223.768 345.874 231.891L346.157 231.609C337.947 223.399 327.143 219.3 313.766 219.3V219.7ZM345.874 231.891C353.996 240.013 358.066 251.041 358.066 265H358.466C358.466 250.959 354.369 239.82 346.157 231.609L345.874 231.891ZM358.066 265V347H358.466V265H358.066ZM358.066 347C358.066 347.773 357.759 348.474 357.124 349.109L357.407 349.391C358.106 348.693 358.466 347.894 358.466 347H358.066ZM357.124 349.109C356.668 349.564 356.056 349.8 355.266 349.8V350.2C356.142 350.2 356.863 349.936 357.407 349.391L357.124 349.109ZM355.266 349.8H326.016V350.2H355.266V349.8ZM326.016 349.8C325.226 349.8 324.518 349.564 323.886 349.09L323.646 349.41C324.347 349.936 325.139 350.2 326.016 350.2V349.8ZM323.926 349.13C323.452 348.498 323.216 347.79 323.216 347H322.816C322.816 347.877 323.08 348.669 323.606 349.37L323.926 349.13ZM323.216 347V272.25H322.816V347H323.216ZM323.216 272.25C323.216 265.543 321.286 260.075 317.413 255.865L317.118 256.135C320.912 260.259 322.816 265.624 322.816 272.25H323.216ZM317.416 255.868C313.707 251.653 308.733 249.55 302.516 249.55V249.95C308.632 249.95 313.491 252.014 317.115 256.132L317.416 255.868ZM302.516 249.55C296.299 249.55 291.243 251.653 287.368 255.865L287.663 256.135C291.455 252.014 296.399 249.95 302.516 249.95V249.55ZM287.365 255.868C283.66 260.078 281.816 265.545 281.816 272.25H282.216C282.216 265.622 284.037 260.255 287.666 256.132L287.365 255.868ZM281.816 272.25V347H282.216V272.25H281.816ZM281.816 347C281.816 347.773 281.509 348.474 280.874 349.109L281.157 349.391C281.856 348.693 282.216 347.894 282.216 347H281.816ZM280.874 349.109C280.418 349.564 279.806 349.8 279.016 349.8V350.2C279.892 350.2 280.613 349.936 281.157 349.391L280.874 349.109ZM279.016 349.8H249.766V350.2H279.016V349.8ZM249.766 349.8C248.976 349.8 248.268 349.564 247.636 349.09L247.396 349.41C248.097 349.936 248.889 350.2 249.766 350.2V349.8ZM247.676 349.13C247.202 348.498 246.966 347.79 246.966 347H246.566C246.566 347.877 246.83 348.669 247.356 349.37L247.676 349.13ZM246.966 347V178H246.566V347H246.966ZM246.966 178C246.966 177.21 247.201 176.597 247.657 176.141L247.374 175.859C246.83 176.403 246.566 177.124 246.566 178H246.966ZM247.657 176.141C248.292 175.507 248.992 175.2 249.766 175.2V174.8C248.872 174.8 248.073 175.16 247.374 175.859L247.657 176.141ZM249.766 175.2H279.016V174.8H249.766V175.2ZM279.016 175.2C279.786 175.2 280.393 175.504 280.856 176.12L281.176 175.88C280.638 175.163 279.912 174.8 279.016 174.8V175.2ZM280.896 176.16C281.512 176.622 281.816 177.23 281.816 178H282.216C282.216 177.104 281.853 176.378 281.136 175.84L280.896 176.16ZM281.816 178V233.25H282.216V178H281.816ZM281.816 233.25C281.816 233.796 282.002 234.217 282.426 234.429L282.605 234.071C282.363 233.95 282.216 233.704 282.216 233.25H281.816ZM282.426 234.429C282.62 234.526 282.823 234.567 283.016 234.502C283.209 234.438 283.347 234.284 283.445 234.089L283.087 233.911C283.017 234.05 282.947 234.104 282.89 234.123C282.833 234.142 282.744 234.141 282.605 234.071L282.426 234.429ZM283.429 234.115C290.219 224.51 300.32 219.7 313.766 219.7V219.3C300.211 219.3 289.979 224.157 283.102 233.885L283.429 234.115ZM556.484 231.25L556.338 231.387L556.338 231.387L556.484 231.25ZM566.484 349.25L566.626 349.391L566.626 349.391L566.484 349.25ZM532.984 349.25L532.824 349.37L532.842 349.393L532.864 349.41L532.984 349.25ZM526.984 255.75L527.135 255.618L527.135 255.618L526.984 255.75ZM498.734 255.75L498.587 255.615L498.587 255.615L498.734 255.75ZM492.234 349.25L492.093 349.109L492.093 349.109L492.234 349.25ZM458.984 349.25L458.824 349.37L458.842 349.393L458.864 349.41L458.984 349.25ZM452.734 256L452.584 256.132L452.587 256.135L452.734 256ZM424.984 254.5L424.854 254.349L424.85 254.352L424.984 254.5ZM418.734 267.75L418.536 267.727L418.534 267.738V267.75H418.734ZM417.734 349.25L417.876 349.391L417.876 349.391L417.734 349.25ZM384.234 349.25L384.074 349.37L384.092 349.393L384.114 349.41L384.234 349.25ZM384.234 222.5L384.093 222.359L384.093 222.359L384.234 222.5ZM417.734 222.5L417.574 222.62L417.592 222.643L417.614 222.66L417.734 222.5ZM420.234 234.75L420.068 234.638L420.068 234.639L420.234 234.75ZM473.734 224.75L473.636 224.924L473.638 224.925L473.734 224.75ZM488.234 239.75L488.413 239.661L488.412 239.659L488.234 239.75ZM489.984 239.75L490.151 239.861L490.156 239.853L490.161 239.845L489.984 239.75ZM504.734 224.5L504.641 224.323L504.639 224.324L504.734 224.5ZM525.984 219.7C538.942 219.7 549.051 223.602 556.338 231.387L556.63 231.113C549.251 223.231 539.027 219.3 525.984 219.3V219.7ZM556.338 231.387C563.627 239.172 567.284 250.117 567.284 264.25H567.684C567.684 250.049 564.008 238.994 556.63 231.113L556.338 231.387ZM567.284 264.25V347H567.684V264.25H567.284ZM567.284 347C567.284 347.773 566.977 348.474 566.343 349.109L566.626 349.391C567.325 348.693 567.684 347.894 567.684 347H567.284ZM566.343 349.109C565.887 349.564 565.275 349.8 564.484 349.8V350.2C565.361 350.2 566.082 349.936 566.626 349.391L566.343 349.109ZM564.484 349.8H535.234V350.2H564.484V349.8ZM535.234 349.8C534.444 349.8 533.736 349.564 533.104 349.09L532.864 349.41C533.566 349.936 534.358 350.2 535.234 350.2V349.8ZM533.144 349.13C532.67 348.498 532.434 347.79 532.434 347H532.034C532.034 347.877 532.298 348.669 532.824 349.37L533.144 349.13ZM532.434 347V272H532.034V347H532.434ZM532.434 272C532.434 265.132 530.675 259.664 527.135 255.618L526.834 255.882C530.294 259.836 532.034 265.201 532.034 272H532.434ZM527.135 255.618C523.593 251.57 518.869 249.55 512.984 249.55V249.95C518.766 249.95 523.376 251.93 526.834 255.882L527.135 255.618ZM512.984 249.55C507.1 249.55 502.295 251.57 498.587 255.615L498.882 255.885C502.508 251.93 507.202 249.95 512.984 249.95V249.55ZM498.587 255.615C494.879 259.66 493.034 265.045 493.034 271.75H493.434C493.434 265.121 495.256 259.84 498.882 255.885L498.587 255.615ZM493.034 271.75V347H493.434V271.75H493.034ZM493.034 347C493.034 347.773 492.727 348.474 492.093 349.109L492.376 349.391C493.075 348.693 493.434 347.894 493.434 347H493.034ZM492.093 349.109C491.637 349.564 491.025 349.8 490.234 349.8V350.2C491.111 350.2 491.832 349.936 492.376 349.391L492.093 349.109ZM490.234 349.8H461.234V350.2H490.234V349.8ZM461.234 349.8C460.444 349.8 459.736 349.564 459.104 349.09L458.864 349.41C459.566 349.936 460.358 350.2 461.234 350.2V349.8ZM459.144 349.13C458.67 348.498 458.434 347.79 458.434 347H458.034C458.034 347.877 458.298 348.669 458.824 349.37L459.144 349.13ZM458.434 347V272H458.034V347H458.434ZM458.434 272C458.434 265.295 456.59 259.91 452.882 255.865L452.587 256.135C456.212 260.09 458.034 265.371 458.034 272H458.434ZM452.885 255.868C449.178 251.656 444.372 249.55 438.484 249.55V249.95C444.264 249.95 448.958 252.011 452.584 256.132L452.885 255.868ZM438.484 249.55C433.108 249.55 428.56 251.147 424.854 254.349L425.115 254.651C428.742 251.519 433.194 249.95 438.484 249.95V249.55ZM424.85 254.352C421.307 257.557 419.207 262.022 418.536 267.727L418.933 267.773C419.595 262.144 421.662 257.776 425.119 254.648L424.85 254.352ZM418.534 267.75V347H418.934V267.75H418.534ZM418.534 347C418.534 347.773 418.227 348.474 417.593 349.109L417.876 349.391C418.575 348.693 418.934 347.894 418.934 347H418.534ZM417.593 349.109C417.137 349.564 416.525 349.8 415.734 349.8V350.2C416.611 350.2 417.332 349.936 417.876 349.391L417.593 349.109ZM415.734 349.8H386.484V350.2H415.734V349.8ZM386.484 349.8C385.694 349.8 384.986 349.564 384.354 349.09L384.114 349.41C384.816 349.936 385.608 350.2 386.484 350.2V349.8ZM384.394 349.13C383.92 348.498 383.684 347.79 383.684 347H383.284C383.284 347.877 383.548 348.669 384.074 349.37L384.394 349.13ZM383.684 347V224.5H383.284V347H383.684ZM383.684 224.5C383.684 223.71 383.92 223.097 384.376 222.641L384.093 222.359C383.549 222.903 383.284 223.624 383.284 224.5H383.684ZM384.376 222.641C385.01 222.007 385.711 221.7 386.484 221.7V221.3C385.591 221.3 384.792 221.66 384.093 222.359L384.376 222.641ZM386.484 221.7H415.734V221.3H386.484V221.7ZM415.734 221.7C416.505 221.7 417.112 222.004 417.574 222.62L417.894 222.38C417.357 221.663 416.631 221.3 415.734 221.3V221.7ZM417.614 222.66C418.231 223.122 418.534 223.73 418.534 224.5H418.934C418.934 223.604 418.571 222.878 417.854 222.34L417.614 222.66ZM418.534 224.5V234.25H418.934V224.5H418.534ZM418.534 234.25C418.534 234.796 418.72 235.217 419.145 235.429L419.324 235.071C419.082 234.95 418.934 234.704 418.934 234.25H418.534ZM419.145 235.429C419.368 235.54 419.601 235.54 419.824 235.429C420.035 235.323 420.225 235.124 420.401 234.861L420.068 234.639C419.91 234.876 419.767 235.01 419.645 235.071C419.535 235.126 419.434 235.126 419.324 235.071L419.145 235.429ZM420.4 234.862C427.19 224.76 437.705 219.7 451.984 219.7V219.3C437.598 219.3 426.946 224.406 420.068 234.638L420.4 234.862ZM451.984 219.7C460.289 219.7 467.504 221.444 473.636 224.924L473.833 224.576C467.631 221.056 460.346 219.3 451.984 219.3V219.7ZM473.638 224.925C479.936 228.406 484.741 233.376 488.056 239.841L488.412 239.659C485.061 233.124 480.2 228.094 473.831 224.575L473.638 224.925ZM488.055 239.839C488.308 240.345 488.629 240.7 489.047 240.7C489.252 240.7 489.446 240.612 489.625 240.469C489.803 240.326 489.978 240.12 490.151 239.861L489.818 239.639C489.658 239.88 489.509 240.049 489.375 240.156C489.241 240.263 489.133 240.3 489.047 240.3C488.881 240.3 488.66 240.155 488.413 239.661L488.055 239.839ZM490.161 239.845C493.811 233.042 498.701 227.989 504.829 224.676L504.639 224.324C498.435 227.678 493.491 232.791 489.808 239.655L490.161 239.845ZM504.828 224.677C511.129 221.36 518.18 219.7 525.984 219.7V219.3C518.122 219.3 511.006 220.973 504.641 224.323L504.828 224.677ZM596.975 201.5L596.83 201.638L596.836 201.645L596.975 201.5ZM596.975 173L597.116 173.141L597.116 173.141L596.975 173ZM625.475 173L625.333 173.141L625.333 173.141L625.475 173ZM625.225 201.5L625.083 201.359L625.225 201.5ZM593.975 349.25L593.815 349.37L593.832 349.393L593.855 349.41L593.975 349.25ZM593.975 222.25L593.833 222.109L593.833 222.109L593.975 222.25ZM627.475 222.25L627.315 222.37L627.332 222.393L627.355 222.41L627.475 222.25ZM627.475 349.25L627.333 349.109L627.333 349.109L627.475 349.25ZM611.225 206.8C605.606 206.8 600.906 204.984 597.113 201.355L596.836 201.645C600.71 205.349 605.51 207.2 611.225 207.2V206.8ZM597.119 201.362C593.491 197.568 591.675 192.869 591.675 187.25H591.275C591.275 192.964 593.125 197.765 596.83 201.638L597.119 201.362ZM591.675 187.25C591.675 181.462 593.492 176.766 597.116 173.141L596.833 172.859C593.124 176.568 591.275 181.371 591.275 187.25H591.675ZM597.116 173.141C600.74 169.517 605.437 167.7 611.225 167.7V167.3C605.345 167.3 600.542 169.15 596.833 172.859L597.116 173.141ZM611.225 167.7C617.012 167.7 621.709 169.517 625.333 173.141L625.616 172.859C621.907 169.15 617.104 167.3 611.225 167.3V167.7ZM625.333 173.141C628.958 176.766 630.775 181.462 630.775 187.25H631.175C631.175 181.371 629.325 176.568 625.616 172.859L625.333 173.141ZM630.775 187.25C630.775 192.866 628.877 197.565 625.083 201.359L625.366 201.641C629.239 197.769 631.175 192.967 631.175 187.25H630.775ZM625.083 201.359C621.458 204.984 616.844 206.8 611.225 206.8V207.2C616.939 207.2 621.658 205.349 625.366 201.641L625.083 201.359ZM596.225 349.8C595.435 349.8 594.727 349.564 594.095 349.09L593.855 349.41C594.556 349.936 595.348 350.2 596.225 350.2V349.8ZM594.135 349.13C593.661 348.498 593.425 347.79 593.425 347H593.025C593.025 347.877 593.289 348.669 593.815 349.37L594.135 349.13ZM593.425 347V224.25H593.025V347H593.425ZM593.425 224.25C593.425 223.46 593.66 222.847 594.116 222.391L593.833 222.109C593.289 222.653 593.025 223.374 593.025 224.25H593.425ZM594.116 222.391C594.751 221.757 595.451 221.45 596.225 221.45V221.05C595.331 221.05 594.532 221.41 593.833 222.109L594.116 222.391ZM596.225 221.45H625.475V221.05H596.225V221.45ZM625.475 221.45C626.245 221.45 626.852 221.754 627.315 222.37L627.635 222.13C627.097 221.413 626.371 221.05 625.475 221.05V221.45ZM627.355 222.41C627.971 222.872 628.275 223.48 628.275 224.25H628.675C628.675 223.354 628.312 222.628 627.595 222.09L627.355 222.41ZM628.275 224.25V347H628.675V224.25H628.275ZM628.275 347C628.275 347.773 627.968 348.474 627.333 349.109L627.616 349.391C628.315 348.693 628.675 347.894 628.675 347H628.275ZM627.333 349.109C626.877 349.564 626.265 349.8 625.475 349.8V350.2C626.351 350.2 627.072 349.936 627.616 349.391L627.333 349.109ZM625.475 349.8H596.225V350.2H625.475V349.8Z" fill="white" mask="url(#path-1-outside-1_110_5)"/>
<mask id="path-3-outside-2_110_5" maskUnits="userSpaceOnUse" x="56" y="415" width="186" height="589" fill="black">
<rect fill="white" x="56" y="415" width="186" height="589"/>
<path d="M59 418.25C59 417.417 59.25 416.667 59.75 416C60.4167 415.5 61.1667 415.25 62 415.25H231C231.833 415.25 232.5 415.5 233 416C233.667 416.667 234 417.417 234 418.25V480.75C234 493.25 231.75 504.167 227.25 513.5C222.917 523 216.75 530.333 208.75 535.5C200.75 540.667 191.5 543.25 181 543.25H112C101.5 543.25 92.25 540.667 84.25 535.5C76.25 530.333 70 523 65.5 513.5C61.1667 504.167 59 493.25 59 480.75V418.25ZM90.5 450.5C89.6667 450.5 89.25 450.917 89.25 451.75V482C89.25 489.667 91.8333 495.833 97 500.5C102.167 505.333 109.083 507.833 117.75 508H175.25C183.917 508 190.833 505.583 196 500.75C201.167 496.083 203.75 489.75 203.75 481.75V451.75C203.75 450.917 203.333 450.5 202.5 450.5H90.5ZM189.5 634.541C189.5 647.874 185.417 658.624 177.25 666.791C169.083 674.958 158 679.041 144 679.041H62C61.1667 679.041 60.4167 678.708 59.75 678.041C59.25 677.541 59 676.874 59 676.041V646.791C59 645.958 59.25 645.208 59.75 644.541C60.4167 644.041 61.1667 643.791 62 643.791H136.75C143.417 643.791 148.833 641.874 153 638.041C157.167 634.374 159.25 629.458 159.25 623.291C159.25 617.124 157.167 612.124 153 608.291C148.833 604.624 143.417 602.791 136.75 602.791H62C61.1667 602.791 60.4167 602.458 59.75 601.791C59.25 601.291 59 600.624 59 599.791V570.541C59 569.708 59.25 568.958 59.75 568.291C60.4167 567.791 61.1667 567.541 62 567.541H231C231.833 567.541 232.5 567.791 233 568.291C233.667 568.958 234 569.708 234 570.541V599.791C234 600.624 233.667 601.291 233 601.791C232.5 602.458 231.833 602.791 231 602.791H175.75C175.25 602.791 174.917 602.958 174.75 603.291C174.583 603.624 174.667 603.874 175 604.041C184.667 610.874 189.5 621.041 189.5 634.541ZM202 723.26C202 717.593 203.833 712.843 207.5 709.01C211.333 705.343 216.083 703.51 221.75 703.51C227.583 703.51 232.333 705.343 236 709.01C239.667 712.676 241.5 717.426 241.5 723.26C241.5 729.093 239.667 733.843 236 737.51C232.333 741.176 227.583 743.01 221.75 743.01C216.083 743.01 211.333 741.093 207.5 737.26C203.833 733.593 202 728.926 202 723.26ZM59 708.26C59 707.426 59.25 706.676 59.75 706.01C60.4167 705.51 61.1667 705.26 62 705.26H184.75C185.583 705.26 186.25 705.51 186.75 706.01C187.417 706.676 187.75 707.426 187.75 708.26V737.51C187.75 738.343 187.417 739.01 186.75 739.51C186.25 740.176 185.583 740.51 184.75 740.51H62C61.1667 740.51 60.4167 740.176 59.75 739.51C59.25 739.01 59 738.343 59 737.51V708.26ZM59 770.98C59 770.147 59.25 769.397 59.75 768.73C60.4167 768.23 61.1667 767.98 62 767.98H231C231.833 767.98 232.5 768.23 233 768.73C233.667 769.397 234 770.147 234 770.98V800.23C234 801.064 233.667 801.73 233 802.23C232.5 802.897 231.833 803.23 231 803.23H146.75C146.25 803.23 145.917 803.397 145.75 803.73C145.75 804.064 145.917 804.397 146.25 804.73L185.75 838.73C186.917 839.897 187.5 841.147 187.5 842.48V875.73C187.5 877.397 186.917 878.23 185.75 878.23C185.25 878.23 184.583 877.98 183.75 877.48L143.5 845.73C142.833 845.397 142.25 845.314 141.75 845.48L62.5 882.73C61.8333 883.064 61.3333 883.23 61 883.23C59.6667 883.23 59 882.314 59 880.48V849.73C59 848.064 59.75 846.897 61.25 846.23L119.75 821.48C120.083 821.314 120.25 820.98 120.25 820.48C120.417 820.147 120.333 819.897 120 819.73L100 803.73C99.3333 803.397 98.8333 803.23 98.5 803.23H62C61.1667 803.23 60.4167 802.897 59.75 802.23C59.25 801.73 59 801.064 59 800.23V770.98ZM189.5 946.916C189.5 957.749 187.583 967.416 183.75 975.916C180.083 984.416 175 990.999 168.5 995.666C162 1000.5 154.75 1002.92 146.75 1002.92H62C61.1667 1002.92 60.4167 1002.58 59.75 1001.92C59.25 1001.42 59 1000.75 59 999.916V970.666C59 969.833 59.25 969.083 59.75 968.416C60.4167 967.916 61.1667 967.666 62 967.666H70.25C70.75 967.666 71.0833 967.499 71.25 967.166C71.4167 966.833 71.25 966.499 70.75 966.166C61.5833 959.166 57 947.916 57 932.416C57 919.416 60.1667 908.916 66.5 900.916C72.8333 892.916 82.1667 888.916 94.5 888.916C107.333 888.916 117.25 893.416 124.25 902.416C131.417 911.416 135 924.249 135 940.916V966.416C135 967.249 135.417 967.666 136.25 967.666H141.75C147.25 967.666 151.5 965.999 154.5 962.666C157.667 959.333 159.25 954.333 159.25 947.666C159.25 942.499 158.333 938.166 156.5 934.666C154.667 931.333 152.083 929.166 148.75 928.166C146.917 927.666 146.083 926.583 146.25 924.916L150.25 894.666C150.583 892.666 151.333 891.749 152.5 891.916C159.5 892.583 165.833 895.333 171.5 900.166C177.167 905.166 181.583 911.666 184.75 919.666C187.917 927.833 189.5 936.916 189.5 946.916ZM83.25 941.916C83.25 949.083 85.1667 955.166 89 960.166C92.8333 965.166 97.75 967.666 103.75 967.666H112.75C113.583 967.666 114 967.249 114 966.416V948.416C114 940.916 112.583 934.999 109.75 930.666C106.917 926.499 102.917 924.416 97.75 924.416C93.25 924.416 89.6667 925.999 87 929.166C84.5 932.333 83.25 936.583 83.25 941.916Z"/>
</mask>
<path d="M59.75 416L59.63 415.84L59.6071 415.857L59.59 415.88L59.75 416ZM233 416L233.141 415.859L233.141 415.859L233 416ZM227.25 513.5L227.07 513.413L227.068 513.417L227.25 513.5ZM208.75 535.5L208.859 535.668L208.859 535.668L208.75 535.5ZM84.25 535.5L84.1415 535.668L84.1415 535.668L84.25 535.5ZM65.5 513.5L65.3186 513.584L65.3193 513.586L65.5 513.5ZM97 500.5L97.1367 500.354L97.1341 500.352L97 500.5ZM117.75 508L117.746 508.2H117.75V508ZM196 500.75L195.866 500.602L195.863 500.604L196 500.75ZM59.2 418.25C59.2 417.46 59.436 416.752 59.91 416.12L59.59 415.88C59.064 416.581 58.8 417.373 58.8 418.25H59.2ZM59.87 416.16C60.502 415.686 61.2099 415.45 62 415.45V415.05C61.1234 415.05 60.3313 415.314 59.63 415.84L59.87 416.16ZM62 415.45H231V415.05H62V415.45ZM231 415.45C231.79 415.45 232.403 415.686 232.859 416.141L233.141 415.859C232.597 415.314 231.876 415.05 231 415.05V415.45ZM232.859 416.141C233.493 416.776 233.8 417.477 233.8 418.25H234.2C234.2 417.356 233.84 416.557 233.141 415.859L232.859 416.141ZM233.8 418.25V480.75H234.2V418.25H233.8ZM233.8 480.75C233.8 493.226 231.554 504.112 227.07 513.413L227.43 513.587C231.946 504.221 234.2 493.274 234.2 480.75H233.8ZM227.068 513.417C222.749 522.886 216.606 530.188 208.642 535.332L208.859 535.668C216.894 530.479 223.084 523.114 227.432 513.583L227.068 513.417ZM208.642 535.332C200.677 540.476 191.466 543.05 181 543.05V543.45C191.534 543.45 200.823 540.858 208.859 535.668L208.642 535.332ZM181 543.05H112V543.45H181V543.05ZM112 543.05C101.534 543.05 92.3229 540.476 84.3585 535.332L84.1415 535.668C92.1771 540.858 101.466 543.45 112 543.45V543.05ZM84.3585 535.332C76.393 530.188 70.1665 522.884 65.6807 513.414L65.3193 513.586C69.8335 523.116 76.107 530.479 84.1415 535.668L84.3585 535.332ZM65.6814 513.416C61.3627 504.114 59.2 493.227 59.2 480.75H58.8C58.8 493.273 60.9707 504.219 65.3186 513.584L65.6814 513.416ZM59.2 480.75V418.25H58.8V480.75H59.2ZM90.5 450.3C90.0525 450.3 89.6801 450.412 89.4211 450.671C89.162 450.93 89.05 451.303 89.05 451.75H89.45C89.45 451.364 89.5463 451.112 89.7039 450.954C89.8615 450.796 90.1142 450.7 90.5 450.7V450.3ZM89.05 451.75V482H89.45V451.75H89.05ZM89.05 482C89.05 489.717 91.6528 495.94 96.8659 500.648L97.1341 500.352C92.0139 495.727 89.45 489.616 89.45 482H89.05ZM96.8634 500.646C102.074 505.52 109.042 508.033 117.746 508.2L117.754 507.8C109.125 507.634 102.26 505.146 97.1366 500.354L96.8634 500.646ZM117.75 508.2H175.25V507.8H117.75V508.2ZM175.25 508.2C183.955 508.2 190.925 505.771 196.137 500.896L195.863 500.604C190.742 505.395 183.878 507.8 175.25 507.8V508.2ZM196.134 500.898C201.349 496.188 203.95 489.797 203.95 481.75H203.55C203.55 489.703 200.984 495.979 195.866 500.602L196.134 500.898ZM203.95 481.75V451.75H203.55V481.75H203.95ZM203.95 451.75C203.95 451.303 203.838 450.93 203.579 450.671C203.32 450.412 202.947 450.3 202.5 450.3V450.7C202.886 450.7 203.138 450.796 203.296 450.954C203.454 451.112 203.55 451.364 203.55 451.75H203.95ZM202.5 450.3H90.5V450.7H202.5V450.3ZM177.25 666.791L177.391 666.932L177.391 666.932L177.25 666.791ZM59.75 678.041L59.8914 677.9L59.8914 677.9L59.75 678.041ZM59.75 644.541L59.63 644.381L59.6071 644.398L59.59 644.421L59.75 644.541ZM153 638.041L152.868 637.891L152.865 637.894L153 638.041ZM153 608.291L153.135 608.144L153.132 608.141L153 608.291ZM59.75 601.791L59.6086 601.932L59.6086 601.932L59.75 601.791ZM59.75 568.291L59.63 568.131L59.6071 568.148L59.59 568.171L59.75 568.291ZM233 568.291L233.141 568.15L233.141 568.15L233 568.291ZM233 601.791L232.88 601.631L232.857 601.648L232.84 601.671L233 601.791ZM174.75 603.291L174.929 603.38L174.929 603.38L174.75 603.291ZM175 604.041L175.115 603.878L175.103 603.869L175.089 603.862L175 604.041ZM189.3 634.541C189.3 647.83 185.232 658.526 177.109 666.65L177.391 666.932C185.601 658.722 189.7 647.919 189.7 634.541H189.3ZM177.109 666.65C168.987 674.771 157.959 678.841 144 678.841V679.241C158.041 679.241 169.18 675.144 177.391 666.932L177.109 666.65ZM144 678.841H62V679.241H144V678.841ZM62 678.841C61.2268 678.841 60.526 678.534 59.8914 677.9L59.6086 678.182C60.3074 678.881 61.1065 679.241 62 679.241V678.841ZM59.8914 677.9C59.4356 677.444 59.2 676.832 59.2 676.041H58.8C58.8 676.917 59.0644 677.638 59.6086 678.182L59.8914 677.9ZM59.2 676.041V646.791H58.8V676.041H59.2ZM59.2 646.791C59.2 646.001 59.436 645.293 59.91 644.661L59.59 644.421C59.064 645.122 58.8 645.914 58.8 646.791H59.2ZM59.87 644.701C60.502 644.227 61.2099 643.991 62 643.991V643.591C61.1234 643.591 60.3313 643.855 59.63 644.381L59.87 644.701ZM62 643.991H136.75V643.591H62V643.991ZM136.75 643.991C143.457 643.991 148.925 642.061 153.135 638.188L152.865 637.894C148.741 641.687 143.376 643.591 136.75 643.591V643.991ZM153.132 638.191C157.347 634.482 159.45 629.508 159.45 623.291H159.05C159.05 629.407 156.986 634.267 152.868 637.891L153.132 638.191ZM159.45 623.291C159.45 617.074 157.347 612.019 153.135 608.144L152.865 608.438C156.986 612.23 159.05 617.175 159.05 623.291H159.45ZM153.132 608.141C148.922 604.436 143.455 602.591 136.75 602.591V602.991C143.378 602.991 148.745 604.813 152.868 608.441L153.132 608.141ZM136.75 602.591H62V602.991H136.75V602.591ZM62 602.591C61.2268 602.591 60.526 602.284 59.8914 601.65L59.6086 601.932C60.3074 602.631 61.1065 602.991 62 602.991V602.591ZM59.8914 601.65C59.4356 601.194 59.2 600.581 59.2 599.791H58.8C58.8 600.667 59.0644 601.388 59.6086 601.932L59.8914 601.65ZM59.2 599.791V570.541H58.8V599.791H59.2ZM59.2 570.541C59.2 569.751 59.436 569.043 59.91 568.411L59.59 568.171C59.064 568.872 58.8 569.664 58.8 570.541H59.2ZM59.87 568.451C60.502 567.977 61.2099 567.741 62 567.741V567.341C61.1234 567.341 60.3313 567.605 59.63 568.131L59.87 568.451ZM62 567.741H231V567.341H62V567.741ZM231 567.741C231.79 567.741 232.403 567.977 232.859 568.432L233.141 568.15C232.597 567.605 231.876 567.341 231 567.341V567.741ZM232.859 568.432C233.493 569.067 233.8 569.768 233.8 570.541H234.2C234.2 569.648 233.84 568.848 233.141 568.15L232.859 568.432ZM233.8 570.541V599.791H234.2V570.541H233.8ZM233.8 599.791C233.8 600.561 233.496 601.169 232.88 601.631L233.12 601.951C233.837 601.413 234.2 600.687 234.2 599.791H233.8ZM232.84 601.671C232.378 602.287 231.77 602.591 231 602.591V602.991C231.896 602.991 232.622 602.628 233.16 601.911L232.84 601.671ZM231 602.591H175.75V602.991H231V602.591ZM175.75 602.591C175.204 602.591 174.783 602.777 174.571 603.202L174.929 603.38C175.05 603.138 175.296 602.991 175.75 602.991V602.591ZM174.571 603.202C174.474 603.396 174.433 603.599 174.498 603.792C174.562 603.985 174.716 604.123 174.911 604.22L175.089 603.862C174.95 603.793 174.896 603.722 174.877 603.665C174.858 603.608 174.859 603.52 174.929 603.38L174.571 603.202ZM174.885 604.204C184.49 610.994 189.3 621.095 189.3 634.541H189.7C189.7 620.987 184.843 610.754 175.115 603.878L174.885 604.204ZM207.5 709.01L207.362 708.865L207.355 708.872L207.5 709.01ZM236 709.01L235.859 709.151L235.859 709.151L236 709.01ZM236 737.51L235.859 737.368L235.859 737.368L236 737.51ZM207.5 737.26L207.641 737.118L207.5 737.26ZM59.75 706.01L59.63 705.85L59.6071 705.867L59.59 705.89L59.75 706.01ZM186.75 706.01L186.891 705.868L186.891 705.868L186.75 706.01ZM186.75 739.51L186.63 739.35L186.607 739.367L186.59 739.39L186.75 739.51ZM59.75 739.51L59.8914 739.368L59.8914 739.368L59.75 739.51ZM202.2 723.26C202.2 717.641 204.016 712.941 207.645 709.148L207.355 708.872C203.651 712.745 201.8 717.545 201.8 723.26H202.2ZM207.638 709.154C211.432 705.526 216.131 703.71 221.75 703.71V703.31C216.036 703.31 211.235 705.16 207.362 708.865L207.638 709.154ZM221.75 703.71C227.538 703.71 232.234 705.527 235.859 709.151L236.141 708.868C232.432 705.159 227.629 703.31 221.75 703.31V703.71ZM235.859 709.151C239.483 712.776 241.3 717.472 241.3 723.26H241.7C241.7 717.381 239.85 712.577 236.141 708.868L235.859 709.151ZM241.3 723.26C241.3 729.047 239.483 733.744 235.859 737.368L236.141 737.651C239.85 733.942 241.7 729.139 241.7 723.26H241.3ZM235.859 737.368C232.234 740.993 227.538 742.81 221.75 742.81V743.21C227.629 743.21 232.432 741.36 236.141 737.651L235.859 737.368ZM221.75 742.81C216.134 742.81 211.435 740.912 207.641 737.118L207.359 737.401C211.231 741.274 216.033 743.21 221.75 743.21V742.81ZM207.641 737.118C204.016 733.493 202.2 728.879 202.2 723.26H201.8C201.8 728.974 203.651 733.693 207.359 737.401L207.641 737.118ZM59.2 708.26C59.2 707.47 59.436 706.762 59.91 706.13L59.59 705.89C59.064 706.591 58.8 707.383 58.8 708.26H59.2ZM59.87 706.17C60.502 705.696 61.2099 705.46 62 705.46V705.06C61.1234 705.06 60.3313 705.324 59.63 705.85L59.87 706.17ZM62 705.46H184.75V705.06H62V705.46ZM184.75 705.46C185.54 705.46 186.153 705.695 186.609 706.151L186.891 705.868C186.347 705.324 185.626 705.06 184.75 705.06V705.46ZM186.609 706.151C187.243 706.786 187.55 707.487 187.55 708.26H187.95C187.95 707.366 187.59 706.567 186.891 705.868L186.609 706.151ZM187.55 708.26V737.51H187.95V708.26H187.55ZM187.55 737.51C187.55 738.28 187.246 738.888 186.63 739.35L186.87 739.67C187.587 739.132 187.95 738.406 187.95 737.51H187.55ZM186.59 739.39C186.128 740.006 185.52 740.31 184.75 740.31V740.71C185.646 740.71 186.372 740.347 186.91 739.63L186.59 739.39ZM184.75 740.31H62V740.71H184.75V740.31ZM62 740.31C61.2268 740.31 60.526 740.003 59.8914 739.368L59.6086 739.651C60.3074 740.35 61.1065 740.71 62 740.71V740.31ZM59.8914 739.368C59.4356 738.912 59.2 738.3 59.2 737.51H58.8C58.8 738.386 59.0644 739.107 59.6086 739.651L59.8914 739.368ZM59.2 737.51V708.26H58.8V737.51H59.2ZM59.75 768.73L59.63 768.57L59.6071 768.588L59.59 768.61L59.75 768.73ZM233 768.73L233.141 768.589L233.141 768.589L233 768.73ZM233 802.23L232.88 802.07L232.857 802.088L232.84 802.11L233 802.23ZM145.75 803.73L145.571 803.641L145.55 803.683V803.73H145.75ZM146.25 804.73L146.109 804.872L146.114 804.877L146.12 804.882L146.25 804.73ZM185.75 838.73L185.891 838.589L185.886 838.584L185.88 838.579L185.75 838.73ZM183.75 877.48L183.626 877.637L183.636 877.645L183.647 877.652L183.75 877.48ZM143.5 845.73L143.624 845.573L143.608 845.561L143.589 845.552L143.5 845.73ZM141.75 845.48L141.687 845.291L141.676 845.294L141.665 845.299L141.75 845.48ZM62.5 882.73L62.4149 882.549L62.4106 882.552L62.5 882.73ZM61.25 846.23L61.1721 846.046L61.1688 846.048L61.25 846.23ZM119.75 821.48L119.828 821.665L119.839 821.659L119.75 821.48ZM120.25 820.48L120.071 820.391L120.05 820.433V820.48H120.25ZM120 819.73L119.875 819.887L119.892 819.9L119.911 819.909L120 819.73ZM100 803.73L100.125 803.574L100.108 803.561L100.089 803.552L100 803.73ZM59.75 802.23L59.6086 802.372L59.6086 802.372L59.75 802.23ZM59.2 770.98C59.2 770.19 59.436 769.483 59.91 768.85L59.59 768.61C59.064 769.312 58.8 770.104 58.8 770.98H59.2ZM59.87 768.89C60.502 768.416 61.2099 768.18 62 768.18V767.78C61.1234 767.78 60.3313 768.045 59.63 768.57L59.87 768.89ZM62 768.18H231V767.78H62V768.18ZM231 768.18C231.79 768.18 232.403 768.416 232.859 768.872L233.141 768.589C232.597 768.045 231.876 767.78 231 767.78V768.18ZM232.859 768.872C233.493 769.506 233.8 770.207 233.8 770.98H234.2C234.2 770.087 233.84 769.288 233.141 768.589L232.859 768.872ZM233.8 770.98V800.23H234.2V770.98H233.8ZM233.8 800.23C233.8 801.001 233.496 801.608 232.88 802.07L233.12 802.39C233.837 801.853 234.2 801.127 234.2 800.23H233.8ZM232.84 802.11C232.378 802.727 231.77 803.03 231 803.03V803.43C231.896 803.43 232.622 803.067 233.16 802.35L232.84 802.11ZM231 803.03H146.75V803.43H231V803.03ZM146.75 803.03C146.204 803.03 145.783 803.217 145.571 803.641L145.929 803.82C146.05 803.578 146.296 803.43 146.75 803.43V803.03ZM145.55 803.73C145.55 804.136 145.753 804.517 146.109 804.872L146.391 804.589C146.08 804.278 145.95 803.992 145.95 803.73H145.55ZM146.12 804.882L185.62 838.882L185.88 838.579L146.38 804.579L146.12 804.882ZM185.609 838.872C186.747 840.01 187.3 841.212 187.3 842.48H187.7C187.7 841.082 187.086 839.784 185.891 838.589L185.609 838.872ZM187.3 842.48V875.73H187.7V842.48H187.3ZM187.3 875.73C187.3 876.547 187.156 877.123 186.899 877.491C186.65 877.846 186.279 878.03 185.75 878.03V878.43C186.388 878.43 186.891 878.199 187.226 877.72C187.552 877.255 187.7 876.581 187.7 875.73H187.3ZM185.75 878.03C185.307 878.03 184.679 877.805 183.853 877.309L183.647 877.652C184.487 878.156 185.193 878.43 185.75 878.43V878.03ZM183.874 877.323L143.624 845.573L143.376 845.887L183.626 877.637L183.874 877.323ZM143.589 845.552C142.895 845.204 142.255 845.101 141.687 845.291L141.813 845.67C142.245 845.526 142.771 845.59 143.411 845.909L143.589 845.552ZM141.665 845.299L62.4149 882.549L62.5851 882.911L141.835 845.661L141.665 845.299ZM62.4106 882.552C61.7455 882.884 61.2824 883.03 61 883.03V883.43C61.3843 883.43 61.9212 883.243 62.5894 882.909L62.4106 882.552ZM61 883.03C60.3845 883.03 59.9505 882.822 59.6617 882.425C59.3644 882.016 59.2 881.379 59.2 880.48H58.8C58.8 881.415 58.9689 882.153 59.3383 882.661C59.7162 883.18 60.2822 883.43 61 883.43V883.03ZM59.2 880.48V849.73H58.8V880.48H59.2ZM59.2 849.73C59.2 848.928 59.3803 848.259 59.7307 847.714C60.081 847.169 60.6102 846.734 61.3312 846.413L61.1688 846.048C60.3898 846.394 59.794 846.876 59.3943 847.497C58.9947 848.119 58.8 848.867 58.8 849.73H59.2ZM61.3279 846.415L119.828 821.665L119.672 821.296L61.1721 846.046L61.3279 846.415ZM119.839 821.659C120.264 821.447 120.45 821.026 120.45 820.48H120.05C120.05 820.935 119.903 821.18 119.661 821.302L119.839 821.659ZM120.429 820.57C120.526 820.376 120.567 820.173 120.502 819.98C120.438 819.787 120.284 819.649 120.089 819.552L119.911 819.909C120.05 819.979 120.104 820.049 120.123 820.106C120.142 820.163 120.141 820.252 120.071 820.391L120.429 820.57ZM120.125 819.574L100.125 803.574L99.8751 803.887L119.875 819.887L120.125 819.574ZM100.089 803.552C99.4212 803.217 98.8843 803.03 98.5 803.03V803.43C98.7824 803.43 99.2455 803.577 99.9106 803.909L100.089 803.552ZM98.5 803.03H62V803.43H98.5V803.03ZM62 803.03C61.2268 803.03 60.526 802.724 59.8914 802.089L59.6086 802.372C60.3074 803.071 61.1065 803.43 62 803.43V803.03ZM59.8914 802.089C59.4356 801.633 59.2 801.021 59.2 800.23H58.8C58.8 801.107 59.0644 801.828 59.6086 802.372L59.8914 802.089ZM59.2 800.23V770.98H58.8V800.23H59.2ZM183.75 975.916L183.568 975.834L183.566 975.837L183.75 975.916ZM168.5 995.666L168.383 995.504L168.381 995.506L168.5 995.666ZM59.75 1001.92L59.8914 1001.77L59.8914 1001.77L59.75 1001.92ZM59.75 968.416L59.63 968.256L59.6071 968.273L59.59 968.296L59.75 968.416ZM71.25 967.166L71.4289 967.255L71.4289 967.255L71.25 967.166ZM70.75 966.166L70.6284 966.325L70.6391 966.332L70.75 966.166ZM66.5 900.916L66.6568 901.04L66.6568 901.04L66.5 900.916ZM124.25 902.416L124.092 902.539L124.094 902.541L124.25 902.416ZM154.5 962.666L154.355 962.528L154.351 962.532L154.5 962.666ZM156.5 934.666L156.677 934.573L156.675 934.57L156.5 934.666ZM148.75 928.166L148.807 927.974L148.803 927.973L148.75 928.166ZM146.25 924.916L146.052 924.89L146.051 924.896L146.25 924.916ZM150.25 894.666L150.053 894.633L150.052 894.64L150.25 894.666ZM152.5 891.916L152.472 892.114L152.481 892.115L152.5 891.916ZM171.5 900.166L171.632 900.016L171.63 900.014L171.5 900.166ZM184.75 919.666L184.936 919.594L184.936 919.592L184.75 919.666ZM89 960.166L89.1587 960.044L89 960.166ZM109.75 930.666L109.917 930.557L109.915 930.554L109.75 930.666ZM87 929.166L86.8469 929.037L86.843 929.042L87 929.166ZM189.3 946.916C189.3 957.726 187.388 967.363 183.568 975.834L183.932 975.998C187.779 967.469 189.7 957.773 189.7 946.916H189.3ZM183.566 975.837C179.912 984.309 174.85 990.861 168.383 995.504L168.617 995.828C175.15 991.138 180.255 984.523 183.934 975.995L183.566 975.837ZM168.381 995.506C161.915 1000.31 154.706 1002.72 146.75 1002.72V1003.12C154.794 1003.12 162.085 1000.69 168.619 995.827L168.381 995.506ZM146.75 1002.72H62V1003.12H146.75V1002.72ZM62 1002.72C61.2268 1002.72 60.526 1002.41 59.8914 1001.77L59.6086 1002.06C60.3074 1002.76 61.1065 1003.12 62 1003.12V1002.72ZM59.8914 1001.77C59.4356 1001.32 59.2 1000.71 59.2 999.916H58.8C58.8 1000.79 59.0644 1001.51 59.6086 1002.06L59.8914 1001.77ZM59.2 999.916V970.666H58.8V999.916H59.2ZM59.2 970.666C59.2 969.876 59.436 969.168 59.91 968.536L59.59 968.296C59.064 968.997 58.8 969.789 58.8 970.666H59.2ZM59.87 968.576C60.502 968.102 61.2099 967.866 62 967.866V967.466C61.1234 967.466 60.3313 967.73 59.63 968.256L59.87 968.576ZM62 967.866H70.25V967.466H62V967.866ZM70.25 967.866C70.7956 967.866 71.2167 967.68 71.4289 967.255L71.0711 967.077C70.95 967.319 70.7044 967.466 70.25 967.466V967.866ZM71.4289 967.255C71.5404 967.032 71.5404 966.8 71.4289 966.577C71.3232 966.365 71.124 966.175 70.8609 966L70.6391 966.332C70.876 966.49 71.0101 966.633 71.0711 966.755C71.1263 966.866 71.1263 966.966 71.0711 967.077L71.4289 967.255ZM70.8714 966.007C61.7701 959.057 57.2 947.877 57.2 932.416H56.8C56.8 947.955 61.3965 959.275 70.6286 966.325L70.8714 966.007ZM57.2 932.416C57.2 919.449 60.3583 908.996 66.6568 901.04L66.3432 900.792C59.975 908.836 56.8 919.383 56.8 932.416H57.2ZM66.6568 901.04C72.9442 893.098 82.2136 889.116 94.5 889.116V888.716C82.1197 888.716 72.7225 892.734 66.3432 900.792L66.6568 901.04ZM94.5 889.116C107.28 889.116 117.135 893.594 124.092 902.539L124.408 902.293C117.365 893.238 107.386 888.716 94.5 888.716V889.116ZM124.094 902.541C131.222 911.492 134.8 924.275 134.8 940.916H135.2C135.2 924.224 131.612 911.34 124.406 902.291L124.094 902.541ZM134.8 940.916V966.416H135.2V940.916H134.8ZM134.8 966.416C134.8 966.864 134.912 967.236 135.171 967.495C135.43 967.754 135.803 967.866 136.25 967.866V967.466C135.864 967.466 135.612 967.37 135.454 967.212C135.296 967.054 135.2 966.802 135.2 966.416H134.8ZM136.25 967.866H141.75V967.466H136.25V967.866ZM141.75 967.866C147.293 967.866 151.602 966.185 154.649 962.8L154.351 962.532C151.398 965.814 147.207 967.466 141.75 967.466V967.866ZM154.645 962.804C157.86 959.419 159.45 954.361 159.45 947.666H159.05C159.05 954.304 157.473 959.246 154.355 962.528L154.645 962.804ZM159.45 947.666C159.45 942.477 158.529 938.109 156.677 934.573L156.323 934.759C158.137 938.223 159.05 942.522 159.05 947.666H159.45ZM156.675 934.57C154.819 931.195 152.196 928.991 148.807 927.974L148.693 928.358C151.971 929.341 154.514 931.47 156.325 934.762L156.675 934.57ZM148.803 927.973C147.912 927.73 147.29 927.352 146.909 926.857C146.53 926.364 146.37 925.731 146.449 924.936L146.051 924.896C145.964 925.768 146.137 926.51 146.591 927.1C147.043 927.688 147.755 928.102 148.697 928.359L148.803 927.973ZM146.448 924.942L150.448 894.692L150.052 894.64L146.052 924.89L146.448 924.942ZM150.447 894.699C150.612 893.712 150.875 893.024 151.217 892.605C151.548 892.201 151.958 892.041 152.472 892.114L152.528 891.718C151.875 891.625 151.327 891.84 150.908 892.352C150.5 892.85 150.222 893.62 150.053 894.633L150.447 894.699ZM152.481 892.115C159.438 892.778 165.733 895.51 171.37 900.318L171.63 900.014C165.934 895.156 159.562 892.388 152.519 891.717L152.481 892.115ZM171.368 900.316C177.008 905.292 181.407 911.765 184.564 919.74L184.936 919.592C181.759 911.567 177.326 905.04 171.632 900.016L171.368 900.316ZM184.564 919.738C187.72 927.879 189.3 936.937 189.3 946.916H189.7C189.7 936.895 188.113 927.786 184.936 919.594L184.564 919.738ZM83.05 941.916C83.05 949.12 84.9776 955.248 88.8413 960.288L89.1587 960.044C85.3558 955.084 83.45 949.045 83.45 941.916H83.05ZM88.8413 960.288C92.7103 965.334 97.6843 967.866 103.75 967.866V967.466C97.8157 967.466 92.9564 964.998 89.1587 960.044L88.8413 960.288ZM103.75 967.866H112.75V967.466H103.75V967.866ZM112.75 967.866C113.197 967.866 113.57 967.754 113.829 967.495C114.088 967.236 114.2 966.864 114.2 966.416H113.8C113.8 966.802 113.704 967.054 113.546 967.212C113.388 967.37 113.136 967.466 112.75 967.466V967.866ZM114.2 966.416V948.416H113.8V966.416H114.2ZM114.2 948.416C114.2 940.894 112.78 934.934 109.917 930.557L109.583 930.775C112.387 935.065 113.8 940.938 113.8 948.416H114.2ZM109.915 930.554C107.044 926.33 102.981 924.216 97.75 924.216V924.616C102.852 924.616 106.79 926.668 109.585 930.778L109.915 930.554ZM97.75 924.216C93.1968 924.216 89.5553 925.821 86.847 929.037L87.153 929.295C89.7781 926.178 93.3032 924.616 97.75 924.616V924.216ZM86.843 929.042C84.3073 932.254 83.05 936.552 83.05 941.916H83.45C83.45 936.613 84.6927 932.411 87.157 929.29L86.843 929.042Z" fill="white" mask="url(#path-3-outside-2_110_5)"/>
<g filter="url(#filter0_d_110_5)">
<path d="M1400 146C1174 173.5 1247 -136 1247 -136H1997V555C1997 555 1881.5 232 1590.5 393.5C1299.5 555 1626 118.5 1400 146Z" fill="url(#paint1_linear_110_5)"/>
</g>
<circle cy="-35" r="250" fill="url(#paint2_linear_110_5)"/>
<path d="M1897.91 851L2095.02 882.012L2124 1230H1897.91L1238 1147.5L1565 1043.27L1624.64 882.012L1842.98 938.487L1897.91 851Z" fill="url(#paint3_linear_110_5)"/>
</g>
<defs>
<filter id="filter0_d_110_5" x="1229.75" y="-138" width="773.244" height="703" filterUnits="userSpaceOnUse" color-interpolation-filters="sRGB">
<feFlood flood-opacity="0" result="BackgroundImageFix"/>
<feColorMatrix in="SourceAlpha" type="matrix" values="0 0 0 0 0 0 0 0 0 0 0 0 0 0 0 0 0 0 127 0" result="hardAlpha"/>
<feOffset dy="4"/>
<feGaussianBlur stdDeviation="3"/>
<feComposite in2="hardAlpha" operator="out"/>
<feColorMatrix type="matrix" values="0 0 0 0 0 0 0 0 0 0 0 0 0 0 0 0 0 0 0.5 0"/>
<feBlend mode="normal" in2="BackgroundImageFix" result="effect1_dropShadow_110_5"/>
<feBlend mode="normal" in="SourceGraphic" in2="effect1_dropShadow_110_5" result="shape"/>
</filter>
<linearGradient id="paint0_linear_110_5" x1="1920" y1="-0.000101725" x2="6.88434e-05" y2="1080" gradientUnits="userSpaceOnUse">
<stop stop-color="#DFF2EB"/>
<stop offset="1" stop-color="#4A628A"/>
</linearGradient>
<linearGradient id="paint1_linear_110_5" x1="2768" y1="-422.5" x2="1166" y2="588.5" gradientUnits="userSpaceOnUse">
<stop stop-color="#9B7EBD"/>
<stop offset="1" stop-color="#3B1E54"/>
</linearGradient>
<linearGradient id="paint2_linear_110_5" x1="7.35521e-06" y1="1.41069e-05" x2="171.5" y2="145" gradientUnits="userSpaceOnUse">
<stop stop-color="#FFF1DB"/>
<stop offset="1" stop-color="#D4BDAC"/>
</linearGradient>
<linearGradient id="paint3_linear_110_5" x1="1705" y1="921" x2="1961" y2="1132" gradientUnits="userSpaceOnUse">
<stop stop-color="#091057"/>
<stop offset="1" stop-color="#024CAA"/>
</linearGradient>
<clipPath id="clip0_110_5">
<rect width="1920" height="1080" fill="white"/>
</clipPath>
</defs>
</svg>
