<svg width="648" height="1136" viewBox="0 0 648 1136" fill="none" xmlns="http://www.w3.org/2000/svg">
<g clip-path="url(#clip0_116_21)">
<rect width="648" height="1136" fill="url(#paint0_linear_116_21)"/>
<mask id="path-1-outside-1_116_21" maskUnits="userSpaceOnUse" x="-11" y="259" width="387" height="112" fill="black">
<rect fill="white" x="-11" y="259" width="387" height="112"/>
<path d="M62.9 280.35C62.9 280.85 62.7 281.3 62.3 281.7C62 282 61.6 282.15 61.1 282.15H12.05C11.55 282.15 11.3 282.4 11.3 282.9V306.15C11.3 306.65 11.55 306.9 12.05 306.9H44.3C44.8 306.9 45.2 307.1 45.5 307.5C45.9 307.8 46.1 308.2 46.1 308.7V323.25C46.1 323.75 45.9 324.2 45.5 324.6C45.2 324.9 44.8 325.05 44.3 325.05H12.05C11.55 325.05 11.3 325.3 11.3 325.8V367.2C11.3 367.7 11.1 368.15 10.7 368.55C10.4 368.85 10 369 9.5 369H-8.05C-8.55 369 -9 368.85 -9.4 368.55C-9.7 368.15 -9.85 367.7 -9.85 367.2V265.8C-9.85 265.3 -9.7 264.9 -9.4 264.6C-9 264.2 -8.55 264 -8.05 264H61.1C61.6 264 62 264.2 62.3 264.6C62.7 264.9 62.9 265.3 62.9 265.8V280.35ZM96.1613 290.7C102.661 290.7 108.461 291.85 113.561 294.15C118.661 296.35 122.611 299.4 125.411 303.3C128.311 307.2 129.761 311.55 129.761 316.35V367.2C129.761 367.7 129.561 368.15 129.161 368.55C128.861 368.85 128.461 369 127.961 369H110.411C109.911 369 109.461 368.85 109.061 368.55C108.761 368.15 108.611 367.7 108.611 367.2V362.25C108.611 361.95 108.511 361.75 108.311 361.65C108.111 361.55 107.911 361.65 107.711 361.95C103.511 367.45 96.7613 370.2 87.4613 370.2C79.6613 370.2 73.3613 368.3 68.5613 364.5C63.7613 360.7 61.3613 355.1 61.3613 347.7C61.3613 340 64.0613 334.05 69.4613 329.85C74.8613 325.55 82.5613 323.4 92.5613 323.4H107.861C108.361 323.4 108.611 323.15 108.611 322.65V319.35C108.611 316.05 107.611 313.5 105.611 311.7C103.611 309.8 100.611 308.85 96.6113 308.85C93.5113 308.85 90.9113 309.4 88.8113 310.5C86.8113 311.6 85.5113 313.15 84.9113 315.15C84.6113 316.25 83.9613 316.75 82.9613 316.65L64.8113 314.25C63.6113 314.05 63.0613 313.6 63.1613 312.9C63.5613 308.7 65.2113 304.9 68.1113 301.5C71.1113 298.1 75.0113 295.45 79.8113 293.55C84.7113 291.65 90.1613 290.7 96.1613 290.7ZM93.1613 354.45C97.4613 354.45 101.111 353.3 104.111 351C107.111 348.7 108.611 345.75 108.611 342.15V336.75C108.611 336.25 108.361 336 107.861 336H97.0613C92.5613 336 89.0113 336.85 86.4113 338.55C83.9113 340.25 82.6613 342.65 82.6613 345.75C82.6613 348.45 83.6113 350.6 85.5113 352.2C87.4113 353.7 89.9613 354.45 93.1613 354.45ZM184.859 290.7C192.859 290.7 199.309 293.15 204.209 298.05C209.109 302.95 211.559 309.6 211.559 318V367.2C211.559 367.7 211.359 368.15 210.959 368.55C210.659 368.85 210.259 369 209.759 369H192.209C191.709 369 191.259 368.85 190.859 368.55C190.559 368.15 190.409 367.7 190.409 367.2V322.35C190.409 318.35 189.259 315.1 186.959 312.6C184.759 310.1 181.809 308.85 178.109 308.85C174.409 308.85 171.409 310.1 169.109 312.6C166.909 315.1 165.809 318.35 165.809 322.35V367.2C165.809 367.7 165.609 368.15 165.209 368.55C164.909 368.85 164.509 369 164.009 369H146.459C145.959 369 145.509 368.85 145.109 368.55C144.809 368.15 144.659 367.7 144.659 367.2V265.8C144.659 265.3 144.809 264.9 145.109 264.6C145.509 264.2 145.959 264 146.459 264H164.009C164.509 264 164.909 264.2 165.209 264.6C165.609 264.9 165.809 265.3 165.809 265.8V298.95C165.809 299.25 165.909 299.45 166.109 299.55C166.309 299.65 166.459 299.6 166.559 299.4C170.659 293.6 176.759 290.7 184.859 290.7ZM312.191 290.7C319.991 290.7 326.091 293.05 330.491 297.75C334.891 302.45 337.091 309.05 337.091 317.55V367.2C337.091 367.7 336.891 368.15 336.491 368.55C336.191 368.85 335.791 369 335.291 369H317.741C317.241 369 316.791 368.85 316.391 368.55C316.091 368.15 315.941 367.7 315.941 367.2V322.2C315.941 318.1 314.891 314.85 312.791 312.45C310.691 310.05 307.891 308.85 304.391 308.85C300.891 308.85 298.041 310.05 295.841 312.45C293.641 314.85 292.541 318.05 292.541 322.05V367.2C292.541 367.7 292.341 368.15 291.941 368.55C291.641 368.85 291.241 369 290.741 369H273.341C272.841 369 272.391 368.85 271.991 368.55C271.691 368.15 271.541 367.7 271.541 367.2V322.2C271.541 318.2 270.441 315 268.241 312.6C266.041 310.1 263.191 308.85 259.691 308.85C256.491 308.85 253.791 309.8 251.591 311.7C249.491 313.6 248.241 316.25 247.841 319.65V367.2C247.841 367.7 247.641 368.15 247.241 368.55C246.941 368.85 246.541 369 246.041 369H228.491C227.991 369 227.541 368.85 227.141 368.55C226.841 368.15 226.691 367.7 226.691 367.2V293.7C226.691 293.2 226.841 292.8 227.141 292.5C227.541 292.1 227.991 291.9 228.491 291.9H246.041C246.541 291.9 246.941 292.1 247.241 292.5C247.641 292.8 247.841 293.2 247.841 293.7V299.55C247.841 299.85 247.941 300.05 248.141 300.15C248.341 300.25 248.541 300.15 248.741 299.85C252.841 293.75 259.191 290.7 267.791 290.7C272.791 290.7 277.141 291.75 280.841 293.85C284.641 295.95 287.541 298.95 289.541 302.85C289.841 303.45 290.191 303.45 290.591 302.85C292.791 298.75 295.741 295.7 299.441 293.7C303.241 291.7 307.491 290.7 312.191 290.7ZM363.335 283.2C359.935 283.2 357.085 282.1 354.785 279.9C352.585 277.6 351.485 274.75 351.485 271.35C351.485 267.85 352.585 265 354.785 262.8C356.985 260.6 359.835 259.5 363.335 259.5C366.835 259.5 369.685 260.6 371.885 262.8C374.085 265 375.185 267.85 375.185 271.35C375.185 274.75 374.035 277.6 371.735 279.9C369.535 282.1 366.735 283.2 363.335 283.2ZM354.335 369C353.835 369 353.385 368.85 352.985 368.55C352.685 368.15 352.535 367.7 352.535 367.2V293.55C352.535 293.05 352.685 292.65 352.985 292.35C353.385 291.95 353.835 291.75 354.335 291.75H371.885C372.385 291.75 372.785 291.95 373.085 292.35C373.485 292.65 373.685 293.05 373.685 293.55V367.2C373.685 367.7 373.485 368.15 373.085 368.55C372.785 368.85 372.385 369 371.885 369H354.335Z"/>
</mask>
<path d="M62.3 281.7L62.4414 281.841L62.4414 281.841L62.3 281.7ZM45.5 307.5L45.34 307.62L45.3571 307.643L45.38 307.66L45.5 307.5ZM10.7 368.55L10.8414 368.691L10.8414 368.691L10.7 368.55ZM-9.4 368.55L-9.56 368.67L-9.54286 368.693L-9.52 368.71L-9.4 368.55ZM-9.4 264.6L-9.54142 264.459L-9.54142 264.459L-9.4 264.6ZM62.3 264.6L62.14 264.72L62.1572 264.743L62.18 264.76L62.3 264.6ZM62.7 280.35C62.7 280.79 62.5264 281.191 62.1586 281.559L62.4414 281.841C62.8736 281.409 63.1 280.91 63.1 280.35H62.7ZM62.1586 281.559C61.9027 281.814 61.5572 281.95 61.1 281.95V282.35C61.6429 282.35 62.0973 282.186 62.4414 281.841L62.1586 281.559ZM61.1 281.95H12.05V282.35H61.1V281.95ZM12.05 281.95C11.7692 281.95 11.5218 282.02 11.3461 282.196C11.1703 282.372 11.1 282.619 11.1 282.9H11.5C11.5 282.681 11.5547 282.553 11.6289 282.479C11.7032 282.405 11.8308 282.35 12.05 282.35V281.95ZM11.1 282.9V306.15H11.5V282.9H11.1ZM11.1 306.15C11.1 306.431 11.1703 306.678 11.3461 306.854C11.5218 307.03 11.7692 307.1 12.05 307.1V306.7C11.8308 306.7 11.7032 306.645 11.6289 306.571C11.5547 306.497 11.5 306.369 11.5 306.15H11.1ZM12.05 307.1H44.3V306.7H12.05V307.1ZM44.3 307.1C44.7371 307.1 45.0778 307.27 45.34 307.62L45.66 307.38C45.3222 306.93 44.863 306.7 44.3 306.7V307.1ZM45.38 307.66C45.7296 307.922 45.9 308.263 45.9 308.7H46.3C46.3 308.137 46.0704 307.678 45.62 307.34L45.38 307.66ZM45.9 308.7V323.25H46.3V308.7H45.9ZM45.9 323.25C45.9 323.69 45.7264 324.091 45.3586 324.459L45.6414 324.741C46.0736 324.309 46.3 323.81 46.3 323.25H45.9ZM45.3586 324.459C45.1027 324.714 44.7572 324.85 44.3 324.85V325.25C44.8429 325.25 45.2973 325.086 45.6414 324.741L45.3586 324.459ZM44.3 324.85H12.05V325.25H44.3V324.85ZM12.05 324.85C11.7692 324.85 11.5218 324.92 11.3461 325.096C11.1703 325.272 11.1 325.519 11.1 325.8H11.5C11.5 325.581 11.5547 325.453 11.6289 325.379C11.7032 325.305 11.8308 325.25 12.05 325.25V324.85ZM11.1 325.8V367.2H11.5V325.8H11.1ZM11.1 367.2C11.1 367.64 10.9264 368.041 10.5586 368.409L10.8414 368.691C11.2736 368.259 11.5 367.76 11.5 367.2H11.1ZM10.5586 368.409C10.3027 368.664 9.95715 368.8 9.5 368.8V369.2C10.0429 369.2 10.4973 369.036 10.8414 368.691L10.5586 368.409ZM9.5 368.8H-8.05V369.2H9.5V368.8ZM-8.05 368.8C-8.50673 368.8 -8.91462 368.664 -9.28 368.39L-9.52 368.71C-9.08538 369.036 -8.59327 369.2 -8.05 369.2V368.8ZM-9.24 368.43C-9.51403 368.065 -9.65 367.657 -9.65 367.2H-10.05C-10.05 367.743 -9.88596 368.235 -9.56 368.67L-9.24 368.43ZM-9.65 367.2V265.8H-10.05V367.2H-9.65ZM-9.65 265.8C-9.65 265.343 -9.51443 264.997 -9.25858 264.741L-9.54142 264.459C-9.88557 264.803 -10.05 265.257 -10.05 265.8H-9.65ZM-9.25858 264.741C-8.89072 264.374 -8.48982 264.2 -8.05 264.2V263.8C-8.61018 263.8 -9.10928 264.026 -9.54142 264.459L-9.25858 264.741ZM-8.05 264.2H61.1V263.8H-8.05V264.2ZM61.1 264.2C61.5371 264.2 61.8778 264.37 62.14 264.72L62.46 264.48C62.1222 264.03 61.663 263.8 61.1 263.8V264.2ZM62.18 264.76C62.5296 265.022 62.7 265.363 62.7 265.8H63.1C63.1 265.237 62.8704 264.778 62.42 264.44L62.18 264.76ZM62.7 265.8V280.35H63.1V265.8H62.7ZM113.561 294.15L113.479 294.332L113.482 294.334L113.561 294.15ZM125.411 303.3L125.249 303.417L125.251 303.419L125.411 303.3ZM129.161 368.55L129.02 368.409L129.02 368.409L129.161 368.55ZM109.061 368.55L108.901 368.67L108.918 368.693L108.941 368.71L109.061 368.55ZM108.311 361.65L108.401 361.471L108.401 361.471L108.311 361.65ZM107.711 361.95L107.871 362.072L107.878 362.061L107.711 361.95ZM68.5613 364.5L68.6855 364.343L68.6855 364.343L68.5613 364.5ZM69.4613 329.85L69.5841 330.008L69.5859 330.006L69.4613 329.85ZM105.611 311.7L105.474 311.845L105.478 311.849L105.611 311.7ZM88.8113 310.5L88.7185 310.323L88.7149 310.325L88.8113 310.5ZM84.9113 315.15L84.7197 315.093L84.7184 315.097L84.9113 315.15ZM82.9613 316.65L82.9351 316.848L82.9414 316.849L82.9613 316.65ZM64.8113 314.25L64.7784 314.447L64.7851 314.448L64.8113 314.25ZM63.1613 312.9L63.3595 312.928L63.3604 312.919L63.1613 312.9ZM68.1113 301.5L67.9613 301.368L67.9592 301.37L68.1113 301.5ZM79.8113 293.55L79.739 293.364L79.7377 293.364L79.8113 293.55ZM86.4113 338.55L86.3019 338.383L86.2989 338.385L86.4113 338.55ZM85.5113 352.2L85.3824 352.353L85.3874 352.357L85.5113 352.2ZM96.1613 290.9C102.638 290.9 108.409 292.046 113.479 294.332L113.644 293.968C108.514 291.654 102.685 290.5 96.1613 290.5V290.9ZM113.482 294.334C118.554 296.522 122.473 299.55 125.249 303.417L125.574 303.183C122.75 299.25 118.769 296.178 113.641 293.966L113.482 294.334ZM125.251 303.419C128.126 307.285 129.561 311.594 129.561 316.35H129.961C129.961 311.506 128.497 307.115 125.572 303.181L125.251 303.419ZM129.561 316.35V367.2H129.961V316.35H129.561ZM129.561 367.2C129.561 367.64 129.388 368.041 129.02 368.409L129.303 368.691C129.735 368.259 129.961 367.76 129.961 367.2H129.561ZM129.02 368.409C128.764 368.664 128.418 368.8 127.961 368.8V369.2C128.504 369.2 128.959 369.036 129.303 368.691L129.02 368.409ZM127.961 368.8H110.411V369.2H127.961V368.8ZM110.411 368.8C109.955 368.8 109.547 368.664 109.181 368.39L108.941 368.71C109.376 369.036 109.868 369.2 110.411 369.2V368.8ZM109.221 368.43C108.947 368.065 108.811 367.657 108.811 367.2H108.411C108.411 367.743 108.575 368.235 108.901 368.67L109.221 368.43ZM108.811 367.2V362.25H108.411V367.2H108.811ZM108.811 362.25C108.811 361.904 108.692 361.617 108.401 361.471L108.222 361.829C108.331 361.883 108.411 361.996 108.411 362.25H108.811ZM108.401 361.471C108.244 361.393 108.078 361.393 107.922 361.471C107.777 361.543 107.654 361.676 107.545 361.839L107.878 362.061C107.969 361.924 108.045 361.857 108.101 361.829C108.144 361.807 108.178 361.807 108.222 361.829L108.401 361.471ZM107.552 361.829C103.402 367.263 96.7221 370 87.4613 370V370.4C96.8006 370.4 103.62 367.637 107.87 362.071L107.552 361.829ZM87.4613 370C79.6939 370 73.4414 368.108 68.6855 364.343L68.4372 364.657C73.2812 368.492 79.6288 370.4 87.4613 370.4V370ZM68.6855 364.343C63.9435 360.589 61.5613 355.053 61.5613 347.7H61.1613C61.1613 355.147 63.5792 360.811 68.4372 364.657L68.6855 364.343ZM61.5613 347.7C61.5613 340.053 64.2394 334.165 69.5841 330.008L69.3385 329.692C63.8833 333.935 61.1613 339.947 61.1613 347.7H61.5613ZM69.5859 330.006C74.9377 325.745 82.5869 323.6 92.5613 323.6V323.2C82.5358 323.2 74.785 325.355 69.3367 329.694L69.5859 330.006ZM92.5613 323.6H107.861V323.2H92.5613V323.6ZM107.861 323.6C108.142 323.6 108.39 323.53 108.565 323.354C108.741 323.178 108.811 322.931 108.811 322.65H108.411C108.411 322.869 108.357 322.997 108.282 323.071C108.208 323.145 108.081 323.2 107.861 323.2V323.6ZM108.811 322.65V319.35H108.411V322.65H108.811ZM108.811 319.35C108.811 316.007 107.797 313.398 105.745 311.551L105.478 311.849C107.426 313.602 108.411 316.093 108.411 319.35H108.811ZM105.749 311.555C103.698 309.607 100.64 308.65 96.6113 308.65V309.05C100.583 309.05 103.525 309.993 105.474 311.845L105.749 311.555ZM96.6113 308.65C93.4886 308.65 90.8546 309.204 88.7185 310.323L88.9041 310.677C90.9681 309.596 93.5341 309.05 96.6113 309.05V308.65ZM88.7149 310.325C86.6737 311.447 85.3363 313.037 84.7198 315.093L85.1029 315.207C85.6864 313.263 86.949 311.753 88.9077 310.675L88.7149 310.325ZM84.7184 315.097C84.5755 315.621 84.3561 315.977 84.0769 316.191C83.801 316.404 83.4426 316.497 82.9812 316.451L82.9414 316.849C83.4801 316.903 83.9467 316.796 84.3208 316.509C84.6916 316.223 84.9472 315.779 85.1043 315.203L84.7184 315.097ZM82.9875 316.452L64.8375 314.052L64.7851 314.448L82.9351 316.848L82.9875 316.452ZM64.8442 314.053C64.2572 313.955 63.8605 313.8 63.6255 313.608C63.4043 313.427 63.3193 313.209 63.3593 312.928L62.9633 312.872C62.9034 313.291 63.0433 313.648 63.3722 313.917C63.6871 314.175 64.1655 314.345 64.7784 314.447L64.8442 314.053ZM63.3604 312.919C63.7563 308.762 65.3885 305 68.2635 301.63L67.9592 301.37C65.0342 304.799 63.3664 308.638 62.9622 312.881L63.3604 312.919ZM68.2613 301.632C71.2377 298.259 75.1102 295.626 79.8849 293.736L79.7377 293.364C74.9125 295.274 70.985 297.941 67.9614 301.368L68.2613 301.632ZM79.8836 293.736C84.7576 291.847 90.1826 290.9 96.1613 290.9V290.5C90.1401 290.5 84.6651 291.453 79.739 293.364L79.8836 293.736ZM93.1613 354.65C97.499 354.65 101.193 353.489 104.233 351.159L103.99 350.841C101.029 353.111 97.4237 354.25 93.1613 354.25V354.65ZM104.233 351.159C107.28 348.823 108.811 345.816 108.811 342.15H108.411C108.411 345.684 106.943 348.577 103.99 350.841L104.233 351.159ZM108.811 342.15V336.75H108.411V342.15H108.811ZM108.811 336.75C108.811 336.469 108.741 336.222 108.565 336.046C108.39 335.87 108.142 335.8 107.861 335.8V336.2C108.081 336.2 108.208 336.255 108.282 336.329C108.357 336.403 108.411 336.531 108.411 336.75H108.811ZM107.861 335.8H97.0613V336.2H107.861V335.8ZM97.0613 335.8C92.539 335.8 88.9459 336.654 86.3019 338.383L86.5208 338.717C89.0767 337.046 92.5837 336.2 97.0613 336.2V335.8ZM86.2989 338.385C83.7425 340.123 82.4613 342.586 82.4613 345.75H82.8613C82.8613 342.714 84.0802 340.377 86.5238 338.715L86.2989 338.385ZM82.4613 345.75C82.4613 348.503 83.4331 350.711 85.3825 352.353L85.6402 352.047C83.7896 350.489 82.8613 348.397 82.8613 345.75H82.4613ZM85.3874 352.357C87.3326 353.893 89.9309 354.65 93.1613 354.65V354.25C89.9918 354.25 87.49 353.507 85.6353 352.043L85.3874 352.357ZM204.209 298.05L204.351 297.909L204.351 297.909L204.209 298.05ZM210.959 368.55L210.818 368.409L210.818 368.409L210.959 368.55ZM190.859 368.55L190.699 368.67L190.717 368.693L190.739 368.71L190.859 368.55ZM186.959 312.6L186.809 312.732L186.812 312.735L186.959 312.6ZM169.109 312.6L168.962 312.465L168.959 312.468L169.109 312.6ZM165.209 368.55L165.351 368.691L165.351 368.691L165.209 368.55ZM145.109 368.55L144.949 368.67L144.967 368.693L144.989 368.71L145.109 368.55ZM145.109 264.6L144.968 264.459L144.968 264.459L145.109 264.6ZM165.209 264.6L165.049 264.72L165.067 264.743L165.089 264.76L165.209 264.6ZM166.109 299.55L166.199 299.371L166.199 299.371L166.109 299.55ZM166.559 299.4L166.396 299.285L166.387 299.297L166.38 299.311L166.559 299.4ZM184.859 290.9C192.815 290.9 199.211 293.335 204.068 298.191L204.351 297.909C199.407 292.965 192.904 290.5 184.859 290.5V290.9ZM204.068 298.191C208.923 303.046 211.359 309.641 211.359 318H211.759C211.759 309.559 209.296 302.854 204.351 297.909L204.068 298.191ZM211.359 318V367.2H211.759V318H211.359ZM211.359 367.2C211.359 367.64 211.186 368.041 210.818 368.409L211.101 368.691C211.533 368.259 211.759 367.76 211.759 367.2H211.359ZM210.818 368.409C210.562 368.664 210.217 368.8 209.759 368.8V369.2C210.302 369.2 210.757 369.036 211.101 368.691L210.818 368.409ZM209.759 368.8H192.209V369.2H209.759V368.8ZM192.209 368.8C191.753 368.8 191.345 368.664 190.979 368.39L190.739 368.71C191.174 369.036 191.666 369.2 192.209 369.2V368.8ZM191.019 368.43C190.745 368.065 190.609 367.657 190.609 367.2H190.209C190.209 367.743 190.373 368.235 190.699 368.67L191.019 368.43ZM190.609 367.2V322.35H190.209V367.2H190.609ZM190.609 322.35C190.609 318.309 189.446 315.008 187.107 312.465L186.812 312.735C189.072 315.192 190.209 318.391 190.209 322.35H190.609ZM187.11 312.468C184.867 309.92 181.86 308.65 178.109 308.65V309.05C181.759 309.05 184.652 310.28 186.809 312.732L187.11 312.468ZM178.109 308.65C174.359 308.65 171.304 309.919 168.962 312.465L169.257 312.735C171.515 310.281 174.46 309.05 178.109 309.05V308.65ZM168.959 312.468C166.721 315.011 165.609 318.312 165.609 322.35H166.009C166.009 318.388 167.098 315.189 169.26 312.732L168.959 312.468ZM165.609 322.35V367.2H166.009V322.35H165.609ZM165.609 367.2C165.609 367.64 165.436 368.041 165.068 368.409L165.351 368.691C165.783 368.259 166.009 367.76 166.009 367.2H165.609ZM165.068 368.409C164.812 368.664 164.467 368.8 164.009 368.8V369.2C164.552 369.2 165.007 369.036 165.351 368.691L165.068 368.409ZM164.009 368.8H146.459V369.2H164.009V368.8ZM146.459 368.8C146.003 368.8 145.595 368.664 145.229 368.39L144.989 368.71C145.424 369.036 145.916 369.2 146.459 369.2V368.8ZM145.269 368.43C144.995 368.065 144.859 367.657 144.859 367.2H144.459C144.459 367.743 144.623 368.235 144.949 368.67L145.269 368.43ZM144.859 367.2V265.8H144.459V367.2H144.859ZM144.859 265.8C144.859 265.343 144.995 264.997 145.251 264.741L144.968 264.459C144.624 264.803 144.459 265.257 144.459 265.8H144.859ZM145.251 264.741C145.619 264.374 146.02 264.2 146.459 264.2V263.8C145.899 263.8 145.4 264.026 144.968 264.459L145.251 264.741ZM146.459 264.2H164.009V263.8H146.459V264.2ZM164.009 264.2C164.446 264.2 164.787 264.37 165.049 264.72L165.369 264.48C165.032 264.03 164.572 263.8 164.009 263.8V264.2ZM165.089 264.76C165.439 265.022 165.609 265.363 165.609 265.8H166.009C166.009 265.237 165.78 264.778 165.329 264.44L165.089 264.76ZM165.609 265.8V298.95H166.009V265.8H165.609ZM165.609 298.95C165.609 299.296 165.729 299.583 166.02 299.729L166.199 299.371C166.09 299.317 166.009 299.204 166.009 298.95H165.609ZM166.02 299.729C166.148 299.793 166.292 299.825 166.435 299.777C166.578 299.73 166.674 299.617 166.738 299.489L166.38 299.311C166.344 299.383 166.316 299.395 166.309 299.398C166.302 299.4 166.271 299.407 166.199 299.371L166.02 299.729ZM166.723 299.515C170.78 293.777 176.814 290.9 184.859 290.9V290.5C176.705 290.5 170.539 293.423 166.396 299.285L166.723 299.515ZM330.491 297.75L330.345 297.887L330.345 297.887L330.491 297.75ZM336.491 368.55L336.632 368.691L336.632 368.691L336.491 368.55ZM316.391 368.55L316.231 368.67L316.248 368.693L316.271 368.71L316.391 368.55ZM312.791 312.45L312.941 312.318L312.941 312.318L312.791 312.45ZM295.841 312.45L295.693 312.315L295.693 312.315L295.841 312.45ZM291.941 368.55L291.799 368.409L291.799 368.409L291.941 368.55ZM271.991 368.55L271.831 368.67L271.848 368.693L271.871 368.71L271.991 368.55ZM268.241 312.6L268.09 312.732L268.093 312.735L268.241 312.6ZM251.591 311.7L251.46 311.549L251.456 311.552L251.591 311.7ZM247.841 319.65L247.642 319.627L247.641 319.638V319.65H247.841ZM247.241 368.55L247.382 368.691L247.382 368.691L247.241 368.55ZM227.141 368.55L226.981 368.67L226.998 368.693L227.021 368.71L227.141 368.55ZM227.141 292.5L226.999 292.359L226.999 292.359L227.141 292.5ZM247.241 292.5L247.081 292.62L247.098 292.643L247.121 292.66L247.241 292.5ZM248.741 299.85L248.575 299.738L248.574 299.739L248.741 299.85ZM280.841 293.85L280.742 294.024L280.744 294.025L280.841 293.85ZM289.541 302.85L289.72 302.761L289.719 302.759L289.541 302.85ZM290.591 302.85L290.757 302.961L290.762 302.953L290.767 302.945L290.591 302.85ZM299.441 293.7L299.347 293.523L299.346 293.524L299.441 293.7ZM312.191 290.9C319.948 290.9 325.99 293.235 330.345 297.887L330.637 297.613C326.191 292.865 320.033 290.5 312.191 290.5V290.9ZM330.345 297.887C334.7 302.539 336.891 309.084 336.891 317.55H337.291C337.291 309.016 335.081 302.361 330.637 297.613L330.345 297.887ZM336.891 317.55V367.2H337.291V317.55H336.891ZM336.891 367.2C336.891 367.64 336.717 368.041 336.349 368.409L336.632 368.691C337.064 368.259 337.291 367.76 337.291 367.2H336.891ZM336.349 368.409C336.093 368.664 335.748 368.8 335.291 368.8V369.2C335.833 369.2 336.288 369.036 336.632 368.691L336.349 368.409ZM335.291 368.8H317.741V369.2H335.291V368.8ZM317.741 368.8C317.284 368.8 316.876 368.664 316.511 368.39L316.271 368.71C316.705 369.036 317.197 369.2 317.741 369.2V368.8ZM316.551 368.43C316.277 368.065 316.141 367.657 316.141 367.2H315.741C315.741 367.743 315.905 368.235 316.231 368.67L316.551 368.43ZM316.141 367.2V322.2H315.741V367.2H316.141ZM316.141 322.2C316.141 318.066 315.081 314.764 312.941 312.318L312.64 312.582C314.7 314.936 315.741 318.134 315.741 322.2H316.141ZM312.941 312.318C310.799 309.87 307.942 308.65 304.391 308.65V309.05C307.839 309.05 310.582 310.23 312.64 312.582L312.941 312.318ZM304.391 308.65C300.839 308.65 297.934 309.87 295.693 312.315L295.988 312.585C298.147 310.23 300.942 309.05 304.391 309.05V308.65ZM295.693 312.315C293.452 314.76 292.341 318.012 292.341 322.05H292.741C292.741 318.088 293.829 314.94 295.988 312.585L295.693 312.315ZM292.341 322.05V367.2H292.741V322.05H292.341ZM292.341 367.2C292.341 367.64 292.167 368.041 291.799 368.409L292.082 368.691C292.514 368.259 292.741 367.76 292.741 367.2H292.341ZM291.799 368.409C291.543 368.664 291.198 368.8 290.741 368.8V369.2C291.283 369.2 291.738 369.036 292.082 368.691L291.799 368.409ZM290.741 368.8H273.341V369.2H290.741V368.8ZM273.341 368.8C272.884 368.8 272.476 368.664 272.111 368.39L271.871 368.71C272.305 369.036 272.797 369.2 273.341 369.2V368.8ZM272.151 368.43C271.877 368.065 271.741 367.657 271.741 367.2H271.341C271.341 367.743 271.505 368.235 271.831 368.67L272.151 368.43ZM271.741 367.2V322.2H271.341V367.2H271.741ZM271.741 322.2C271.741 318.162 270.629 314.91 268.388 312.465L268.093 312.735C270.252 315.09 271.341 318.238 271.341 322.2H271.741ZM268.391 312.468C266.151 309.922 263.245 308.65 259.691 308.65V309.05C263.136 309.05 265.931 310.278 268.09 312.732L268.391 312.468ZM259.691 308.65C256.448 308.65 253.7 309.614 251.46 311.549L251.721 311.851C253.881 309.986 256.533 309.05 259.691 309.05V308.65ZM251.456 311.552C249.313 313.491 248.046 316.189 247.642 319.627L248.039 319.673C248.435 316.311 249.668 313.709 251.725 311.848L251.456 311.552ZM247.641 319.65V367.2H248.041V319.65H247.641ZM247.641 367.2C247.641 367.64 247.467 368.041 247.099 368.409L247.382 368.691C247.814 368.259 248.041 367.76 248.041 367.2H247.641ZM247.099 368.409C246.843 368.664 246.498 368.8 246.041 368.8V369.2C246.583 369.2 247.038 369.036 247.382 368.691L247.099 368.409ZM246.041 368.8H228.491V369.2H246.041V368.8ZM228.491 368.8C228.034 368.8 227.626 368.664 227.261 368.39L227.021 368.71C227.455 369.036 227.947 369.2 228.491 369.2V368.8ZM227.301 368.43C227.027 368.065 226.891 367.657 226.891 367.2H226.491C226.491 367.743 226.655 368.235 226.981 368.67L227.301 368.43ZM226.891 367.2V293.7H226.491V367.2H226.891ZM226.891 293.7C226.891 293.243 227.026 292.897 227.282 292.641L226.999 292.359C226.655 292.703 226.491 293.157 226.491 293.7H226.891ZM227.282 292.641C227.65 292.274 228.051 292.1 228.491 292.1V291.7C227.93 291.7 227.431 291.926 226.999 292.359L227.282 292.641ZM228.491 292.1H246.041V291.7H228.491V292.1ZM246.041 292.1C246.478 292.1 246.818 292.27 247.081 292.62L247.401 292.38C247.063 291.93 246.604 291.7 246.041 291.7V292.1ZM247.121 292.66C247.47 292.922 247.641 293.263 247.641 293.7H248.041C248.041 293.137 247.811 292.678 247.361 292.34L247.121 292.66ZM247.641 293.7V299.55H248.041V293.7H247.641ZM247.641 299.55C247.641 299.896 247.76 300.183 248.051 300.329L248.23 299.971C248.121 299.917 248.041 299.804 248.041 299.55H247.641ZM248.051 300.329C248.207 300.407 248.374 300.407 248.53 300.329C248.675 300.257 248.798 300.124 248.907 299.961L248.574 299.739C248.483 299.876 248.407 299.943 248.351 299.971C248.307 299.993 248.274 299.993 248.23 299.971L248.051 300.329ZM248.907 299.962C252.963 293.927 259.244 290.9 267.791 290.9V290.5C259.137 290.5 252.719 293.573 248.575 299.738L248.907 299.962ZM267.791 290.9C272.762 290.9 277.077 291.944 280.742 294.024L280.939 293.676C277.204 291.556 272.819 290.5 267.791 290.5V290.9ZM280.744 294.025C284.509 296.106 287.381 299.076 289.363 302.941L289.719 302.759C287.701 298.824 284.773 295.794 280.937 293.675L280.744 294.025ZM289.362 302.939C289.515 303.245 289.727 303.5 290.028 303.5C290.175 303.5 290.309 303.437 290.425 303.344C290.541 303.251 290.651 303.12 290.757 302.961L290.424 302.739C290.331 302.88 290.247 302.974 290.175 303.031C290.104 303.088 290.056 303.1 290.028 303.1C289.979 303.1 289.867 303.055 289.72 302.761L289.362 302.939ZM290.767 302.945C292.95 298.875 295.874 295.855 299.536 293.876L299.346 293.524C295.607 295.545 292.631 298.625 290.414 302.755L290.767 302.945ZM299.534 293.877C303.302 291.893 307.52 290.9 312.191 290.9V290.5C307.461 290.5 303.179 291.507 299.347 293.523L299.534 293.877ZM354.785 279.9L354.64 280.038L354.647 280.045L354.785 279.9ZM354.785 262.8L354.926 262.941L354.926 262.941L354.785 262.8ZM371.885 262.8L371.743 262.941L371.743 262.941L371.885 262.8ZM352.985 368.55L352.825 368.67L352.842 368.693L352.865 368.71L352.985 368.55ZM352.985 292.35L352.843 292.209L352.843 292.209L352.985 292.35ZM373.085 292.35L372.925 292.47L372.942 292.493L372.965 292.51L373.085 292.35ZM373.085 368.55L372.943 368.409L372.943 368.409L373.085 368.55ZM363.335 283C359.982 283 357.183 281.917 354.923 279.755L354.647 280.045C356.986 282.283 359.887 283.4 363.335 283.4V283ZM354.929 279.762C352.767 277.502 351.685 274.702 351.685 271.35H351.285C351.285 274.798 352.402 277.698 354.64 280.038L354.929 279.762ZM351.685 271.35C351.685 267.896 352.769 265.099 354.926 262.941L354.643 262.659C352.401 264.901 351.285 267.804 351.285 271.35H351.685ZM354.926 262.941C357.084 260.784 359.881 259.7 363.335 259.7V259.3C359.789 259.3 356.886 260.416 354.643 262.659L354.926 262.941ZM363.335 259.7C366.789 259.7 369.586 260.784 371.743 262.941L372.026 262.659C369.784 260.416 366.881 259.3 363.335 259.3V259.7ZM371.743 262.941C373.901 265.099 374.985 267.896 374.985 271.35H375.385C375.385 267.804 374.269 264.901 372.026 262.659L371.743 262.941ZM374.985 271.35C374.985 274.7 373.854 277.498 371.593 279.759L371.876 280.041C374.216 277.702 375.385 274.8 375.385 271.35H374.985ZM371.593 279.759C369.435 281.917 366.687 283 363.335 283V283.4C366.782 283.4 369.635 282.283 371.876 280.041L371.593 279.759ZM354.335 368.8C353.878 368.8 353.47 368.664 353.105 368.39L352.865 368.71C353.299 369.036 353.791 369.2 354.335 369.2V368.8ZM353.145 368.43C352.871 368.065 352.735 367.657 352.735 367.2H352.335C352.335 367.743 352.499 368.235 352.825 368.67L353.145 368.43ZM352.735 367.2V293.55H352.335V367.2H352.735ZM352.735 293.55C352.735 293.093 352.87 292.747 353.126 292.491L352.843 292.209C352.499 292.553 352.335 293.007 352.335 293.55H352.735ZM353.126 292.491C353.494 292.124 353.895 291.95 354.335 291.95V291.55C353.775 291.55 353.275 291.776 352.843 292.209L353.126 292.491ZM354.335 291.95H371.885V291.55H354.335V291.95ZM371.885 291.95C372.322 291.95 372.663 292.12 372.925 292.47L373.245 292.23C372.907 291.78 372.448 291.55 371.885 291.55V291.95ZM372.965 292.51C373.314 292.772 373.485 293.113 373.485 293.55H373.885C373.885 292.987 373.655 292.528 373.205 292.19L372.965 292.51ZM373.485 293.55V367.2H373.885V293.55H373.485ZM373.485 367.2C373.485 367.64 373.311 368.041 372.943 368.409L373.226 368.691C373.658 368.259 373.885 367.76 373.885 367.2H373.485ZM372.943 368.409C372.687 368.664 372.342 368.8 371.885 368.8V369.2C372.428 369.2 372.882 369.036 373.226 368.691L372.943 368.409ZM371.885 368.8H354.335V369.2H371.885V368.8Z" fill="white" mask="url(#path-1-outside-1_116_21)"/>
<mask id="path-3-outside-2_116_21" maskUnits="userSpaceOnUse" x="39" y="407" width="112" height="354" fill="black">
<rect fill="white" x="39" y="407" width="112" height="354"/>
<path d="M41 409.95C41 409.45 41.15 409 41.45 408.6C41.85 408.3 42.3 408.15 42.8 408.15H144.2C144.7 408.15 145.1 408.3 145.4 408.6C145.8 409 146 409.45 146 409.95V447.45C146 454.95 144.65 461.5 141.95 467.1C139.35 472.8 135.65 477.2 130.85 480.3C126.05 483.4 120.5 484.95 114.2 484.95H72.8C66.5 484.95 60.95 483.4 56.15 480.3C51.35 477.2 47.6 472.8 44.9 467.1C42.3 461.5 41 454.95 41 447.45V409.95ZM59.9 429.3C59.4 429.3 59.15 429.55 59.15 430.05V448.2C59.15 452.8 60.7 456.5 63.8 459.3C66.9 462.2 71.05 463.7 76.25 463.8H110.75C115.95 463.8 120.1 462.35 123.2 459.45C126.3 456.65 127.85 452.85 127.85 448.05V430.05C127.85 429.55 127.6 429.3 127.1 429.3H59.9ZM119.3 539.725C119.3 547.725 116.85 554.175 111.95 559.075C107.05 563.975 100.4 566.425 92 566.425H42.8C42.3 566.425 41.85 566.225 41.45 565.825C41.15 565.525 41 565.125 41 564.625V547.075C41 546.575 41.15 546.125 41.45 545.725C41.85 545.425 42.3 545.275 42.8 545.275H87.65C91.65 545.275 94.9 544.125 97.4 541.825C99.9 539.625 101.15 536.675 101.15 532.975C101.15 529.275 99.9 526.275 97.4 523.975C94.9 521.775 91.65 520.675 87.65 520.675H42.8C42.3 520.675 41.85 520.475 41.45 520.075C41.15 519.775 41 519.375 41 518.875V501.325C41 500.825 41.15 500.375 41.45 499.975C41.85 499.675 42.3 499.525 42.8 499.525H144.2C144.7 499.525 145.1 499.675 145.4 499.975C145.8 500.375 146 500.825 146 501.325V518.875C146 519.375 145.8 519.775 145.4 520.075C145.1 520.475 144.7 520.675 144.2 520.675H111.05C110.75 520.675 110.55 520.775 110.45 520.975C110.35 521.175 110.4 521.325 110.6 521.425C116.4 525.525 119.3 531.625 119.3 539.725ZM126.8 592.956C126.8 589.556 127.9 586.706 130.1 584.406C132.4 582.206 135.25 581.106 138.65 581.106C142.15 581.106 145 582.206 147.2 584.406C149.4 586.606 150.5 589.456 150.5 592.956C150.5 596.456 149.4 599.306 147.2 601.506C145 603.706 142.15 604.806 138.65 604.806C135.25 604.806 132.4 603.656 130.1 601.356C127.9 599.156 126.8 596.356 126.8 592.956ZM41 583.956C41 583.456 41.15 583.006 41.45 582.606C41.85 582.306 42.3 582.156 42.8 582.156H116.45C116.95 582.156 117.35 582.306 117.65 582.606C118.05 583.006 118.25 583.456 118.25 583.956V601.506C118.25 602.006 118.05 602.406 117.65 602.706C117.35 603.106 116.95 603.306 116.45 603.306H42.8C42.3 603.306 41.85 603.106 41.45 602.706C41.15 602.406 41 602.006 41 601.506V583.956ZM41 621.588C41 621.088 41.15 620.638 41.45 620.238C41.85 619.938 42.3 619.788 42.8 619.788H144.2C144.7 619.788 145.1 619.938 145.4 620.238C145.8 620.638 146 621.088 146 621.588V639.138C146 639.638 145.8 640.038 145.4 640.338C145.1 640.738 144.7 640.938 144.2 640.938H93.65C93.35 640.938 93.15 641.038 93.05 641.238C93.05 641.438 93.15 641.638 93.35 641.838L117.05 662.238C117.75 662.938 118.1 663.688 118.1 664.488V684.438C118.1 685.438 117.75 685.938 117.05 685.938C116.75 685.938 116.35 685.788 115.85 685.488L91.7 666.438C91.3 666.238 90.95 666.188 90.65 666.288L43.1 688.638C42.7 688.838 42.4 688.938 42.2 688.938C41.4 688.938 41 688.388 41 687.288V668.838C41 667.838 41.45 667.138 42.35 666.738L77.45 651.888C77.65 651.788 77.75 651.588 77.75 651.288C77.85 651.088 77.8 650.938 77.6 650.838L65.6 641.238C65.2 641.038 64.9 640.938 64.7 640.938H42.8C42.3 640.938 41.85 640.738 41.45 640.338C41.15 640.038 41 639.638 41 639.138L41 621.588ZM119.3 727.15C119.3 733.65 118.15 739.45 115.85 744.55C113.65 749.65 110.6 753.6 106.7 756.4C102.8 759.3 98.45 760.75 93.65 760.75H42.8C42.3 760.75 41.85 760.55 41.45 760.15C41.15 759.85 41 759.45 41 758.95V741.4C41 740.9 41.15 740.45 41.45 740.05C41.85 739.75 42.3 739.6 42.8 739.6H47.75C48.05 739.6 48.25 739.5 48.35 739.3C48.45 739.1 48.35 738.9 48.05 738.7C42.55 734.5 39.8 727.75 39.8 718.45C39.8 710.65 41.7 704.35 45.5 699.55C49.3 694.75 54.9 692.35 62.3 692.35C70 692.35 75.95 695.05 80.15 700.45C84.45 705.85 86.6 713.55 86.6 723.55V738.85C86.6 739.35 86.85 739.6 87.35 739.6H90.65C93.95 739.6 96.5 738.6 98.3 736.6C100.2 734.6 101.15 731.6 101.15 727.6C101.15 724.5 100.6 721.9 99.5 719.8C98.4 717.8 96.85 716.5 94.85 715.9C93.75 715.6 93.25 714.95 93.35 713.95L95.75 695.8C95.95 694.6 96.4 694.05 97.1 694.15C101.3 694.55 105.1 696.2 108.5 699.1C111.9 702.1 114.55 706 116.45 710.8C118.35 715.7 119.3 721.15 119.3 727.15ZM55.55 724.15C55.55 728.45 56.7 732.1 59 735.1C61.3 738.1 64.25 739.6 67.85 739.6H73.25C73.75 739.6 74 739.35 74 738.85V728.05C74 723.55 73.15 720 71.45 717.4C69.75 714.9 67.35 713.65 64.25 713.65C61.55 713.65 59.4 714.6 57.8 716.5C56.3 718.4 55.55 720.95 55.55 724.15Z"/>
</mask>
<path d="M41.45 408.6L41.33 408.44L41.3071 408.457L41.29 408.48L41.45 408.6ZM145.4 408.6L145.541 408.459L145.541 408.459L145.4 408.6ZM141.95 467.1L141.77 467.013L141.768 467.017L141.95 467.1ZM130.85 480.3L130.959 480.468L130.959 480.468L130.85 480.3ZM56.15 480.3L56.0415 480.468L56.0415 480.468L56.15 480.3ZM44.9 467.1L44.7186 467.184L44.7193 467.186L44.9 467.1ZM63.8 459.3L63.9367 459.154L63.9341 459.152L63.8 459.3ZM76.25 463.8L76.2462 464H76.25V463.8ZM123.2 459.45L123.066 459.302L123.063 459.304L123.2 459.45ZM41.2 409.95C41.2 409.493 41.336 409.085 41.61 408.72L41.29 408.48C40.964 408.915 40.8 409.407 40.8 409.95H41.2ZM41.57 408.76C41.9354 408.486 42.3433 408.35 42.8 408.35V407.95C42.2567 407.95 41.7646 408.114 41.33 408.44L41.57 408.76ZM42.8 408.35H144.2V407.95H42.8V408.35ZM144.2 408.35C144.657 408.35 145.003 408.486 145.259 408.741L145.541 408.459C145.197 408.114 144.743 407.95 144.2 407.95V408.35ZM145.259 408.741C145.626 409.109 145.8 409.51 145.8 409.95H146.2C146.2 409.39 145.974 408.891 145.541 408.459L145.259 408.741ZM145.8 409.95V447.45H146.2V409.95H145.8ZM145.8 447.45C145.8 454.926 144.454 461.445 141.77 467.013L142.13 467.187C144.846 461.555 146.2 454.974 146.2 447.45H145.8ZM141.768 467.017C139.182 472.686 135.506 477.055 130.742 480.132L130.959 480.468C135.794 477.345 139.518 472.914 142.132 467.183L141.768 467.017ZM130.742 480.132C125.977 483.209 120.466 484.75 114.2 484.75V485.15C120.534 485.15 126.123 483.591 130.959 480.468L130.742 480.132ZM114.2 484.75H72.8V485.15H114.2V484.75ZM72.8 484.75C66.5344 484.75 61.0229 483.209 56.2585 480.132L56.0415 480.468C60.8771 483.591 66.4656 485.15 72.8 485.15V484.75ZM56.2585 480.132C51.493 477.054 47.7665 472.684 45.0807 467.014L44.7193 467.186C47.4335 472.916 51.207 477.346 56.0415 480.468L56.2585 480.132ZM45.0814 467.016C42.496 461.447 41.2 454.927 41.2 447.45H40.8C40.8 454.973 42.104 461.553 44.7186 467.184L45.0814 467.016ZM41.2 447.45V409.95H40.8V447.45H41.2ZM59.9 429.1C59.6192 429.1 59.3718 429.17 59.1961 429.346C59.0203 429.522 58.95 429.769 58.95 430.05H59.35C59.35 429.831 59.4047 429.703 59.4789 429.629C59.5532 429.555 59.6808 429.5 59.9 429.5V429.1ZM58.95 430.05V448.2H59.35V430.05H58.95ZM58.95 448.2C58.95 452.85 60.5194 456.606 63.6659 459.448L63.9341 459.152C60.8806 456.394 59.35 452.75 59.35 448.2H58.95ZM63.6634 459.446C66.8071 462.387 71.0084 463.899 76.2462 464L76.2538 463.6C71.0916 463.501 66.9929 462.013 63.9366 459.154L63.6634 459.446ZM76.25 464H110.75V463.6H76.25V464ZM110.75 464C115.989 464 120.192 462.538 123.337 459.596L123.063 459.304C120.008 462.162 115.911 463.6 110.75 463.6V464ZM123.334 459.598C126.482 456.755 128.05 452.897 128.05 448.05H127.65C127.65 452.803 126.118 456.545 123.066 459.302L123.334 459.598ZM128.05 448.05V430.05H127.65V448.05H128.05ZM128.05 430.05C128.05 429.769 127.98 429.522 127.804 429.346C127.628 429.17 127.381 429.1 127.1 429.1V429.5C127.319 429.5 127.447 429.555 127.521 429.629C127.595 429.703 127.65 429.831 127.65 430.05H128.05ZM127.1 429.1H59.9V429.5H127.1V429.1ZM111.95 559.075L112.091 559.216L112.091 559.216L111.95 559.075ZM41.45 565.825L41.5914 565.683L41.5914 565.683L41.45 565.825ZM41.45 545.725L41.33 545.565L41.3071 545.582L41.29 545.605L41.45 545.725ZM97.4 541.825L97.2678 541.674L97.2646 541.677L97.4 541.825ZM97.4 523.975L97.5354 523.827L97.5321 523.824L97.4 523.975ZM41.45 520.075L41.3086 520.216L41.3086 520.216L41.45 520.075ZM41.45 499.975L41.33 499.815L41.3071 499.832L41.29 499.855L41.45 499.975ZM145.4 499.975L145.541 499.833L145.541 499.833L145.4 499.975ZM145.4 520.075L145.28 519.915L145.257 519.932L145.24 519.955L145.4 520.075ZM110.45 520.975L110.629 521.064L110.629 521.064L110.45 520.975ZM110.6 521.425L110.715 521.261L110.703 521.253L110.689 521.246L110.6 521.425ZM119.1 539.725C119.1 547.68 116.665 554.077 111.809 558.933L112.091 559.216C117.035 554.273 119.5 547.769 119.5 539.725H119.1ZM111.809 558.933C106.954 563.788 100.359 566.225 92 566.225V566.625C100.441 566.625 107.146 564.161 112.091 559.216L111.809 558.933ZM92 566.225H42.8V566.625H92V566.225ZM42.8 566.225C42.3602 566.225 41.9593 566.051 41.5914 565.683L41.3086 565.966C41.7407 566.398 42.2398 566.625 42.8 566.625V566.225ZM41.5914 565.683C41.3356 565.427 41.2 565.082 41.2 564.625H40.8C40.8 565.167 40.9644 565.622 41.3086 565.966L41.5914 565.683ZM41.2 564.625V547.075H40.8V564.625H41.2ZM41.2 547.075C41.2 546.618 41.336 546.21 41.61 545.845L41.29 545.605C40.964 546.039 40.8 546.531 40.8 547.075H41.2ZM41.57 545.885C41.9354 545.611 42.3433 545.475 42.8 545.475V545.075C42.2567 545.075 41.7646 545.239 41.33 545.565L41.57 545.885ZM42.8 545.475H87.65V545.075H42.8V545.475ZM87.65 545.475C91.6907 545.475 94.9921 544.312 97.5354 541.972L97.2646 541.677C94.8079 543.938 91.6093 545.075 87.65 545.075V545.475ZM97.5321 541.975C100.08 539.732 101.35 536.725 101.35 532.975H100.95C100.95 536.624 99.7196 539.517 97.2679 541.674L97.5321 541.975ZM101.35 532.975C101.35 529.224 100.081 526.169 97.5354 523.827L97.2646 524.122C99.7195 526.38 100.95 529.325 100.95 532.975H101.35ZM97.5321 523.824C94.9886 521.586 91.6884 520.475 87.65 520.475V520.875C91.6116 520.875 94.8114 521.963 97.2679 524.125L97.5321 523.824ZM87.65 520.475H42.8V520.875H87.65V520.475ZM42.8 520.475C42.3602 520.475 41.9593 520.301 41.5914 519.933L41.3086 520.216C41.7407 520.648 42.2398 520.875 42.8 520.875V520.475ZM41.5914 519.933C41.3356 519.677 41.2 519.332 41.2 518.875H40.8C40.8 519.417 40.9644 519.872 41.3086 520.216L41.5914 519.933ZM41.2 518.875V501.325H40.8V518.875H41.2ZM41.2 501.325C41.2 500.868 41.336 500.46 41.61 500.095L41.29 499.855C40.964 500.289 40.8 500.781 40.8 501.325H41.2ZM41.57 500.135C41.9354 499.861 42.3433 499.725 42.8 499.725V499.325C42.2567 499.325 41.7646 499.489 41.33 499.815L41.57 500.135ZM42.8 499.725H144.2V499.325H42.8V499.725ZM144.2 499.725C144.657 499.725 145.003 499.86 145.259 500.116L145.541 499.833C145.197 499.489 144.743 499.325 144.2 499.325V499.725ZM145.259 500.116C145.626 500.484 145.8 500.885 145.8 501.325H146.2C146.2 500.764 145.974 500.265 145.541 499.833L145.259 500.116ZM145.8 501.325V518.875H146.2V501.325H145.8ZM145.8 518.875C145.8 519.312 145.63 519.652 145.28 519.915L145.52 520.235C145.97 519.897 146.2 519.438 146.2 518.875H145.8ZM145.24 519.955C144.978 520.304 144.637 520.475 144.2 520.475V520.875C144.763 520.875 145.222 520.645 145.56 520.195L145.24 519.955ZM144.2 520.475H111.05V520.875H144.2V520.475ZM111.05 520.475C110.704 520.475 110.417 520.594 110.271 520.885L110.629 521.064C110.683 520.955 110.796 520.875 111.05 520.875V520.475ZM110.271 520.885C110.207 521.013 110.175 521.157 110.223 521.3C110.27 521.443 110.383 521.54 110.511 521.603L110.689 521.246C110.617 521.21 110.605 521.181 110.602 521.174C110.6 521.167 110.593 521.136 110.629 521.064L110.271 520.885ZM110.485 521.588C116.223 525.645 119.1 531.679 119.1 539.725H119.5C119.5 531.57 116.577 525.404 110.715 521.261L110.485 521.588ZM130.1 584.406L129.962 584.261L129.955 584.268L130.1 584.406ZM147.2 584.406L147.059 584.547L147.059 584.547L147.2 584.406ZM147.2 601.506L147.059 601.364L147.059 601.364L147.2 601.506ZM41.45 582.606L41.33 582.446L41.3071 582.463L41.29 582.486L41.45 582.606ZM117.65 582.606L117.791 582.464L117.791 582.464L117.65 582.606ZM117.65 602.706L117.53 602.546L117.507 602.563L117.49 602.586L117.65 602.706ZM41.45 602.706L41.5914 602.564L41.5914 602.564L41.45 602.706ZM127 592.956C127 589.603 128.083 586.804 130.245 584.544L129.955 584.268C127.717 586.608 126.6 589.508 126.6 592.956H127ZM130.238 584.55C132.498 582.389 135.298 581.306 138.65 581.306V580.906C135.202 580.906 132.302 582.023 129.962 584.261L130.238 584.55ZM138.65 581.306C142.104 581.306 144.901 582.39 147.059 584.547L147.341 584.264C145.099 582.022 142.196 580.906 138.65 580.906V581.306ZM147.059 584.547C149.216 586.705 150.3 589.502 150.3 592.956H150.7C150.7 589.41 149.584 586.507 147.341 584.264L147.059 584.547ZM150.3 592.956C150.3 596.41 149.216 599.207 147.059 601.364L147.341 601.647C149.584 599.405 150.7 596.502 150.7 592.956H150.3ZM147.059 601.364C144.901 603.522 142.104 604.606 138.65 604.606V605.006C142.196 605.006 145.099 603.89 147.341 601.647L147.059 601.364ZM138.65 604.606C135.3 604.606 132.502 603.475 130.241 601.214L129.959 601.497C132.298 603.837 135.2 605.006 138.65 605.006V604.606ZM130.241 601.214C128.083 599.056 127 596.308 127 592.956H126.6C126.6 596.403 127.717 599.256 129.959 601.497L130.241 601.214ZM41.2 583.956C41.2 583.499 41.336 583.091 41.61 582.726L41.29 582.486C40.964 582.92 40.8 583.413 40.8 583.956H41.2ZM41.57 582.766C41.9354 582.492 42.3433 582.356 42.8 582.356V581.956C42.2567 581.956 41.7646 582.12 41.33 582.446L41.57 582.766ZM42.8 582.356H116.45V581.956H42.8V582.356ZM116.45 582.356C116.907 582.356 117.253 582.491 117.509 582.747L117.791 582.464C117.447 582.12 116.993 581.956 116.45 581.956V582.356ZM117.509 582.747C117.876 583.115 118.05 583.516 118.05 583.956H118.45C118.45 583.396 118.224 582.897 117.791 582.464L117.509 582.747ZM118.05 583.956V601.506H118.45V583.956H118.05ZM118.05 601.506C118.05 601.943 117.88 602.284 117.53 602.546L117.77 602.866C118.22 602.528 118.45 602.069 118.45 601.506H118.05ZM117.49 602.586C117.228 602.935 116.887 603.106 116.45 603.106V603.506C117.013 603.506 117.472 603.276 117.81 602.826L117.49 602.586ZM116.45 603.106H42.8V603.506H116.45V603.106ZM42.8 603.106C42.3602 603.106 41.9593 602.932 41.5914 602.564L41.3086 602.847C41.7407 603.279 42.2398 603.506 42.8 603.506V603.106ZM41.5914 602.564C41.3356 602.309 41.2 601.963 41.2 601.506H40.8C40.8 602.049 40.9644 602.503 41.3086 602.847L41.5914 602.564ZM41.2 601.506V583.956H40.8V601.506H41.2ZM41.45 620.238L41.33 620.078L41.3071 620.095L41.29 620.118L41.45 620.238ZM145.4 620.238L145.541 620.097L145.541 620.097L145.4 620.238ZM145.4 640.338L145.28 640.178L145.257 640.195L145.24 640.218L145.4 640.338ZM93.05 641.238L92.8711 641.149L92.85 641.191V641.238H93.05ZM93.35 641.838L93.2086 641.98L93.2139 641.985L93.2195 641.99L93.35 641.838ZM117.05 662.238L117.191 662.097L117.186 662.092L117.18 662.087L117.05 662.238ZM115.85 685.488L115.726 685.645L115.736 685.653L115.747 685.66L115.85 685.488ZM91.7 666.438L91.8239 666.281L91.8078 666.269L91.7894 666.259L91.7 666.438ZM90.65 666.288L90.5868 666.099L90.5756 666.102L90.5649 666.107L90.65 666.288ZM43.1 688.638L43.0149 688.457L43.0106 688.459L43.1 688.638ZM42.35 666.738L42.2721 666.554L42.2688 666.556L42.35 666.738ZM77.45 651.888L77.5281 652.073L77.5394 652.067L77.45 651.888ZM77.75 651.288L77.5711 651.199L77.55 651.241V651.288H77.75ZM77.6 650.838L77.4751 650.994L77.4916 651.008L77.5106 651.017L77.6 650.838ZM65.6 641.238L65.7249 641.082L65.7084 641.069L65.6894 641.059L65.6 641.238ZM41.45 640.338L41.3086 640.48L41.3086 640.48L41.45 640.338ZM41.2 621.588C41.2 621.132 41.336 620.724 41.61 620.358L41.29 620.118C40.964 620.553 40.8 621.045 40.8 621.588H41.2ZM41.57 620.398C41.9354 620.124 42.3433 619.988 42.8 619.988V619.588C42.2567 619.588 41.7646 619.752 41.33 620.078L41.57 620.398ZM42.8 619.988H144.2V619.588H42.8V619.988ZM144.2 619.988C144.657 619.988 145.003 620.124 145.259 620.38L145.541 620.097C145.197 619.753 144.743 619.588 144.2 619.588V619.988ZM145.259 620.38C145.626 620.748 145.8 621.148 145.8 621.588H146.2C146.2 621.028 145.974 620.529 145.541 620.097L145.259 620.38ZM145.8 621.588V639.138H146.2V621.588H145.8ZM145.8 639.138C145.8 639.575 145.63 639.916 145.28 640.178L145.52 640.498C145.97 640.161 146.2 639.701 146.2 639.138H145.8ZM145.24 640.218C144.978 640.568 144.637 640.738 144.2 640.738V641.138C144.763 641.138 145.222 640.909 145.56 640.458L145.24 640.218ZM144.2 640.738H93.65V641.138H144.2V640.738ZM93.65 640.738C93.3044 640.738 93.0167 640.858 92.8711 641.149L93.2289 641.328C93.2833 641.219 93.3956 641.138 93.65 641.138V640.738ZM92.85 641.238C92.85 641.51 92.9868 641.758 93.2086 641.98L93.4914 641.697C93.3132 641.519 93.25 641.367 93.25 641.238H92.85ZM93.2195 641.99L116.92 662.39L117.18 662.087L93.4805 641.687L93.2195 641.99ZM116.909 662.38C117.581 663.052 117.9 663.753 117.9 664.488H118.3C118.3 663.623 117.919 662.825 117.191 662.097L116.909 662.38ZM117.9 664.488V684.438H118.3V664.488H117.9ZM117.9 684.438C117.9 684.921 117.814 685.248 117.674 685.449C117.542 685.637 117.346 685.738 117.05 685.738V686.138C117.454 686.138 117.783 685.99 118.001 685.678C118.211 685.379 118.3 684.955 118.3 684.438H117.9ZM117.05 685.738C116.807 685.738 116.446 685.613 115.953 685.317L115.747 685.66C116.254 685.964 116.693 686.138 117.05 686.138V685.738ZM115.974 685.331L91.8239 666.281L91.5761 666.595L115.726 685.645L115.974 685.331ZM91.7894 666.259C91.3619 666.046 90.9548 665.976 90.5868 666.099L90.7132 666.478C90.9452 666.401 91.2381 666.431 91.6106 666.617L91.7894 666.259ZM90.5649 666.107L43.0149 688.457L43.1851 688.819L90.7351 666.469L90.5649 666.107ZM43.0106 688.459C42.6121 688.659 42.349 688.738 42.2 688.738V689.138C42.451 689.138 42.7879 689.018 43.1894 688.817L43.0106 688.459ZM42.2 688.738C41.8512 688.738 41.6171 688.622 41.4617 688.408C41.2977 688.183 41.2 687.82 41.2 687.288H40.8C40.8 687.857 40.9023 688.319 41.1383 688.643C41.3829 688.98 41.7488 689.138 42.2 689.138V688.738ZM41.2 687.288V668.838H40.8V687.288H41.2ZM41.2 668.838C41.2 668.369 41.3053 667.983 41.5057 667.671C41.706 667.36 42.0102 667.108 42.4312 666.921L42.2688 666.556C41.7898 666.768 41.419 667.067 41.1693 667.455C40.9197 667.843 40.8 668.308 40.8 668.838H41.2ZM42.4279 666.922L77.5279 652.072L77.3721 651.704L42.2721 666.554L42.4279 666.922ZM77.5394 652.067C77.8305 651.922 77.95 651.634 77.95 651.288H77.55C77.55 651.543 77.4695 651.655 77.3606 651.709L77.5394 652.067ZM77.9289 651.378C77.9927 651.25 78.0249 651.106 77.9772 650.963C77.9295 650.819 77.817 650.723 77.6894 650.659L77.5106 651.017C77.583 651.053 77.5955 651.082 77.5978 651.089C77.6001 651.096 77.6073 651.126 77.5711 651.199L77.9289 651.378ZM77.7249 650.682L65.7249 641.082L65.4751 641.394L77.4751 650.994L77.7249 650.682ZM65.6894 641.059C65.2879 640.859 64.951 640.738 64.7 640.738V641.138C64.849 641.138 65.1121 641.218 65.5106 641.417L65.6894 641.059ZM64.7 640.738H42.8V641.138H64.7V640.738ZM42.8 640.738C42.3602 640.738 41.9593 640.565 41.5914 640.197L41.3086 640.48C41.7407 640.912 42.2398 641.138 42.8 641.138V640.738ZM41.5914 640.197C41.3356 639.941 41.2 639.595 41.2 639.138H40.8C40.8 639.681 40.9644 640.136 41.3086 640.48L41.5914 640.197ZM41.2 639.138L41.2 621.588H40.8L40.8 639.138H41.2ZM115.85 744.55L115.668 744.467L115.666 744.47L115.85 744.55ZM106.7 756.4L106.583 756.237L106.581 756.239L106.7 756.4ZM41.45 760.15L41.5914 760.008L41.5914 760.008L41.45 760.15ZM41.45 740.05L41.33 739.89L41.3071 739.907L41.29 739.93L41.45 740.05ZM48.35 739.3L48.5289 739.389L48.5289 739.389L48.35 739.3ZM48.05 738.7L47.9284 738.859L47.9391 738.866L48.05 738.7ZM45.5 699.55L45.6568 699.674L45.6568 699.674L45.5 699.55ZM80.15 700.45L79.9921 700.572L79.9935 700.574L80.15 700.45ZM98.3 736.6L98.155 736.462L98.1513 736.466L98.3 736.6ZM99.5 719.8L99.6772 719.707L99.6752 719.703L99.5 719.8ZM94.85 715.9L94.9075 715.708L94.9026 715.707L94.85 715.9ZM93.35 713.95L93.1516 713.923L93.151 713.93L93.35 713.95ZM95.75 695.8L95.5526 695.767L95.5517 695.773L95.75 695.8ZM97.1 694.15L97.0717 694.348L97.081 694.349L97.1 694.15ZM108.5 699.1L108.632 698.95L108.63 698.947L108.5 699.1ZM116.45 710.8L116.636 710.727L116.636 710.726L116.45 710.8ZM71.45 717.4L71.6174 717.29L71.6154 717.287L71.45 717.4ZM57.8 716.5L57.6469 716.371L57.643 716.376L57.8 716.5ZM119.1 727.15C119.1 733.626 117.954 739.397 115.668 744.467L116.032 744.632C118.346 739.502 119.5 733.673 119.5 727.15H119.1ZM115.666 744.47C113.478 749.542 110.45 753.461 106.583 756.237L106.817 756.562C110.75 753.738 113.822 749.757 116.034 744.629L115.666 744.47ZM106.581 756.239C102.715 759.114 98.4064 760.55 93.65 760.55V760.95C98.4936 760.95 102.885 759.485 106.819 756.56L106.581 756.239ZM93.65 760.55H42.8V760.95H93.65V760.55ZM42.8 760.55C42.3602 760.55 41.9593 760.376 41.5914 760.008L41.3086 760.291C41.7407 760.723 42.2398 760.95 42.8 760.95V760.55ZM41.5914 760.008C41.3356 759.752 41.2 759.407 41.2 758.95H40.8C40.8 759.492 40.9644 759.947 41.3086 760.291L41.5914 760.008ZM41.2 758.95V741.4H40.8V758.95H41.2ZM41.2 741.4C41.2 740.943 41.336 740.535 41.61 740.17L41.29 739.93C40.964 740.364 40.8 740.856 40.8 741.4H41.2ZM41.57 740.21C41.9354 739.936 42.3433 739.8 42.8 739.8V739.4C42.2567 739.4 41.7646 739.564 41.33 739.89L41.57 740.21ZM42.8 739.8H47.75V739.4H42.8V739.8ZM47.75 739.8C48.0956 739.8 48.3833 739.68 48.5289 739.389L48.1711 739.21C48.1167 739.319 48.0044 739.4 47.75 739.4V739.8ZM48.5289 739.389C48.607 739.233 48.607 739.066 48.5289 738.91C48.4566 738.766 48.324 738.642 48.1609 738.533L47.9391 738.866C48.076 738.957 48.1434 739.034 48.1711 739.089C48.193 739.133 48.193 739.166 48.1711 739.21L48.5289 739.389ZM48.1714 738.541C42.7368 734.391 40 727.71 40 718.45H39.6C39.6 727.789 42.3632 734.609 47.9286 738.859L48.1714 738.541ZM40 718.45C40 710.682 41.8917 704.43 45.6568 699.674L45.3432 699.425C41.5083 704.27 39.6 710.617 39.6 718.45H40ZM45.6568 699.674C49.4109 694.932 54.9469 692.55 62.3 692.55V692.15C54.8531 692.15 49.1891 694.567 45.3432 699.425L45.6568 699.674ZM62.3 692.55C69.9471 692.55 75.8351 695.228 79.9921 700.572L80.3079 700.327C76.0649 694.872 70.0529 692.15 62.3 692.15V692.55ZM79.9935 700.574C84.2551 705.926 86.4 713.575 86.4 723.55H86.8C86.8 713.524 84.6449 705.773 80.3065 700.325L79.9935 700.574ZM86.4 723.55V738.85H86.8V723.55H86.4ZM86.4 738.85C86.4 739.13 86.4703 739.378 86.6461 739.554C86.8218 739.729 87.0692 739.8 87.35 739.8V739.4C87.1308 739.4 87.0032 739.345 86.9289 739.271C86.8547 739.196 86.8 739.069 86.8 738.85H86.4ZM87.35 739.8H90.65V739.4H87.35V739.8ZM90.65 739.8C93.9928 739.8 96.6023 738.785 98.4487 736.733L98.1513 736.466C96.3977 738.414 93.9072 739.4 90.65 739.4V739.8ZM98.445 736.737C100.393 734.686 101.35 731.628 101.35 727.6H100.95C100.95 731.571 100.007 734.513 98.155 736.462L98.445 736.737ZM101.35 727.6C101.35 724.477 100.796 721.843 99.6772 719.707L99.3228 719.892C100.404 721.956 100.95 724.522 100.95 727.6H101.35ZM99.6752 719.703C98.5526 717.662 96.9626 716.325 94.9075 715.708L94.7925 716.091C96.7374 716.675 98.2474 717.937 99.3248 719.896L99.6752 719.703ZM94.9026 715.707C94.3786 715.564 94.0233 715.344 93.8085 715.065C93.5963 714.789 93.5029 714.431 93.549 713.97L93.151 713.93C93.0971 714.468 93.2037 714.935 93.4915 715.309C93.7767 715.68 94.2214 715.935 94.7974 716.093L94.9026 715.707ZM93.5483 713.976L95.9483 695.826L95.5517 695.773L93.1517 713.923L93.5483 713.976ZM95.9473 695.832C96.0451 695.245 96.2 694.849 96.3923 694.614C96.5732 694.393 96.7914 694.308 97.0717 694.348L97.1283 693.952C96.7086 693.892 96.3518 694.032 96.0827 694.36C95.825 694.675 95.6549 695.154 95.5527 695.767L95.9473 695.832ZM97.081 694.349C101.238 694.745 105 696.377 108.37 699.252L108.63 698.947C105.201 696.022 101.362 694.355 97.119 693.951L97.081 694.349ZM108.368 699.25C111.741 702.226 114.374 706.098 116.264 710.873L116.636 710.726C114.726 705.901 112.059 701.973 108.632 698.95L108.368 699.25ZM116.264 710.872C118.153 715.746 119.1 721.171 119.1 727.15H119.5C119.5 721.128 118.547 715.653 116.636 710.727L116.264 710.872ZM55.35 724.15C55.35 728.487 56.5109 732.182 58.8413 735.221L59.1587 734.978C56.8891 732.018 55.75 728.412 55.75 724.15H55.35ZM58.8413 735.221C61.1769 738.268 64.1843 739.8 67.85 739.8V739.4C64.3157 739.4 61.4231 737.931 59.1587 734.978L58.8413 735.221ZM67.85 739.8H73.25V739.4H67.85V739.8ZM73.25 739.8C73.5308 739.8 73.7782 739.729 73.9539 739.554C74.1297 739.378 74.2 739.13 74.2 738.85H73.8C73.8 739.069 73.7453 739.196 73.6711 739.271C73.5968 739.345 73.4692 739.4 73.25 739.4V739.8ZM74.2 738.85V728.05H73.8V738.85H74.2ZM74.2 728.05C74.2 723.527 73.3462 719.934 71.6174 717.29L71.2826 717.509C72.9538 720.065 73.8 723.572 73.8 728.05H74.2ZM71.6154 717.287C69.877 714.731 67.4142 713.45 64.25 713.45V713.85C67.2858 713.85 69.623 715.068 71.2846 717.512L71.6154 717.287ZM64.25 713.45C61.4968 713.45 59.2886 714.421 57.647 716.371L57.953 716.628C59.5114 714.778 61.6032 713.85 64.25 713.85V713.45ZM57.643 716.376C56.1073 718.321 55.35 720.919 55.35 724.15H55.75C55.75 720.98 56.4927 718.478 57.957 716.624L57.643 716.376Z" fill="white" mask="url(#path-3-outside-2_116_21)"/>
<path d="M582.912 990L683.25 1005.79L698 1182.92H582.912L247 1140.93L413.453 1087.87L443.811 1005.79L554.954 1034.53L582.912 990Z" fill="url(#paint1_linear_116_21)"/>
<circle cx="41" cy="-101" r="250" fill="url(#paint2_linear_116_21)"/>
<g filter="url(#filter0_d_116_21)">
<path d="M333.519 97.5489C214.469 112.035 252.923 -51 252.923 -51H648V312.998C648 312.998 587.158 142.851 433.868 227.924C280.579 312.998 452.569 83.0628 333.519 97.5489Z" fill="url(#paint3_linear_116_21)"/>
</g>
</g>
<defs>
<filter id="filter0_d_116_21" x="241" y="-53" width="413" height="375.998" filterUnits="userSpaceOnUse" color-interpolation-filters="sRGB">
<feFlood flood-opacity="0" result="BackgroundImageFix"/>
<feColorMatrix in="SourceAlpha" type="matrix" values="0 0 0 0 0 0 0 0 0 0 0 0 0 0 0 0 0 0 127 0" result="hardAlpha"/>
<feOffset dy="4"/>
<feGaussianBlur stdDeviation="3"/>
<feComposite in2="hardAlpha" operator="out"/>
<feColorMatrix type="matrix" values="0 0 0 0 0 0 0 0 0 0 0 0 0 0 0 0 0 0 0.5 0"/>
<feBlend mode="normal" in2="BackgroundImageFix" result="effect1_dropShadow_116_21"/>
<feBlend mode="normal" in="SourceGraphic" in2="effect1_dropShadow_116_21" result="shape"/>
</filter>
<linearGradient id="paint0_linear_116_21" x1="648" y1="-0.000107" x2="-178.12" y2="149.102" gradientUnits="userSpaceOnUse">
<stop stop-color="#DFF2EB"/>
<stop offset="1" stop-color="#4A628A"/>
</linearGradient>
<linearGradient id="paint1_linear_116_21" x1="484.717" y1="1025.63" x2="615.028" y2="1133.04" gradientUnits="userSpaceOnUse">
<stop stop-color="#091057"/>
<stop offset="1" stop-color="#024CAA"/>
</linearGradient>
<linearGradient id="paint2_linear_116_21" x1="41" y1="-66" x2="212.5" y2="79" gradientUnits="userSpaceOnUse">
<stop stop-color="#FFF1DB"/>
<stop offset="1" stop-color="#D4BDAC"/>
</linearGradient>
<linearGradient id="paint3_linear_116_21" x1="1054.14" y1="-201.919" x2="210.255" y2="330.644" gradientUnits="userSpaceOnUse">
<stop stop-color="#9B7EBD"/>
<stop offset="1" stop-color="#3B1E54"/>
</linearGradient>
<clipPath id="clip0_116_21">
<rect width="648" height="1136" fill="white"/>
</clipPath>
</defs>
</svg>
