<svg width="1280" height="720" viewBox="0 0 1280 720" fill="none" xmlns="http://www.w3.org/2000/svg">
<g clip-path="url(#clip0_116_15)">
<rect width="1280" height="720" fill="url(#paint0_linear_116_15)"/>
<mask id="path-1-outside-1_116_15" maskUnits="userSpaceOnUse" x="-11" y="171" width="387" height="112" fill="black">
<rect fill="white" x="-11" y="171" width="387" height="112"/>
<path d="M62.9 192.35C62.9 192.85 62.7 193.3 62.3 193.7C62 194 61.6 194.15 61.1 194.15H12.05C11.55 194.15 11.3 194.4 11.3 194.9V218.15C11.3 218.65 11.55 218.9 12.05 218.9H44.3C44.8 218.9 45.2 219.1 45.5 219.5C45.9 219.8 46.1 220.2 46.1 220.7V235.25C46.1 235.75 45.9 236.2 45.5 236.6C45.2 236.9 44.8 237.05 44.3 237.05H12.05C11.55 237.05 11.3 237.3 11.3 237.8V279.2C11.3 279.7 11.1 280.15 10.7 280.55C10.4 280.85 10 281 9.5 281H-8.05C-8.55 281 -9 280.85 -9.4 280.55C-9.7 280.15 -9.85 279.7 -9.85 279.2V177.8C-9.85 177.3 -9.7 176.9 -9.4 176.6C-9 176.2 -8.55 176 -8.05 176H61.1C61.6 176 62 176.2 62.3 176.6C62.7 176.9 62.9 177.3 62.9 177.8V192.35ZM96.1613 202.7C102.661 202.7 108.461 203.85 113.561 206.15C118.661 208.35 122.611 211.4 125.411 215.3C128.311 219.2 129.761 223.55 129.761 228.35V279.2C129.761 279.7 129.561 280.15 129.161 280.55C128.861 280.85 128.461 281 127.961 281H110.411C109.911 281 109.461 280.85 109.061 280.55C108.761 280.15 108.611 279.7 108.611 279.2V274.25C108.611 273.95 108.511 273.75 108.311 273.65C108.111 273.55 107.911 273.65 107.711 273.95C103.511 279.45 96.7613 282.2 87.4613 282.2C79.6613 282.2 73.3613 280.3 68.5613 276.5C63.7613 272.7 61.3613 267.1 61.3613 259.7C61.3613 252 64.0613 246.05 69.4613 241.85C74.8613 237.55 82.5613 235.4 92.5613 235.4H107.861C108.361 235.4 108.611 235.15 108.611 234.65V231.35C108.611 228.05 107.611 225.5 105.611 223.7C103.611 221.8 100.611 220.85 96.6113 220.85C93.5113 220.85 90.9113 221.4 88.8113 222.5C86.8113 223.6 85.5113 225.15 84.9113 227.15C84.6113 228.25 83.9613 228.75 82.9613 228.65L64.8113 226.25C63.6113 226.05 63.0613 225.6 63.1613 224.9C63.5613 220.7 65.2113 216.9 68.1113 213.5C71.1113 210.1 75.0113 207.45 79.8113 205.55C84.7113 203.65 90.1613 202.7 96.1613 202.7ZM93.1613 266.45C97.4613 266.45 101.111 265.3 104.111 263C107.111 260.7 108.611 257.75 108.611 254.15V248.75C108.611 248.25 108.361 248 107.861 248H97.0613C92.5613 248 89.0113 248.85 86.4113 250.55C83.9113 252.25 82.6613 254.65 82.6613 257.75C82.6613 260.45 83.6113 262.6 85.5113 264.2C87.4113 265.7 89.9613 266.45 93.1613 266.45ZM184.859 202.7C192.859 202.7 199.309 205.15 204.209 210.05C209.109 214.95 211.559 221.6 211.559 230V279.2C211.559 279.7 211.359 280.15 210.959 280.55C210.659 280.85 210.259 281 209.759 281H192.209C191.709 281 191.259 280.85 190.859 280.55C190.559 280.15 190.409 279.7 190.409 279.2V234.35C190.409 230.35 189.259 227.1 186.959 224.6C184.759 222.1 181.809 220.85 178.109 220.85C174.409 220.85 171.409 222.1 169.109 224.6C166.909 227.1 165.809 230.35 165.809 234.35V279.2C165.809 279.7 165.609 280.15 165.209 280.55C164.909 280.85 164.509 281 164.009 281H146.459C145.959 281 145.509 280.85 145.109 280.55C144.809 280.15 144.659 279.7 144.659 279.2V177.8C144.659 177.3 144.809 176.9 145.109 176.6C145.509 176.2 145.959 176 146.459 176H164.009C164.509 176 164.909 176.2 165.209 176.6C165.609 176.9 165.809 177.3 165.809 177.8V210.95C165.809 211.25 165.909 211.45 166.109 211.55C166.309 211.65 166.459 211.6 166.559 211.4C170.659 205.6 176.759 202.7 184.859 202.7ZM312.191 202.7C319.991 202.7 326.091 205.05 330.491 209.75C334.891 214.45 337.091 221.05 337.091 229.55V279.2C337.091 279.7 336.891 280.15 336.491 280.55C336.191 280.85 335.791 281 335.291 281H317.741C317.241 281 316.791 280.85 316.391 280.55C316.091 280.15 315.941 279.7 315.941 279.2V234.2C315.941 230.1 314.891 226.85 312.791 224.45C310.691 222.05 307.891 220.85 304.391 220.85C300.891 220.85 298.041 222.05 295.841 224.45C293.641 226.85 292.541 230.05 292.541 234.05V279.2C292.541 279.7 292.341 280.15 291.941 280.55C291.641 280.85 291.241 281 290.741 281H273.341C272.841 281 272.391 280.85 271.991 280.55C271.691 280.15 271.541 279.7 271.541 279.2V234.2C271.541 230.2 270.441 227 268.241 224.6C266.041 222.1 263.191 220.85 259.691 220.85C256.491 220.85 253.791 221.8 251.591 223.7C249.491 225.6 248.241 228.25 247.841 231.65V279.2C247.841 279.7 247.641 280.15 247.241 280.55C246.941 280.85 246.541 281 246.041 281H228.491C227.991 281 227.541 280.85 227.141 280.55C226.841 280.15 226.691 279.7 226.691 279.2V205.7C226.691 205.2 226.841 204.8 227.141 204.5C227.541 204.1 227.991 203.9 228.491 203.9H246.041C246.541 203.9 246.941 204.1 247.241 204.5C247.641 204.8 247.841 205.2 247.841 205.7V211.55C247.841 211.85 247.941 212.05 248.141 212.15C248.341 212.25 248.541 212.15 248.741 211.85C252.841 205.75 259.191 202.7 267.791 202.7C272.791 202.7 277.141 203.75 280.841 205.85C284.641 207.95 287.541 210.95 289.541 214.85C289.841 215.45 290.191 215.45 290.591 214.85C292.791 210.75 295.741 207.7 299.441 205.7C303.241 203.7 307.491 202.7 312.191 202.7ZM363.335 195.2C359.935 195.2 357.085 194.1 354.785 191.9C352.585 189.6 351.485 186.75 351.485 183.35C351.485 179.85 352.585 177 354.785 174.8C356.985 172.6 359.835 171.5 363.335 171.5C366.835 171.5 369.685 172.6 371.885 174.8C374.085 177 375.185 179.85 375.185 183.35C375.185 186.75 374.035 189.6 371.735 191.9C369.535 194.1 366.735 195.2 363.335 195.2ZM354.335 281C353.835 281 353.385 280.85 352.985 280.55C352.685 280.15 352.535 279.7 352.535 279.2V205.55C352.535 205.05 352.685 204.65 352.985 204.35C353.385 203.95 353.835 203.75 354.335 203.75H371.885C372.385 203.75 372.785 203.95 373.085 204.35C373.485 204.65 373.685 205.05 373.685 205.55V279.2C373.685 279.7 373.485 280.15 373.085 280.55C372.785 280.85 372.385 281 371.885 281H354.335Z"/>
</mask>
<path d="M62.3 193.7L62.4414 193.841L62.4414 193.841L62.3 193.7ZM45.5 219.5L45.34 219.62L45.3571 219.643L45.38 219.66L45.5 219.5ZM10.7 280.55L10.8414 280.691L10.8414 280.691L10.7 280.55ZM-9.4 280.55L-9.56 280.67L-9.54286 280.693L-9.52 280.71L-9.4 280.55ZM-9.4 176.6L-9.54142 176.459L-9.54142 176.459L-9.4 176.6ZM62.3 176.6L62.14 176.72L62.1572 176.743L62.18 176.76L62.3 176.6ZM62.7 192.35C62.7 192.79 62.5264 193.191 62.1586 193.559L62.4414 193.841C62.8736 193.409 63.1 192.91 63.1 192.35H62.7ZM62.1586 193.559C61.9027 193.814 61.5572 193.95 61.1 193.95V194.35C61.6429 194.35 62.0973 194.186 62.4414 193.841L62.1586 193.559ZM61.1 193.95H12.05V194.35H61.1V193.95ZM12.05 193.95C11.7692 193.95 11.5218 194.02 11.3461 194.196C11.1703 194.372 11.1 194.619 11.1 194.9H11.5C11.5 194.681 11.5547 194.553 11.6289 194.479C11.7032 194.405 11.8308 194.35 12.05 194.35V193.95ZM11.1 194.9V218.15H11.5V194.9H11.1ZM11.1 218.15C11.1 218.431 11.1703 218.678 11.3461 218.854C11.5218 219.03 11.7692 219.1 12.05 219.1V218.7C11.8308 218.7 11.7032 218.645 11.6289 218.571C11.5547 218.497 11.5 218.369 11.5 218.15H11.1ZM12.05 219.1H44.3V218.7H12.05V219.1ZM44.3 219.1C44.7371 219.1 45.0778 219.27 45.34 219.62L45.66 219.38C45.3222 218.93 44.863 218.7 44.3 218.7V219.1ZM45.38 219.66C45.7296 219.922 45.9 220.263 45.9 220.7H46.3C46.3 220.137 46.0704 219.678 45.62 219.34L45.38 219.66ZM45.9 220.7V235.25H46.3V220.7H45.9ZM45.9 235.25C45.9 235.69 45.7264 236.091 45.3586 236.459L45.6414 236.741C46.0736 236.309 46.3 235.81 46.3 235.25H45.9ZM45.3586 236.459C45.1027 236.714 44.7572 236.85 44.3 236.85V237.25C44.8429 237.25 45.2973 237.086 45.6414 236.741L45.3586 236.459ZM44.3 236.85H12.05V237.25H44.3V236.85ZM12.05 236.85C11.7692 236.85 11.5218 236.92 11.3461 237.096C11.1703 237.272 11.1 237.519 11.1 237.8H11.5C11.5 237.581 11.5547 237.453 11.6289 237.379C11.7032 237.305 11.8308 237.25 12.05 237.25V236.85ZM11.1 237.8V279.2H11.5V237.8H11.1ZM11.1 279.2C11.1 279.64 10.9264 280.041 10.5586 280.409L10.8414 280.691C11.2736 280.259 11.5 279.76 11.5 279.2H11.1ZM10.5586 280.409C10.3027 280.664 9.95715 280.8 9.5 280.8V281.2C10.0429 281.2 10.4973 281.036 10.8414 280.691L10.5586 280.409ZM9.5 280.8H-8.05V281.2H9.5V280.8ZM-8.05 280.8C-8.50673 280.8 -8.91462 280.664 -9.28 280.39L-9.52 280.71C-9.08538 281.036 -8.59327 281.2 -8.05 281.2V280.8ZM-9.24 280.43C-9.51403 280.065 -9.65 279.657 -9.65 279.2H-10.05C-10.05 279.743 -9.88596 280.235 -9.56 280.67L-9.24 280.43ZM-9.65 279.2V177.8H-10.05V279.2H-9.65ZM-9.65 177.8C-9.65 177.343 -9.51443 176.997 -9.25858 176.741L-9.54142 176.459C-9.88557 176.803 -10.05 177.257 -10.05 177.8H-9.65ZM-9.25858 176.741C-8.89072 176.374 -8.48982 176.2 -8.05 176.2V175.8C-8.61018 175.8 -9.10928 176.026 -9.54142 176.459L-9.25858 176.741ZM-8.05 176.2H61.1V175.8H-8.05V176.2ZM61.1 176.2C61.5371 176.2 61.8778 176.37 62.14 176.72L62.46 176.48C62.1222 176.03 61.663 175.8 61.1 175.8V176.2ZM62.18 176.76C62.5296 177.022 62.7 177.363 62.7 177.8H63.1C63.1 177.237 62.8704 176.778 62.42 176.44L62.18 176.76ZM62.7 177.8V192.35H63.1V177.8H62.7ZM113.561 206.15L113.479 206.332L113.482 206.334L113.561 206.15ZM125.411 215.3L125.249 215.417L125.251 215.419L125.411 215.3ZM129.161 280.55L129.02 280.409L129.02 280.409L129.161 280.55ZM109.061 280.55L108.901 280.67L108.918 280.693L108.941 280.71L109.061 280.55ZM108.311 273.65L108.401 273.471L108.401 273.471L108.311 273.65ZM107.711 273.95L107.871 274.072L107.878 274.061L107.711 273.95ZM68.5613 276.5L68.6855 276.343L68.6855 276.343L68.5613 276.5ZM69.4613 241.85L69.5841 242.008L69.5859 242.006L69.4613 241.85ZM105.611 223.7L105.474 223.845L105.478 223.849L105.611 223.7ZM88.8113 222.5L88.7185 222.323L88.7149 222.325L88.8113 222.5ZM84.9113 227.15L84.7197 227.093L84.7184 227.097L84.9113 227.15ZM82.9613 228.65L82.9351 228.848L82.9414 228.849L82.9613 228.65ZM64.8113 226.25L64.7784 226.447L64.7851 226.448L64.8113 226.25ZM63.1613 224.9L63.3595 224.928L63.3604 224.919L63.1613 224.9ZM68.1113 213.5L67.9613 213.368L67.9592 213.37L68.1113 213.5ZM79.8113 205.55L79.739 205.364L79.7377 205.364L79.8113 205.55ZM86.4113 250.55L86.3019 250.383L86.2989 250.385L86.4113 250.55ZM85.5113 264.2L85.3824 264.353L85.3874 264.357L85.5113 264.2ZM96.1613 202.9C102.638 202.9 108.409 204.046 113.479 206.332L113.644 205.968C108.514 203.654 102.685 202.5 96.1613 202.5V202.9ZM113.482 206.334C118.554 208.522 122.473 211.55 125.249 215.417L125.574 215.183C122.75 211.25 118.769 208.178 113.641 205.966L113.482 206.334ZM125.251 215.419C128.126 219.285 129.561 223.594 129.561 228.35H129.961C129.961 223.506 128.497 219.115 125.572 215.181L125.251 215.419ZM129.561 228.35V279.2H129.961V228.35H129.561ZM129.561 279.2C129.561 279.64 129.388 280.041 129.02 280.409L129.303 280.691C129.735 280.259 129.961 279.76 129.961 279.2H129.561ZM129.02 280.409C128.764 280.664 128.418 280.8 127.961 280.8V281.2C128.504 281.2 128.959 281.036 129.303 280.691L129.02 280.409ZM127.961 280.8H110.411V281.2H127.961V280.8ZM110.411 280.8C109.955 280.8 109.547 280.664 109.181 280.39L108.941 280.71C109.376 281.036 109.868 281.2 110.411 281.2V280.8ZM109.221 280.43C108.947 280.065 108.811 279.657 108.811 279.2H108.411C108.411 279.743 108.575 280.235 108.901 280.67L109.221 280.43ZM108.811 279.2V274.25H108.411V279.2H108.811ZM108.811 274.25C108.811 273.904 108.692 273.617 108.401 273.471L108.222 273.829C108.331 273.883 108.411 273.996 108.411 274.25H108.811ZM108.401 273.471C108.244 273.393 108.078 273.393 107.922 273.471C107.777 273.543 107.654 273.676 107.545 273.839L107.878 274.061C107.969 273.924 108.045 273.857 108.101 273.829C108.144 273.807 108.178 273.807 108.222 273.829L108.401 273.471ZM107.552 273.829C103.402 279.263 96.7221 282 87.4613 282V282.4C96.8006 282.4 103.62 279.637 107.87 274.071L107.552 273.829ZM87.4613 282C79.6939 282 73.4414 280.108 68.6855 276.343L68.4372 276.657C73.2812 280.492 79.6288 282.4 87.4613 282.4V282ZM68.6855 276.343C63.9435 272.589 61.5613 267.053 61.5613 259.7H61.1613C61.1613 267.147 63.5792 272.811 68.4372 276.657L68.6855 276.343ZM61.5613 259.7C61.5613 252.053 64.2394 246.165 69.5841 242.008L69.3385 241.692C63.8833 245.935 61.1613 251.947 61.1613 259.7H61.5613ZM69.5859 242.006C74.9377 237.745 82.5869 235.6 92.5613 235.6V235.2C82.5358 235.2 74.785 237.355 69.3367 241.694L69.5859 242.006ZM92.5613 235.6H107.861V235.2H92.5613V235.6ZM107.861 235.6C108.142 235.6 108.39 235.53 108.565 235.354C108.741 235.178 108.811 234.931 108.811 234.65H108.411C108.411 234.869 108.357 234.997 108.282 235.071C108.208 235.145 108.081 235.2 107.861 235.2V235.6ZM108.811 234.65V231.35H108.411V234.65H108.811ZM108.811 231.35C108.811 228.007 107.797 225.398 105.745 223.551L105.478 223.849C107.426 225.602 108.411 228.093 108.411 231.35H108.811ZM105.749 223.555C103.698 221.607 100.64 220.65 96.6113 220.65V221.05C100.583 221.05 103.525 221.993 105.474 223.845L105.749 223.555ZM96.6113 220.65C93.4886 220.65 90.8546 221.204 88.7185 222.323L88.9041 222.677C90.9681 221.596 93.5341 221.05 96.6113 221.05V220.65ZM88.7149 222.325C86.6737 223.447 85.3363 225.037 84.7198 227.093L85.1029 227.207C85.6864 225.263 86.949 223.753 88.9077 222.675L88.7149 222.325ZM84.7184 227.097C84.5755 227.621 84.3561 227.977 84.0769 228.191C83.801 228.404 83.4426 228.497 82.9812 228.451L82.9414 228.849C83.4801 228.903 83.9467 228.796 84.3208 228.509C84.6916 228.223 84.9472 227.779 85.1043 227.203L84.7184 227.097ZM82.9875 228.452L64.8375 226.052L64.7851 226.448L82.9351 228.848L82.9875 228.452ZM64.8442 226.053C64.2572 225.955 63.8605 225.8 63.6255 225.608C63.4043 225.427 63.3193 225.209 63.3593 224.928L62.9633 224.872C62.9034 225.291 63.0433 225.648 63.3722 225.917C63.6871 226.175 64.1655 226.345 64.7784 226.447L64.8442 226.053ZM63.3604 224.919C63.7563 220.762 65.3885 217 68.2635 213.63L67.9592 213.37C65.0342 216.799 63.3664 220.638 62.9622 224.881L63.3604 224.919ZM68.2613 213.632C71.2377 210.259 75.1102 207.626 79.8849 205.736L79.7377 205.364C74.9125 207.274 70.985 209.941 67.9614 213.368L68.2613 213.632ZM79.8836 205.736C84.7576 203.847 90.1826 202.9 96.1613 202.9V202.5C90.1401 202.5 84.6651 203.453 79.739 205.364L79.8836 205.736ZM93.1613 266.65C97.499 266.65 101.193 265.489 104.233 263.159L103.99 262.841C101.029 265.111 97.4237 266.25 93.1613 266.25V266.65ZM104.233 263.159C107.28 260.823 108.811 257.816 108.811 254.15H108.411C108.411 257.684 106.943 260.577 103.99 262.841L104.233 263.159ZM108.811 254.15V248.75H108.411V254.15H108.811ZM108.811 248.75C108.811 248.469 108.741 248.222 108.565 248.046C108.39 247.87 108.142 247.8 107.861 247.8V248.2C108.081 248.2 108.208 248.255 108.282 248.329C108.357 248.403 108.411 248.531 108.411 248.75H108.811ZM107.861 247.8H97.0613V248.2H107.861V247.8ZM97.0613 247.8C92.539 247.8 88.9459 248.654 86.3019 250.383L86.5208 250.717C89.0767 249.046 92.5837 248.2 97.0613 248.2V247.8ZM86.2989 250.385C83.7425 252.123 82.4613 254.586 82.4613 257.75H82.8613C82.8613 254.714 84.0802 252.377 86.5238 250.715L86.2989 250.385ZM82.4613 257.75C82.4613 260.503 83.4331 262.711 85.3825 264.353L85.6402 264.047C83.7896 262.489 82.8613 260.397 82.8613 257.75H82.4613ZM85.3874 264.357C87.3326 265.893 89.9309 266.65 93.1613 266.65V266.25C89.9918 266.25 87.49 265.507 85.6353 264.043L85.3874 264.357ZM204.209 210.05L204.351 209.909L204.351 209.909L204.209 210.05ZM210.959 280.55L210.818 280.409L210.818 280.409L210.959 280.55ZM190.859 280.55L190.699 280.67L190.717 280.693L190.739 280.71L190.859 280.55ZM186.959 224.6L186.809 224.732L186.812 224.735L186.959 224.6ZM169.109 224.6L168.962 224.465L168.959 224.468L169.109 224.6ZM165.209 280.55L165.351 280.691L165.351 280.691L165.209 280.55ZM145.109 280.55L144.949 280.67L144.967 280.693L144.989 280.71L145.109 280.55ZM145.109 176.6L144.968 176.459L144.968 176.459L145.109 176.6ZM165.209 176.6L165.049 176.72L165.067 176.743L165.089 176.76L165.209 176.6ZM166.109 211.55L166.199 211.371L166.199 211.371L166.109 211.55ZM166.559 211.4L166.396 211.285L166.387 211.297L166.38 211.311L166.559 211.4ZM184.859 202.9C192.815 202.9 199.211 205.335 204.068 210.191L204.351 209.909C199.407 204.965 192.904 202.5 184.859 202.5V202.9ZM204.068 210.191C208.923 215.046 211.359 221.641 211.359 230H211.759C211.759 221.559 209.296 214.854 204.351 209.909L204.068 210.191ZM211.359 230V279.2H211.759V230H211.359ZM211.359 279.2C211.359 279.64 211.186 280.041 210.818 280.409L211.101 280.691C211.533 280.259 211.759 279.76 211.759 279.2H211.359ZM210.818 280.409C210.562 280.664 210.217 280.8 209.759 280.8V281.2C210.302 281.2 210.757 281.036 211.101 280.691L210.818 280.409ZM209.759 280.8H192.209V281.2H209.759V280.8ZM192.209 280.8C191.753 280.8 191.345 280.664 190.979 280.39L190.739 280.71C191.174 281.036 191.666 281.2 192.209 281.2V280.8ZM191.019 280.43C190.745 280.065 190.609 279.657 190.609 279.2H190.209C190.209 279.743 190.373 280.235 190.699 280.67L191.019 280.43ZM190.609 279.2V234.35H190.209V279.2H190.609ZM190.609 234.35C190.609 230.309 189.446 227.008 187.107 224.465L186.812 224.735C189.072 227.192 190.209 230.391 190.209 234.35H190.609ZM187.11 224.468C184.867 221.92 181.86 220.65 178.109 220.65V221.05C181.759 221.05 184.652 222.28 186.809 224.732L187.11 224.468ZM178.109 220.65C174.359 220.65 171.304 221.919 168.962 224.465L169.257 224.735C171.515 222.281 174.46 221.05 178.109 221.05V220.65ZM168.959 224.468C166.721 227.011 165.609 230.312 165.609 234.35H166.009C166.009 230.388 167.098 227.189 169.26 224.732L168.959 224.468ZM165.609 234.35V279.2H166.009V234.35H165.609ZM165.609 279.2C165.609 279.64 165.436 280.041 165.068 280.409L165.351 280.691C165.783 280.259 166.009 279.76 166.009 279.2H165.609ZM165.068 280.409C164.812 280.664 164.467 280.8 164.009 280.8V281.2C164.552 281.2 165.007 281.036 165.351 280.691L165.068 280.409ZM164.009 280.8H146.459V281.2H164.009V280.8ZM146.459 280.8C146.003 280.8 145.595 280.664 145.229 280.39L144.989 280.71C145.424 281.036 145.916 281.2 146.459 281.2V280.8ZM145.269 280.43C144.995 280.065 144.859 279.657 144.859 279.2H144.459C144.459 279.743 144.623 280.235 144.949 280.67L145.269 280.43ZM144.859 279.2V177.8H144.459V279.2H144.859ZM144.859 177.8C144.859 177.343 144.995 176.997 145.251 176.741L144.968 176.459C144.624 176.803 144.459 177.257 144.459 177.8H144.859ZM145.251 176.741C145.619 176.374 146.02 176.2 146.459 176.2V175.8C145.899 175.8 145.4 176.026 144.968 176.459L145.251 176.741ZM146.459 176.2H164.009V175.8H146.459V176.2ZM164.009 176.2C164.446 176.2 164.787 176.37 165.049 176.72L165.369 176.48C165.032 176.03 164.572 175.8 164.009 175.8V176.2ZM165.089 176.76C165.439 177.022 165.609 177.363 165.609 177.8H166.009C166.009 177.237 165.78 176.778 165.329 176.44L165.089 176.76ZM165.609 177.8V210.95H166.009V177.8H165.609ZM165.609 210.95C165.609 211.296 165.729 211.583 166.02 211.729L166.199 211.371C166.09 211.317 166.009 211.204 166.009 210.95H165.609ZM166.02 211.729C166.148 211.793 166.292 211.825 166.435 211.777C166.578 211.73 166.674 211.617 166.738 211.489L166.38 211.311C166.344 211.383 166.316 211.395 166.309 211.398C166.302 211.4 166.271 211.407 166.199 211.371L166.02 211.729ZM166.723 211.515C170.78 205.777 176.814 202.9 184.859 202.9V202.5C176.705 202.5 170.539 205.423 166.396 211.285L166.723 211.515ZM330.491 209.75L330.345 209.887L330.345 209.887L330.491 209.75ZM336.491 280.55L336.632 280.691L336.632 280.691L336.491 280.55ZM316.391 280.55L316.231 280.67L316.248 280.693L316.271 280.71L316.391 280.55ZM312.791 224.45L312.941 224.318L312.941 224.318L312.791 224.45ZM295.841 224.45L295.693 224.315L295.693 224.315L295.841 224.45ZM291.941 280.55L291.799 280.409L291.799 280.409L291.941 280.55ZM271.991 280.55L271.831 280.67L271.848 280.693L271.871 280.71L271.991 280.55ZM268.241 224.6L268.09 224.732L268.093 224.735L268.241 224.6ZM251.591 223.7L251.46 223.549L251.456 223.552L251.591 223.7ZM247.841 231.65L247.642 231.627L247.641 231.638V231.65H247.841ZM247.241 280.55L247.382 280.691L247.382 280.691L247.241 280.55ZM227.141 280.55L226.981 280.67L226.998 280.693L227.021 280.71L227.141 280.55ZM227.141 204.5L226.999 204.359L226.999 204.359L227.141 204.5ZM247.241 204.5L247.081 204.62L247.098 204.643L247.121 204.66L247.241 204.5ZM248.741 211.85L248.575 211.738L248.574 211.739L248.741 211.85ZM280.841 205.85L280.742 206.024L280.744 206.025L280.841 205.85ZM289.541 214.85L289.72 214.761L289.719 214.759L289.541 214.85ZM290.591 214.85L290.757 214.961L290.762 214.953L290.767 214.945L290.591 214.85ZM299.441 205.7L299.347 205.523L299.346 205.524L299.441 205.7ZM312.191 202.9C319.948 202.9 325.99 205.235 330.345 209.887L330.637 209.613C326.191 204.865 320.033 202.5 312.191 202.5V202.9ZM330.345 209.887C334.7 214.539 336.891 221.084 336.891 229.55H337.291C337.291 221.016 335.081 214.361 330.637 209.613L330.345 209.887ZM336.891 229.55V279.2H337.291V229.55H336.891ZM336.891 279.2C336.891 279.64 336.717 280.041 336.349 280.409L336.632 280.691C337.064 280.259 337.291 279.76 337.291 279.2H336.891ZM336.349 280.409C336.093 280.664 335.748 280.8 335.291 280.8V281.2C335.833 281.2 336.288 281.036 336.632 280.691L336.349 280.409ZM335.291 280.8H317.741V281.2H335.291V280.8ZM317.741 280.8C317.284 280.8 316.876 280.664 316.511 280.39L316.271 280.71C316.705 281.036 317.197 281.2 317.741 281.2V280.8ZM316.551 280.43C316.277 280.065 316.141 279.657 316.141 279.2H315.741C315.741 279.743 315.905 280.235 316.231 280.67L316.551 280.43ZM316.141 279.2V234.2H315.741V279.2H316.141ZM316.141 234.2C316.141 230.066 315.081 226.764 312.941 224.318L312.64 224.582C314.7 226.936 315.741 230.134 315.741 234.2H316.141ZM312.941 224.318C310.799 221.87 307.942 220.65 304.391 220.65V221.05C307.839 221.05 310.582 222.23 312.64 224.582L312.941 224.318ZM304.391 220.65C300.839 220.65 297.934 221.87 295.693 224.315L295.988 224.585C298.147 222.23 300.942 221.05 304.391 221.05V220.65ZM295.693 224.315C293.452 226.76 292.341 230.012 292.341 234.05H292.741C292.741 230.088 293.829 226.94 295.988 224.585L295.693 224.315ZM292.341 234.05V279.2H292.741V234.05H292.341ZM292.341 279.2C292.341 279.64 292.167 280.041 291.799 280.409L292.082 280.691C292.514 280.259 292.741 279.76 292.741 279.2H292.341ZM291.799 280.409C291.543 280.664 291.198 280.8 290.741 280.8V281.2C291.283 281.2 291.738 281.036 292.082 280.691L291.799 280.409ZM290.741 280.8H273.341V281.2H290.741V280.8ZM273.341 280.8C272.884 280.8 272.476 280.664 272.111 280.39L271.871 280.71C272.305 281.036 272.797 281.2 273.341 281.2V280.8ZM272.151 280.43C271.877 280.065 271.741 279.657 271.741 279.2H271.341C271.341 279.743 271.505 280.235 271.831 280.67L272.151 280.43ZM271.741 279.2V234.2H271.341V279.2H271.741ZM271.741 234.2C271.741 230.162 270.629 226.91 268.388 224.465L268.093 224.735C270.252 227.09 271.341 230.238 271.341 234.2H271.741ZM268.391 224.468C266.151 221.922 263.245 220.65 259.691 220.65V221.05C263.136 221.05 265.931 222.278 268.09 224.732L268.391 224.468ZM259.691 220.65C256.448 220.65 253.7 221.614 251.46 223.549L251.721 223.851C253.881 221.986 256.533 221.05 259.691 221.05V220.65ZM251.456 223.552C249.313 225.491 248.046 228.189 247.642 231.627L248.039 231.673C248.435 228.311 249.668 225.709 251.725 223.848L251.456 223.552ZM247.641 231.65V279.2H248.041V231.65H247.641ZM247.641 279.2C247.641 279.64 247.467 280.041 247.099 280.409L247.382 280.691C247.814 280.259 248.041 279.76 248.041 279.2H247.641ZM247.099 280.409C246.843 280.664 246.498 280.8 246.041 280.8V281.2C246.583 281.2 247.038 281.036 247.382 280.691L247.099 280.409ZM246.041 280.8H228.491V281.2H246.041V280.8ZM228.491 280.8C228.034 280.8 227.626 280.664 227.261 280.39L227.021 280.71C227.455 281.036 227.947 281.2 228.491 281.2V280.8ZM227.301 280.43C227.027 280.065 226.891 279.657 226.891 279.2H226.491C226.491 279.743 226.655 280.235 226.981 280.67L227.301 280.43ZM226.891 279.2V205.7H226.491V279.2H226.891ZM226.891 205.7C226.891 205.243 227.026 204.897 227.282 204.641L226.999 204.359C226.655 204.703 226.491 205.157 226.491 205.7H226.891ZM227.282 204.641C227.65 204.274 228.051 204.1 228.491 204.1V203.7C227.93 203.7 227.431 203.926 226.999 204.359L227.282 204.641ZM228.491 204.1H246.041V203.7H228.491V204.1ZM246.041 204.1C246.478 204.1 246.818 204.27 247.081 204.62L247.401 204.38C247.063 203.93 246.604 203.7 246.041 203.7V204.1ZM247.121 204.66C247.47 204.922 247.641 205.263 247.641 205.7H248.041C248.041 205.137 247.811 204.678 247.361 204.34L247.121 204.66ZM247.641 205.7V211.55H248.041V205.7H247.641ZM247.641 211.55C247.641 211.896 247.76 212.183 248.051 212.329L248.23 211.971C248.121 211.917 248.041 211.804 248.041 211.55H247.641ZM248.051 212.329C248.207 212.407 248.374 212.407 248.53 212.329C248.675 212.257 248.798 212.124 248.907 211.961L248.574 211.739C248.483 211.876 248.407 211.943 248.351 211.971C248.307 211.993 248.274 211.993 248.23 211.971L248.051 212.329ZM248.907 211.962C252.963 205.927 259.244 202.9 267.791 202.9V202.5C259.137 202.5 252.719 205.573 248.575 211.738L248.907 211.962ZM267.791 202.9C272.762 202.9 277.077 203.944 280.742 206.024L280.939 205.676C277.204 203.556 272.819 202.5 267.791 202.5V202.9ZM280.744 206.025C284.509 208.106 287.381 211.076 289.363 214.941L289.719 214.759C287.701 210.824 284.773 207.794 280.937 205.675L280.744 206.025ZM289.362 214.939C289.515 215.245 289.727 215.5 290.028 215.5C290.175 215.5 290.309 215.437 290.425 215.344C290.541 215.251 290.651 215.12 290.757 214.961L290.424 214.739C290.331 214.88 290.247 214.974 290.175 215.031C290.104 215.088 290.056 215.1 290.028 215.1C289.979 215.1 289.867 215.055 289.72 214.761L289.362 214.939ZM290.767 214.945C292.95 210.875 295.874 207.855 299.536 205.876L299.346 205.524C295.607 207.545 292.631 210.625 290.414 214.755L290.767 214.945ZM299.534 205.877C303.302 203.893 307.52 202.9 312.191 202.9V202.5C307.461 202.5 303.179 203.507 299.347 205.523L299.534 205.877ZM354.785 191.9L354.64 192.038L354.647 192.045L354.785 191.9ZM354.785 174.8L354.926 174.941L354.926 174.941L354.785 174.8ZM371.885 174.8L371.743 174.941L371.743 174.941L371.885 174.8ZM352.985 280.55L352.825 280.67L352.842 280.693L352.865 280.71L352.985 280.55ZM352.985 204.35L352.843 204.209L352.843 204.209L352.985 204.35ZM373.085 204.35L372.925 204.47L372.942 204.493L372.965 204.51L373.085 204.35ZM373.085 280.55L372.943 280.409L372.943 280.409L373.085 280.55ZM363.335 195C359.982 195 357.183 193.917 354.923 191.755L354.647 192.045C356.986 194.283 359.887 195.4 363.335 195.4V195ZM354.929 191.762C352.767 189.502 351.685 186.702 351.685 183.35H351.285C351.285 186.798 352.402 189.698 354.64 192.038L354.929 191.762ZM351.685 183.35C351.685 179.896 352.769 177.099 354.926 174.941L354.643 174.659C352.401 176.901 351.285 179.804 351.285 183.35H351.685ZM354.926 174.941C357.084 172.784 359.881 171.7 363.335 171.7V171.3C359.789 171.3 356.886 172.416 354.643 174.659L354.926 174.941ZM363.335 171.7C366.789 171.7 369.586 172.784 371.743 174.941L372.026 174.659C369.784 172.416 366.881 171.3 363.335 171.3V171.7ZM371.743 174.941C373.901 177.099 374.985 179.896 374.985 183.35H375.385C375.385 179.804 374.269 176.901 372.026 174.659L371.743 174.941ZM374.985 183.35C374.985 186.7 373.854 189.498 371.593 191.759L371.876 192.041C374.216 189.702 375.385 186.8 375.385 183.35H374.985ZM371.593 191.759C369.435 193.917 366.687 195 363.335 195V195.4C366.782 195.4 369.635 194.283 371.876 192.041L371.593 191.759ZM354.335 280.8C353.878 280.8 353.47 280.664 353.105 280.39L352.865 280.71C353.299 281.036 353.791 281.2 354.335 281.2V280.8ZM353.145 280.43C352.871 280.065 352.735 279.657 352.735 279.2H352.335C352.335 279.743 352.499 280.235 352.825 280.67L353.145 280.43ZM352.735 279.2V205.55H352.335V279.2H352.735ZM352.735 205.55C352.735 205.093 352.87 204.747 353.126 204.491L352.843 204.209C352.499 204.553 352.335 205.007 352.335 205.55H352.735ZM353.126 204.491C353.494 204.124 353.895 203.95 354.335 203.95V203.55C353.775 203.55 353.275 203.776 352.843 204.209L353.126 204.491ZM354.335 203.95H371.885V203.55H354.335V203.95ZM371.885 203.95C372.322 203.95 372.663 204.12 372.925 204.47L373.245 204.23C372.907 203.78 372.448 203.55 371.885 203.55V203.95ZM372.965 204.51C373.314 204.772 373.485 205.113 373.485 205.55H373.885C373.885 204.987 373.655 204.528 373.205 204.19L372.965 204.51ZM373.485 205.55V279.2H373.885V205.55H373.485ZM373.485 279.2C373.485 279.64 373.311 280.041 372.943 280.409L373.226 280.691C373.658 280.259 373.885 279.76 373.885 279.2H373.485ZM372.943 280.409C372.687 280.664 372.342 280.8 371.885 280.8V281.2C372.428 281.2 372.882 281.036 373.226 280.691L372.943 280.409ZM371.885 280.8H354.335V281.2H371.885V280.8Z" fill="white" mask="url(#path-1-outside-1_116_15)"/>
<mask id="path-3-outside-2_116_15" maskUnits="userSpaceOnUse" x="39" y="319" width="112" height="354" fill="black">
<rect fill="white" x="39" y="319" width="112" height="354"/>
<path d="M41 321.95C41 321.45 41.15 321 41.45 320.6C41.85 320.3 42.3 320.15 42.8 320.15H144.2C144.7 320.15 145.1 320.3 145.4 320.6C145.8 321 146 321.45 146 321.95V359.45C146 366.95 144.65 373.5 141.95 379.1C139.35 384.8 135.65 389.2 130.85 392.3C126.05 395.4 120.5 396.95 114.2 396.95H72.8C66.5 396.95 60.95 395.4 56.15 392.3C51.35 389.2 47.6 384.8 44.9 379.1C42.3 373.5 41 366.95 41 359.45V321.95ZM59.9 341.3C59.4 341.3 59.15 341.55 59.15 342.05V360.2C59.15 364.8 60.7 368.5 63.8 371.3C66.9 374.2 71.05 375.7 76.25 375.8H110.75C115.95 375.8 120.1 374.35 123.2 371.45C126.3 368.65 127.85 364.85 127.85 360.05V342.05C127.85 341.55 127.6 341.3 127.1 341.3H59.9ZM119.3 451.725C119.3 459.725 116.85 466.175 111.95 471.075C107.05 475.975 100.4 478.425 92 478.425H42.8C42.3 478.425 41.85 478.225 41.45 477.825C41.15 477.525 41 477.125 41 476.625V459.075C41 458.575 41.15 458.125 41.45 457.725C41.85 457.425 42.3 457.275 42.8 457.275H87.65C91.65 457.275 94.9 456.125 97.4 453.825C99.9 451.625 101.15 448.675 101.15 444.975C101.15 441.275 99.9 438.275 97.4 435.975C94.9 433.775 91.65 432.675 87.65 432.675H42.8C42.3 432.675 41.85 432.475 41.45 432.075C41.15 431.775 41 431.375 41 430.875V413.325C41 412.825 41.15 412.375 41.45 411.975C41.85 411.675 42.3 411.525 42.8 411.525H144.2C144.7 411.525 145.1 411.675 145.4 411.975C145.8 412.375 146 412.825 146 413.325V430.875C146 431.375 145.8 431.775 145.4 432.075C145.1 432.475 144.7 432.675 144.2 432.675H111.05C110.75 432.675 110.55 432.775 110.45 432.975C110.35 433.175 110.4 433.325 110.6 433.425C116.4 437.525 119.3 443.625 119.3 451.725ZM126.8 504.956C126.8 501.556 127.9 498.706 130.1 496.406C132.4 494.206 135.25 493.106 138.65 493.106C142.15 493.106 145 494.206 147.2 496.406C149.4 498.606 150.5 501.456 150.5 504.956C150.5 508.456 149.4 511.306 147.2 513.506C145 515.706 142.15 516.806 138.65 516.806C135.25 516.806 132.4 515.656 130.1 513.356C127.9 511.156 126.8 508.356 126.8 504.956ZM41 495.956C41 495.456 41.15 495.006 41.45 494.606C41.85 494.306 42.3 494.156 42.8 494.156H116.45C116.95 494.156 117.35 494.306 117.65 494.606C118.05 495.006 118.25 495.456 118.25 495.956V513.506C118.25 514.006 118.05 514.406 117.65 514.706C117.35 515.106 116.95 515.306 116.45 515.306H42.8C42.3 515.306 41.85 515.106 41.45 514.706C41.15 514.406 41 514.006 41 513.506V495.956ZM41 533.588C41 533.088 41.15 532.638 41.45 532.238C41.85 531.938 42.3 531.788 42.8 531.788H144.2C144.7 531.788 145.1 531.938 145.4 532.238C145.8 532.638 146 533.088 146 533.588V551.138C146 551.638 145.8 552.038 145.4 552.338C145.1 552.738 144.7 552.938 144.2 552.938H93.65C93.35 552.938 93.15 553.038 93.05 553.238C93.05 553.438 93.15 553.638 93.35 553.838L117.05 574.238C117.75 574.938 118.1 575.688 118.1 576.488V596.438C118.1 597.438 117.75 597.938 117.05 597.938C116.75 597.938 116.35 597.788 115.85 597.488L91.7 578.438C91.3 578.238 90.95 578.188 90.65 578.288L43.1 600.638C42.7 600.838 42.4 600.938 42.2 600.938C41.4 600.938 41 600.388 41 599.288V580.838C41 579.838 41.45 579.138 42.35 578.738L77.45 563.888C77.65 563.788 77.75 563.588 77.75 563.288C77.85 563.088 77.8 562.938 77.6 562.838L65.6 553.238C65.2 553.038 64.9 552.938 64.7 552.938H42.8C42.3 552.938 41.85 552.738 41.45 552.338C41.15 552.038 41 551.638 41 551.138L41 533.588ZM119.3 639.15C119.3 645.65 118.15 651.45 115.85 656.55C113.65 661.65 110.6 665.6 106.7 668.4C102.8 671.3 98.45 672.75 93.65 672.75H42.8C42.3 672.75 41.85 672.55 41.45 672.15C41.15 671.85 41 671.45 41 670.95V653.4C41 652.9 41.15 652.45 41.45 652.05C41.85 651.75 42.3 651.6 42.8 651.6H47.75C48.05 651.6 48.25 651.5 48.35 651.3C48.45 651.1 48.35 650.9 48.05 650.7C42.55 646.5 39.8 639.75 39.8 630.45C39.8 622.65 41.7 616.35 45.5 611.55C49.3 606.75 54.9 604.35 62.3 604.35C70 604.35 75.95 607.05 80.15 612.45C84.45 617.85 86.6 625.55 86.6 635.55V650.85C86.6 651.35 86.85 651.6 87.35 651.6H90.65C93.95 651.6 96.5 650.6 98.3 648.6C100.2 646.6 101.15 643.6 101.15 639.6C101.15 636.5 100.6 633.9 99.5 631.8C98.4 629.8 96.85 628.5 94.85 627.9C93.75 627.6 93.25 626.95 93.35 625.95L95.75 607.8C95.95 606.6 96.4 606.05 97.1 606.15C101.3 606.55 105.1 608.2 108.5 611.1C111.9 614.1 114.55 618 116.45 622.8C118.35 627.7 119.3 633.15 119.3 639.15ZM55.55 636.15C55.55 640.45 56.7 644.1 59 647.1C61.3 650.1 64.25 651.6 67.85 651.6H73.25C73.75 651.6 74 651.35 74 650.85V640.05C74 635.55 73.15 632 71.45 629.4C69.75 626.9 67.35 625.65 64.25 625.65C61.55 625.65 59.4 626.6 57.8 628.5C56.3 630.4 55.55 632.95 55.55 636.15Z"/>
</mask>
<path d="M41.45 320.6L41.33 320.44L41.3071 320.457L41.29 320.48L41.45 320.6ZM145.4 320.6L145.541 320.459L145.541 320.459L145.4 320.6ZM141.95 379.1L141.77 379.013L141.768 379.017L141.95 379.1ZM130.85 392.3L130.959 392.468L130.959 392.468L130.85 392.3ZM56.15 392.3L56.0415 392.468L56.0415 392.468L56.15 392.3ZM44.9 379.1L44.7186 379.184L44.7193 379.186L44.9 379.1ZM63.8 371.3L63.9367 371.154L63.9341 371.152L63.8 371.3ZM76.25 375.8L76.2462 376H76.25V375.8ZM123.2 371.45L123.066 371.302L123.063 371.304L123.2 371.45ZM41.2 321.95C41.2 321.493 41.336 321.085 41.61 320.72L41.29 320.48C40.964 320.915 40.8 321.407 40.8 321.95H41.2ZM41.57 320.76C41.9354 320.486 42.3433 320.35 42.8 320.35V319.95C42.2567 319.95 41.7646 320.114 41.33 320.44L41.57 320.76ZM42.8 320.35H144.2V319.95H42.8V320.35ZM144.2 320.35C144.657 320.35 145.003 320.486 145.259 320.741L145.541 320.459C145.197 320.114 144.743 319.95 144.2 319.95V320.35ZM145.259 320.741C145.626 321.109 145.8 321.51 145.8 321.95H146.2C146.2 321.39 145.974 320.891 145.541 320.459L145.259 320.741ZM145.8 321.95V359.45H146.2V321.95H145.8ZM145.8 359.45C145.8 366.926 144.454 373.445 141.77 379.013L142.13 379.187C144.846 373.555 146.2 366.974 146.2 359.45H145.8ZM141.768 379.017C139.182 384.686 135.506 389.055 130.742 392.132L130.959 392.468C135.794 389.345 139.518 384.914 142.132 379.183L141.768 379.017ZM130.742 392.132C125.977 395.209 120.466 396.75 114.2 396.75V397.15C120.534 397.15 126.123 395.591 130.959 392.468L130.742 392.132ZM114.2 396.75H72.8V397.15H114.2V396.75ZM72.8 396.75C66.5344 396.75 61.0229 395.209 56.2585 392.132L56.0415 392.468C60.8771 395.591 66.4656 397.15 72.8 397.15V396.75ZM56.2585 392.132C51.493 389.054 47.7665 384.684 45.0807 379.014L44.7193 379.186C47.4335 384.916 51.207 389.346 56.0415 392.468L56.2585 392.132ZM45.0814 379.016C42.496 373.447 41.2 366.927 41.2 359.45H40.8C40.8 366.973 42.104 373.553 44.7186 379.184L45.0814 379.016ZM41.2 359.45V321.95H40.8V359.45H41.2ZM59.9 341.1C59.6192 341.1 59.3718 341.17 59.1961 341.346C59.0203 341.522 58.95 341.769 58.95 342.05H59.35C59.35 341.831 59.4047 341.703 59.4789 341.629C59.5532 341.555 59.6808 341.5 59.9 341.5V341.1ZM58.95 342.05V360.2H59.35V342.05H58.95ZM58.95 360.2C58.95 364.85 60.5194 368.606 63.6659 371.448L63.9341 371.152C60.8806 368.394 59.35 364.75 59.35 360.2H58.95ZM63.6634 371.446C66.8071 374.387 71.0084 375.899 76.2462 376L76.2538 375.6C71.0916 375.501 66.9929 374.013 63.9366 371.154L63.6634 371.446ZM76.25 376H110.75V375.6H76.25V376ZM110.75 376C115.989 376 120.192 374.538 123.337 371.596L123.063 371.304C120.008 374.162 115.911 375.6 110.75 375.6V376ZM123.334 371.598C126.482 368.755 128.05 364.897 128.05 360.05H127.65C127.65 364.803 126.118 368.545 123.066 371.302L123.334 371.598ZM128.05 360.05V342.05H127.65V360.05H128.05ZM128.05 342.05C128.05 341.769 127.98 341.522 127.804 341.346C127.628 341.17 127.381 341.1 127.1 341.1V341.5C127.319 341.5 127.447 341.555 127.521 341.629C127.595 341.703 127.65 341.831 127.65 342.05H128.05ZM127.1 341.1H59.9V341.5H127.1V341.1ZM111.95 471.075L112.091 471.216L112.091 471.216L111.95 471.075ZM41.45 477.825L41.5914 477.683L41.5914 477.683L41.45 477.825ZM41.45 457.725L41.33 457.565L41.3071 457.582L41.29 457.605L41.45 457.725ZM97.4 453.825L97.2678 453.674L97.2646 453.677L97.4 453.825ZM97.4 435.975L97.5354 435.827L97.5321 435.824L97.4 435.975ZM41.45 432.075L41.3086 432.216L41.3086 432.216L41.45 432.075ZM41.45 411.975L41.33 411.815L41.3071 411.832L41.29 411.855L41.45 411.975ZM145.4 411.975L145.541 411.833L145.541 411.833L145.4 411.975ZM145.4 432.075L145.28 431.915L145.257 431.932L145.24 431.955L145.4 432.075ZM110.45 432.975L110.629 433.064L110.629 433.064L110.45 432.975ZM110.6 433.425L110.715 433.261L110.703 433.253L110.689 433.246L110.6 433.425ZM119.1 451.725C119.1 459.68 116.665 466.077 111.809 470.933L112.091 471.216C117.035 466.273 119.5 459.769 119.5 451.725H119.1ZM111.809 470.933C106.954 475.788 100.359 478.225 92 478.225V478.625C100.441 478.625 107.146 476.161 112.091 471.216L111.809 470.933ZM92 478.225H42.8V478.625H92V478.225ZM42.8 478.225C42.3602 478.225 41.9593 478.051 41.5914 477.683L41.3086 477.966C41.7407 478.398 42.2398 478.625 42.8 478.625V478.225ZM41.5914 477.683C41.3356 477.427 41.2 477.082 41.2 476.625H40.8C40.8 477.167 40.9644 477.622 41.3086 477.966L41.5914 477.683ZM41.2 476.625V459.075H40.8V476.625H41.2ZM41.2 459.075C41.2 458.618 41.336 458.21 41.61 457.845L41.29 457.605C40.964 458.039 40.8 458.531 40.8 459.075H41.2ZM41.57 457.885C41.9354 457.611 42.3433 457.475 42.8 457.475V457.075C42.2567 457.075 41.7646 457.239 41.33 457.565L41.57 457.885ZM42.8 457.475H87.65V457.075H42.8V457.475ZM87.65 457.475C91.6907 457.475 94.9921 456.312 97.5354 453.972L97.2646 453.677C94.8079 455.938 91.6093 457.075 87.65 457.075V457.475ZM97.5321 453.975C100.08 451.732 101.35 448.725 101.35 444.975H100.95C100.95 448.624 99.7196 451.517 97.2679 453.674L97.5321 453.975ZM101.35 444.975C101.35 441.224 100.081 438.169 97.5354 435.827L97.2646 436.122C99.7195 438.38 100.95 441.325 100.95 444.975H101.35ZM97.5321 435.824C94.9886 433.586 91.6884 432.475 87.65 432.475V432.875C91.6116 432.875 94.8114 433.963 97.2679 436.125L97.5321 435.824ZM87.65 432.475H42.8V432.875H87.65V432.475ZM42.8 432.475C42.3602 432.475 41.9593 432.301 41.5914 431.933L41.3086 432.216C41.7407 432.648 42.2398 432.875 42.8 432.875V432.475ZM41.5914 431.933C41.3356 431.677 41.2 431.332 41.2 430.875H40.8C40.8 431.417 40.9644 431.872 41.3086 432.216L41.5914 431.933ZM41.2 430.875V413.325H40.8V430.875H41.2ZM41.2 413.325C41.2 412.868 41.336 412.46 41.61 412.095L41.29 411.855C40.964 412.289 40.8 412.781 40.8 413.325H41.2ZM41.57 412.135C41.9354 411.861 42.3433 411.725 42.8 411.725V411.325C42.2567 411.325 41.7646 411.489 41.33 411.815L41.57 412.135ZM42.8 411.725H144.2V411.325H42.8V411.725ZM144.2 411.725C144.657 411.725 145.003 411.86 145.259 412.116L145.541 411.833C145.197 411.489 144.743 411.325 144.2 411.325V411.725ZM145.259 412.116C145.626 412.484 145.8 412.885 145.8 413.325H146.2C146.2 412.764 145.974 412.265 145.541 411.833L145.259 412.116ZM145.8 413.325V430.875H146.2V413.325H145.8ZM145.8 430.875C145.8 431.312 145.63 431.652 145.28 431.915L145.52 432.235C145.97 431.897 146.2 431.438 146.2 430.875H145.8ZM145.24 431.955C144.978 432.304 144.637 432.475 144.2 432.475V432.875C144.763 432.875 145.222 432.645 145.56 432.195L145.24 431.955ZM144.2 432.475H111.05V432.875H144.2V432.475ZM111.05 432.475C110.704 432.475 110.417 432.594 110.271 432.885L110.629 433.064C110.683 432.955 110.796 432.875 111.05 432.875V432.475ZM110.271 432.885C110.207 433.013 110.175 433.157 110.223 433.3C110.27 433.443 110.383 433.54 110.511 433.603L110.689 433.246C110.617 433.21 110.605 433.181 110.602 433.174C110.6 433.167 110.593 433.136 110.629 433.064L110.271 432.885ZM110.485 433.588C116.223 437.645 119.1 443.679 119.1 451.725H119.5C119.5 443.57 116.577 437.404 110.715 433.261L110.485 433.588ZM130.1 496.406L129.962 496.261L129.955 496.268L130.1 496.406ZM147.2 496.406L147.059 496.547L147.059 496.547L147.2 496.406ZM147.2 513.506L147.059 513.364L147.059 513.364L147.2 513.506ZM41.45 494.606L41.33 494.446L41.3071 494.463L41.29 494.486L41.45 494.606ZM117.65 494.606L117.791 494.464L117.791 494.464L117.65 494.606ZM117.65 514.706L117.53 514.546L117.507 514.563L117.49 514.586L117.65 514.706ZM41.45 514.706L41.5914 514.564L41.5914 514.564L41.45 514.706ZM127 504.956C127 501.603 128.083 498.804 130.245 496.544L129.955 496.268C127.717 498.608 126.6 501.508 126.6 504.956H127ZM130.238 496.55C132.498 494.389 135.298 493.306 138.65 493.306V492.906C135.202 492.906 132.302 494.023 129.962 496.261L130.238 496.55ZM138.65 493.306C142.104 493.306 144.901 494.39 147.059 496.547L147.341 496.264C145.099 494.022 142.196 492.906 138.65 492.906V493.306ZM147.059 496.547C149.216 498.705 150.3 501.502 150.3 504.956H150.7C150.7 501.41 149.584 498.507 147.341 496.264L147.059 496.547ZM150.3 504.956C150.3 508.41 149.216 511.207 147.059 513.364L147.341 513.647C149.584 511.405 150.7 508.502 150.7 504.956H150.3ZM147.059 513.364C144.901 515.522 142.104 516.606 138.65 516.606V517.006C142.196 517.006 145.099 515.89 147.341 513.647L147.059 513.364ZM138.65 516.606C135.3 516.606 132.502 515.475 130.241 513.214L129.959 513.497C132.298 515.837 135.2 517.006 138.65 517.006V516.606ZM130.241 513.214C128.083 511.056 127 508.308 127 504.956H126.6C126.6 508.403 127.717 511.256 129.959 513.497L130.241 513.214ZM41.2 495.956C41.2 495.499 41.336 495.091 41.61 494.726L41.29 494.486C40.964 494.92 40.8 495.413 40.8 495.956H41.2ZM41.57 494.766C41.9354 494.492 42.3433 494.356 42.8 494.356V493.956C42.2567 493.956 41.7646 494.12 41.33 494.446L41.57 494.766ZM42.8 494.356H116.45V493.956H42.8V494.356ZM116.45 494.356C116.907 494.356 117.253 494.491 117.509 494.747L117.791 494.464C117.447 494.12 116.993 493.956 116.45 493.956V494.356ZM117.509 494.747C117.876 495.115 118.05 495.516 118.05 495.956H118.45C118.45 495.396 118.224 494.897 117.791 494.464L117.509 494.747ZM118.05 495.956V513.506H118.45V495.956H118.05ZM118.05 513.506C118.05 513.943 117.88 514.284 117.53 514.546L117.77 514.866C118.22 514.528 118.45 514.069 118.45 513.506H118.05ZM117.49 514.586C117.228 514.935 116.887 515.106 116.45 515.106V515.506C117.013 515.506 117.472 515.276 117.81 514.826L117.49 514.586ZM116.45 515.106H42.8V515.506H116.45V515.106ZM42.8 515.106C42.3602 515.106 41.9593 514.932 41.5914 514.564L41.3086 514.847C41.7407 515.279 42.2398 515.506 42.8 515.506V515.106ZM41.5914 514.564C41.3356 514.309 41.2 513.963 41.2 513.506H40.8C40.8 514.049 40.9644 514.503 41.3086 514.847L41.5914 514.564ZM41.2 513.506V495.956H40.8V513.506H41.2ZM41.45 532.238L41.33 532.078L41.3071 532.095L41.29 532.118L41.45 532.238ZM145.4 532.238L145.541 532.097L145.541 532.097L145.4 532.238ZM145.4 552.338L145.28 552.178L145.257 552.195L145.24 552.218L145.4 552.338ZM93.05 553.238L92.8711 553.149L92.85 553.191V553.238H93.05ZM93.35 553.838L93.2086 553.98L93.2139 553.985L93.2195 553.99L93.35 553.838ZM117.05 574.238L117.191 574.097L117.186 574.092L117.18 574.087L117.05 574.238ZM115.85 597.488L115.726 597.645L115.736 597.653L115.747 597.66L115.85 597.488ZM91.7 578.438L91.8239 578.281L91.8078 578.269L91.7894 578.259L91.7 578.438ZM90.65 578.288L90.5868 578.099L90.5756 578.102L90.5649 578.107L90.65 578.288ZM43.1 600.638L43.0149 600.457L43.0106 600.459L43.1 600.638ZM42.35 578.738L42.2721 578.554L42.2688 578.556L42.35 578.738ZM77.45 563.888L77.5281 564.073L77.5394 564.067L77.45 563.888ZM77.75 563.288L77.5711 563.199L77.55 563.241V563.288H77.75ZM77.6 562.838L77.4751 562.994L77.4916 563.008L77.5106 563.017L77.6 562.838ZM65.6 553.238L65.7249 553.082L65.7084 553.069L65.6894 553.059L65.6 553.238ZM41.45 552.338L41.3086 552.48L41.3086 552.48L41.45 552.338ZM41.2 533.588C41.2 533.132 41.336 532.724 41.61 532.358L41.29 532.118C40.964 532.553 40.8 533.045 40.8 533.588H41.2ZM41.57 532.398C41.9354 532.124 42.3433 531.988 42.8 531.988V531.588C42.2567 531.588 41.7646 531.752 41.33 532.078L41.57 532.398ZM42.8 531.988H144.2V531.588H42.8V531.988ZM144.2 531.988C144.657 531.988 145.003 532.124 145.259 532.38L145.541 532.097C145.197 531.753 144.743 531.588 144.2 531.588V531.988ZM145.259 532.38C145.626 532.748 145.8 533.148 145.8 533.588H146.2C146.2 533.028 145.974 532.529 145.541 532.097L145.259 532.38ZM145.8 533.588V551.138H146.2V533.588H145.8ZM145.8 551.138C145.8 551.575 145.63 551.916 145.28 552.178L145.52 552.498C145.97 552.161 146.2 551.701 146.2 551.138H145.8ZM145.24 552.218C144.978 552.568 144.637 552.738 144.2 552.738V553.138C144.763 553.138 145.222 552.909 145.56 552.458L145.24 552.218ZM144.2 552.738H93.65V553.138H144.2V552.738ZM93.65 552.738C93.3044 552.738 93.0167 552.858 92.8711 553.149L93.2289 553.328C93.2833 553.219 93.3956 553.138 93.65 553.138V552.738ZM92.85 553.238C92.85 553.51 92.9868 553.758 93.2086 553.98L93.4914 553.697C93.3132 553.519 93.25 553.367 93.25 553.238H92.85ZM93.2195 553.99L116.92 574.39L117.18 574.087L93.4805 553.687L93.2195 553.99ZM116.909 574.38C117.581 575.052 117.9 575.753 117.9 576.488H118.3C118.3 575.623 117.919 574.825 117.191 574.097L116.909 574.38ZM117.9 576.488V596.438H118.3V576.488H117.9ZM117.9 596.438C117.9 596.921 117.814 597.248 117.674 597.449C117.542 597.637 117.346 597.738 117.05 597.738V598.138C117.454 598.138 117.783 597.99 118.001 597.678C118.211 597.379 118.3 596.955 118.3 596.438H117.9ZM117.05 597.738C116.807 597.738 116.446 597.613 115.953 597.317L115.747 597.66C116.254 597.964 116.693 598.138 117.05 598.138V597.738ZM115.974 597.331L91.8239 578.281L91.5761 578.595L115.726 597.645L115.974 597.331ZM91.7894 578.259C91.3619 578.046 90.9548 577.976 90.5868 578.099L90.7132 578.478C90.9452 578.401 91.2381 578.431 91.6106 578.617L91.7894 578.259ZM90.5649 578.107L43.0149 600.457L43.1851 600.819L90.7351 578.469L90.5649 578.107ZM43.0106 600.459C42.6121 600.659 42.349 600.738 42.2 600.738V601.138C42.451 601.138 42.7879 601.018 43.1894 600.817L43.0106 600.459ZM42.2 600.738C41.8512 600.738 41.6171 600.622 41.4617 600.408C41.2977 600.183 41.2 599.82 41.2 599.288H40.8C40.8 599.857 40.9023 600.319 41.1383 600.643C41.3829 600.98 41.7488 601.138 42.2 601.138V600.738ZM41.2 599.288V580.838H40.8V599.288H41.2ZM41.2 580.838C41.2 580.369 41.3053 579.983 41.5057 579.671C41.706 579.36 42.0102 579.108 42.4312 578.921L42.2688 578.556C41.7898 578.768 41.419 579.067 41.1693 579.455C40.9197 579.843 40.8 580.308 40.8 580.838H41.2ZM42.4279 578.922L77.5279 564.072L77.3721 563.704L42.2721 578.554L42.4279 578.922ZM77.5394 564.067C77.8305 563.922 77.95 563.634 77.95 563.288H77.55C77.55 563.543 77.4695 563.655 77.3606 563.709L77.5394 564.067ZM77.9289 563.378C77.9927 563.25 78.0249 563.106 77.9772 562.963C77.9295 562.819 77.817 562.723 77.6894 562.659L77.5106 563.017C77.583 563.053 77.5955 563.082 77.5978 563.089C77.6001 563.096 77.6073 563.126 77.5711 563.199L77.9289 563.378ZM77.7249 562.682L65.7249 553.082L65.4751 553.394L77.4751 562.994L77.7249 562.682ZM65.6894 553.059C65.2879 552.859 64.951 552.738 64.7 552.738V553.138C64.849 553.138 65.1121 553.218 65.5106 553.417L65.6894 553.059ZM64.7 552.738H42.8V553.138H64.7V552.738ZM42.8 552.738C42.3602 552.738 41.9593 552.565 41.5914 552.197L41.3086 552.48C41.7407 552.912 42.2398 553.138 42.8 553.138V552.738ZM41.5914 552.197C41.3356 551.941 41.2 551.595 41.2 551.138H40.8C40.8 551.681 40.9644 552.136 41.3086 552.48L41.5914 552.197ZM41.2 551.138L41.2 533.588H40.8L40.8 551.138H41.2ZM115.85 656.55L115.668 656.467L115.666 656.47L115.85 656.55ZM106.7 668.4L106.583 668.237L106.581 668.239L106.7 668.4ZM41.45 672.15L41.5914 672.008L41.5914 672.008L41.45 672.15ZM41.45 652.05L41.33 651.89L41.3071 651.907L41.29 651.93L41.45 652.05ZM48.35 651.3L48.5289 651.389L48.5289 651.389L48.35 651.3ZM48.05 650.7L47.9284 650.859L47.9391 650.866L48.05 650.7ZM45.5 611.55L45.6568 611.674L45.6568 611.674L45.5 611.55ZM80.15 612.45L79.9921 612.572L79.9935 612.574L80.15 612.45ZM98.3 648.6L98.155 648.462L98.1513 648.466L98.3 648.6ZM99.5 631.8L99.6772 631.707L99.6752 631.703L99.5 631.8ZM94.85 627.9L94.9075 627.708L94.9026 627.707L94.85 627.9ZM93.35 625.95L93.1516 625.923L93.151 625.93L93.35 625.95ZM95.75 607.8L95.5526 607.767L95.5517 607.773L95.75 607.8ZM97.1 606.15L97.0717 606.348L97.081 606.349L97.1 606.15ZM108.5 611.1L108.632 610.95L108.63 610.947L108.5 611.1ZM116.45 622.8L116.636 622.727L116.636 622.726L116.45 622.8ZM71.45 629.4L71.6174 629.29L71.6154 629.287L71.45 629.4ZM57.8 628.5L57.6469 628.371L57.643 628.376L57.8 628.5ZM119.1 639.15C119.1 645.626 117.954 651.397 115.668 656.467L116.032 656.632C118.346 651.502 119.5 645.673 119.5 639.15H119.1ZM115.666 656.47C113.478 661.542 110.45 665.461 106.583 668.237L106.817 668.562C110.75 665.738 113.822 661.757 116.034 656.629L115.666 656.47ZM106.581 668.239C102.715 671.114 98.4064 672.55 93.65 672.55V672.95C98.4936 672.95 102.885 671.485 106.819 668.56L106.581 668.239ZM93.65 672.55H42.8V672.95H93.65V672.55ZM42.8 672.55C42.3602 672.55 41.9593 672.376 41.5914 672.008L41.3086 672.291C41.7407 672.723 42.2398 672.95 42.8 672.95V672.55ZM41.5914 672.008C41.3356 671.752 41.2 671.407 41.2 670.95H40.8C40.8 671.492 40.9644 671.947 41.3086 672.291L41.5914 672.008ZM41.2 670.95V653.4H40.8V670.95H41.2ZM41.2 653.4C41.2 652.943 41.336 652.535 41.61 652.17L41.29 651.93C40.964 652.364 40.8 652.856 40.8 653.4H41.2ZM41.57 652.21C41.9354 651.936 42.3433 651.8 42.8 651.8V651.4C42.2567 651.4 41.7646 651.564 41.33 651.89L41.57 652.21ZM42.8 651.8H47.75V651.4H42.8V651.8ZM47.75 651.8C48.0956 651.8 48.3833 651.68 48.5289 651.389L48.1711 651.21C48.1167 651.319 48.0044 651.4 47.75 651.4V651.8ZM48.5289 651.389C48.607 651.233 48.607 651.066 48.5289 650.91C48.4566 650.766 48.324 650.642 48.1609 650.533L47.9391 650.866C48.076 650.957 48.1434 651.034 48.1711 651.089C48.193 651.133 48.193 651.166 48.1711 651.21L48.5289 651.389ZM48.1714 650.541C42.7368 646.391 40 639.71 40 630.45H39.6C39.6 639.789 42.3632 646.609 47.9286 650.859L48.1714 650.541ZM40 630.45C40 622.682 41.8917 616.43 45.6568 611.674L45.3432 611.425C41.5083 616.27 39.6 622.617 39.6 630.45H40ZM45.6568 611.674C49.4109 606.932 54.9469 604.55 62.3 604.55V604.15C54.8531 604.15 49.1891 606.567 45.3432 611.425L45.6568 611.674ZM62.3 604.55C69.9471 604.55 75.8351 607.228 79.9921 612.572L80.3079 612.327C76.0649 606.872 70.0529 604.15 62.3 604.15V604.55ZM79.9935 612.574C84.2551 617.926 86.4 625.575 86.4 635.55H86.8C86.8 625.524 84.6449 617.773 80.3065 612.325L79.9935 612.574ZM86.4 635.55V650.85H86.8V635.55H86.4ZM86.4 650.85C86.4 651.13 86.4703 651.378 86.6461 651.554C86.8218 651.729 87.0692 651.8 87.35 651.8V651.4C87.1308 651.4 87.0032 651.345 86.9289 651.271C86.8547 651.196 86.8 651.069 86.8 650.85H86.4ZM87.35 651.8H90.65V651.4H87.35V651.8ZM90.65 651.8C93.9928 651.8 96.6023 650.785 98.4487 648.733L98.1513 648.466C96.3977 650.414 93.9072 651.4 90.65 651.4V651.8ZM98.445 648.737C100.393 646.686 101.35 643.628 101.35 639.6H100.95C100.95 643.571 100.007 646.513 98.155 648.462L98.445 648.737ZM101.35 639.6C101.35 636.477 100.796 633.843 99.6772 631.707L99.3228 631.892C100.404 633.956 100.95 636.522 100.95 639.6H101.35ZM99.6752 631.703C98.5526 629.662 96.9626 628.325 94.9075 627.708L94.7925 628.091C96.7374 628.675 98.2474 629.937 99.3248 631.896L99.6752 631.703ZM94.9026 627.707C94.3786 627.564 94.0233 627.344 93.8085 627.065C93.5963 626.789 93.5029 626.431 93.549 625.97L93.151 625.93C93.0971 626.468 93.2037 626.935 93.4915 627.309C93.7767 627.68 94.2214 627.935 94.7974 628.093L94.9026 627.707ZM93.5483 625.976L95.9483 607.826L95.5517 607.773L93.1517 625.923L93.5483 625.976ZM95.9473 607.832C96.0451 607.245 96.2 606.849 96.3923 606.614C96.5732 606.393 96.7914 606.308 97.0717 606.348L97.1283 605.952C96.7086 605.892 96.3518 606.032 96.0827 606.36C95.825 606.675 95.6549 607.154 95.5527 607.767L95.9473 607.832ZM97.081 606.349C101.238 606.745 105 608.377 108.37 611.252L108.63 610.947C105.201 608.022 101.362 606.355 97.119 605.951L97.081 606.349ZM108.368 611.25C111.741 614.226 114.374 618.098 116.264 622.873L116.636 622.726C114.726 617.901 112.059 613.973 108.632 610.95L108.368 611.25ZM116.264 622.872C118.153 627.746 119.1 633.171 119.1 639.15H119.5C119.5 633.128 118.547 627.653 116.636 622.727L116.264 622.872ZM55.35 636.15C55.35 640.487 56.5109 644.182 58.8413 647.221L59.1587 646.978C56.8891 644.018 55.75 640.412 55.75 636.15H55.35ZM58.8413 647.221C61.1769 650.268 64.1843 651.8 67.85 651.8V651.4C64.3157 651.4 61.4231 649.931 59.1587 646.978L58.8413 647.221ZM67.85 651.8H73.25V651.4H67.85V651.8ZM73.25 651.8C73.5308 651.8 73.7782 651.729 73.9539 651.554C74.1297 651.378 74.2 651.13 74.2 650.85H73.8C73.8 651.069 73.7453 651.196 73.6711 651.271C73.5968 651.345 73.4692 651.4 73.25 651.4V651.8ZM74.2 650.85V640.05H73.8V650.85H74.2ZM74.2 640.05C74.2 635.527 73.3462 631.934 71.6174 629.29L71.2826 629.509C72.9538 632.065 73.8 635.572 73.8 640.05H74.2ZM71.6154 629.287C69.877 626.731 67.4142 625.45 64.25 625.45V625.85C67.2858 625.85 69.623 627.068 71.2846 629.512L71.6154 629.287ZM64.25 625.45C61.4968 625.45 59.2886 626.421 57.647 628.371L57.953 628.628C59.5114 626.778 61.6032 625.85 64.25 625.85V625.45ZM57.643 628.376C56.1073 630.321 55.35 632.919 55.35 636.15H55.75C55.75 632.98 56.4927 630.478 57.957 628.624L57.643 628.376Z" fill="white" mask="url(#path-3-outside-2_116_15)"/>
<path d="M1233.91 570L1334.25 585.786L1349 762.922H1233.91L898 720.927L1064.45 667.874L1094.81 585.786L1205.95 614.533L1233.91 570Z" fill="url(#paint1_linear_116_15)"/>
<circle cx="-59" cy="-101" r="250" fill="url(#paint2_linear_116_15)"/>
<g filter="url(#filter0_d_116_15)">
<path d="M1034.52 95.5489C915.469 110.035 953.923 -53 953.923 -53H1349V310.998C1349 310.998 1288.16 140.851 1134.87 225.924C981.579 310.998 1153.57 81.0628 1034.52 95.5489Z" fill="url(#paint3_linear_116_15)"/>
</g>
</g>
<defs>
<filter id="filter0_d_116_15" x="942" y="-55" width="413" height="375.998" filterUnits="userSpaceOnUse" color-interpolation-filters="sRGB">
<feFlood flood-opacity="0" result="BackgroundImageFix"/>
<feColorMatrix in="SourceAlpha" type="matrix" values="0 0 0 0 0 0 0 0 0 0 0 0 0 0 0 0 0 0 127 0" result="hardAlpha"/>
<feOffset dy="4"/>
<feGaussianBlur stdDeviation="3"/>
<feComposite in2="hardAlpha" operator="out"/>
<feColorMatrix type="matrix" values="0 0 0 0 0 0 0 0 0 0 0 0 0 0 0 0 0 0 0.5 0"/>
<feBlend mode="normal" in2="BackgroundImageFix" result="effect1_dropShadow_116_15"/>
<feBlend mode="normal" in="SourceGraphic" in2="effect1_dropShadow_116_15" result="shape"/>
</filter>
<linearGradient id="paint0_linear_116_15" x1="1280" y1="-6.78168e-05" x2="4.58956e-05" y2="720" gradientUnits="userSpaceOnUse">
<stop stop-color="#DFF2EB"/>
<stop offset="1" stop-color="#4A628A"/>
</linearGradient>
<linearGradient id="paint1_linear_116_15" x1="1135.72" y1="605.632" x2="1266.03" y2="713.037" gradientUnits="userSpaceOnUse">
<stop stop-color="#091057"/>
<stop offset="1" stop-color="#024CAA"/>
</linearGradient>
<linearGradient id="paint2_linear_116_15" x1="-59" y1="-66" x2="112.5" y2="79" gradientUnits="userSpaceOnUse">
<stop stop-color="#FFF1DB"/>
<stop offset="1" stop-color="#D4BDAC"/>
</linearGradient>
<linearGradient id="paint3_linear_116_15" x1="1755.14" y1="-203.919" x2="911.255" y2="328.644" gradientUnits="userSpaceOnUse">
<stop stop-color="#9B7EBD"/>
<stop offset="1" stop-color="#3B1E54"/>
</linearGradient>
<clipPath id="clip0_116_15">
<rect width="1280" height="720" fill="white"/>
</clipPath>
</defs>
</svg>
